<svg width="50" height="50" viewBox="0 0 50 50" fill="none" xmlns="http://www.w3.org/2000/svg">
<path d="M25 50C38.8071 50 50 38.8071 50 25C50 11.1929 38.8071 0 25 0C11.1929 0 0 11.1929 0 25C0 38.8071 11.1929 50 25 50Z" fill="#212121"/>
<path d="M19.1738 22.6062L25 16.78L30.829 22.6088L34.219 19.2188L25 10L15.784 19.216L19.1739 22.606L19.1738 22.6062ZM10 25L13.3901 21.6094L16.78 24.9993L13.3899 28.3894L10 25ZM19.1738 27.3941L25 33.22L30.8289 27.3914L34.2207 30.7796L34.219 30.7814L25 40L15.784 30.784L15.7792 30.7792L19.1741 27.3938L19.1738 27.3941ZM33.22 25.0014L36.6101 21.6113L40 25.0012L36.61 28.3913L33.22 25.0014Z" fill="#F3BA2F"/>
<path d="M28.4382 24.9983H28.4396L24.9999 21.5583L22.4575 24.1001L22.1654 24.3923L21.563 24.9949L21.5582 24.9995L21.563 25.0045L24.9999 28.4419L28.4399 25.0019L28.4415 25L28.4384 24.9983" fill="#F3BA2F"/>
</svg>
