<svg width="50" height="50" viewBox="0 0 50 50" fill="none" xmlns="http://www.w3.org/2000/svg">
<path d="M25 50C38.8071 50 50 38.8071 50 25C50 11.1929 38.8071 0 25 0C11.1929 0 0 11.1929 0 25C0 38.8071 11.1929 50 25 50Z" fill="#627EEA"/>
<path d="M24.9978 9V20.8294L34.9956 25.2974L24.9978 9Z" fill="white" fill-opacity="0.602"/>
<path d="M24.9978 9L15 25.2974L24.9978 20.8294V9Z" fill="white"/>
<path d="M24.9978 32.9621V40.9999L35.0014 27.1582L24.9978 32.9621Z" fill="white" fill-opacity="0.602"/>
<path d="M24.9978 40.9999V32.9621L15 27.1582L24.9978 40.9999Z" fill="white"/>
<path d="M24.9978 31.1013L34.9956 25.2974L24.9978 20.8293V31.1013Z" fill="white" fill-opacity="0.2"/>
<path d="M15 25.2974L24.9978 31.1013V20.8293L15 25.2974Z" fill="white" fill-opacity="0.602"/>
</svg>
