<svg width="155" height="44" viewBox="0 0 155 44" fill="none" xmlns="http://www.w3.org/2000/svg">
<g clip-path="url(#clip0_7641_13087)">
<path d="M39.3749 19.062V30.6219C39.3749 32.3207 38.4673 33.8915 36.9954 34.7409L22.0669 43.3629C20.595 44.2123 18.7799 44.2123 17.308 43.3629L11.9323 40.2562C11.2458 39.6977 10.6 39.0868 10.0125 38.4294C11.2516 38.7203 12.5432 38.8774 13.8697 38.8774C16.5109 38.8774 19.0126 38.2723 21.235 37.1902C21.5201 37.0913 21.7993 36.9692 22.0669 36.8121L28.9668 32.8211L29.95 32.2509C29.95 32.2509 29.9733 32.2393 29.9791 32.2335C30.4736 31.9775 30.9623 31.6982 31.4336 31.3899C31.4859 31.3608 31.5383 31.3259 31.5907 31.291C34.389 29.47 36.6987 26.8985 38.0775 23.8151C38.124 23.7104 38.1706 23.6057 38.2113 23.5068C38.2579 23.402 38.2986 23.2973 38.3393 23.1926C38.4324 22.9599 38.5138 22.733 38.5953 22.5003C38.6418 22.3607 38.6884 22.2269 38.7291 22.0814C39.0316 21.104 39.2527 20.0975 39.3807 19.0562L39.3749 19.062Z" fill="url(#paint0_linear_7641_13087)"/>
<path d="M24.7198 27.8642L21.5666 26.049L15.487 42.3156L4.52625 35.9858L15.5219 22.57L12.5024 20.8363C11.8101 20.4406 11.9439 19.4109 12.7119 19.2073L22.3345 16.6067C22.8116 16.4787 23.3003 16.758 23.4283 17.235L26.023 26.8577C26.2324 27.6256 25.4121 28.2598 24.7198 27.8642Z" fill="#0060DB"/>
<path d="M12.0894 40.3436C12.0894 40.3436 7.83657 36.981 8.30781 31.3784L4.52625 35.9919L12.0836 40.3436H12.0894Z" fill="#0041CB"/>
<path d="M22.0669 7.19971V7.21135C20.595 6.36195 18.7799 6.36195 17.3079 7.21135L8.05765 12.5521C6.69047 13.3433 5.81198 14.757 5.69562 16.3162C5.68399 16.4326 5.68399 16.5547 5.68399 16.6711V27.3584C5.68399 27.4282 5.68399 27.5038 5.68399 27.5678C5.68399 27.6027 5.68399 27.6376 5.68399 27.6725C5.81198 31.809 7.42351 35.5673 10.0066 38.4355C10.6 39.0929 11.24 39.7037 11.9265 40.2623C11.9381 40.2739 11.9498 40.2855 11.9614 40.2913L2.37948 34.747C0.907577 33.8976 0 32.3268 0 30.628V13.3898C0 11.6911 0.907577 10.1202 2.37948 9.27085L7.44096 6.35031C8.34272 5.97797 9.27939 5.68708 10.251 5.47764C11.4145 5.22166 12.6246 5.08203 13.8696 5.08203C16.7843 5.08203 19.5303 5.82089 21.9215 7.11826C21.968 7.14153 22.0145 7.17062 22.0669 7.19971Z" fill="url(#paint1_linear_7641_13087)"/>
<path d="M39.3749 13.378V19.062C39.2469 20.1034 39.0316 21.1157 38.7233 22.0873C38.6826 22.2327 38.6302 22.3665 38.5895 22.5061C38.508 22.7389 38.4208 22.9716 38.3335 23.1985C38.2928 23.3032 38.252 23.4079 38.2055 23.5126C38.1648 23.6173 38.1182 23.7221 38.0717 23.821C36.7336 26.8753 34.517 29.3537 31.7419 31.1921C32.9637 30.302 33.6967 28.8708 33.6967 27.3407V16.6593C33.6967 15.3735 33.1789 14.1634 32.2888 13.2791C32.0037 12.994 31.6779 12.7439 31.3172 12.5344L22.6313 7.52532C22.6313 7.52532 22.5731 7.49041 22.544 7.47296L22.0669 7.19952C22.0204 7.17043 21.9739 7.14716 21.9215 7.11807C19.5304 5.82071 16.7844 5.08185 13.8697 5.08185C12.6247 5.08185 11.4145 5.22147 10.251 5.47746C9.27942 5.6869 8.34275 5.97779 7.44099 6.35013C7.42936 6.35594 7.4119 6.36176 7.40027 6.36758L17.308 0.637049C18.7799 -0.21235 20.595 -0.21235 22.0669 0.637049L36.9954 9.25902C38.2404 9.97461 39.084 11.2138 39.3109 12.6043C39.3516 12.8602 39.3749 13.1162 39.3749 13.378Z" fill="url(#paint2_linear_7641_13087)"/>
<path opacity="0.5" d="M7.48168 6.31543L7.43513 6.34452C7.43513 6.34452 7.41186 6.34452 7.39441 6.35034L7.48168 6.31543Z" fill="#0763FE"/>
<path d="M22.0669 7.19971V7.21135C20.7754 6.46085 19.4489 6.45503 18.5064 6.72265C17.2847 6.25141 15.3415 6.12924 13.986 5.94307C12.7526 5.77435 11.5367 5.7569 10.344 5.84998C9.36666 5.93143 8.41254 6.08851 7.48169 6.33286C7.59223 6.28632 7.70277 6.23977 7.81912 6.19905C8.01693 6.12342 8.22055 6.0536 8.41836 5.98379C8.47653 5.96052 8.53471 5.94307 8.59871 5.92561C8.7616 5.87325 8.93032 5.82089 9.09322 5.76853C9.47138 5.65799 9.85535 5.55909 10.2451 5.47764C11.4087 5.22166 12.6188 5.08203 13.8638 5.08203C16.7785 5.08203 19.5245 5.82089 21.9156 7.11826C21.9622 7.14153 22.0087 7.17062 22.0611 7.19971H22.0669Z" fill="#0763FE"/>
<path d="M7.44099 6.3383C7.44099 6.3383 7.46426 6.33248 7.48172 6.32666C7.47008 6.32666 7.45263 6.3383 7.44099 6.34411C7.42936 6.34993 7.4119 6.35575 7.40027 6.36157L7.44099 6.3383C7.44099 6.3383 7.44099 6.3383 7.44681 6.3383H7.44099Z" fill="#00C0FF"/>
<path d="M32.6553 30.5462C34.9708 28.795 36.8732 26.5028 38.0716 23.8208C36.8848 26.5319 35.0057 28.7892 32.6553 30.5462Z" fill="#0148BE"/>
<path d="M39.3632 19.062L39.34 19.3064C39.34 19.3529 39.3283 19.3936 39.3225 19.4402C39.3167 19.4867 39.3109 19.5274 39.3051 19.574C39.2934 19.6612 39.276 19.7485 39.2643 19.8358C39.2236 20.0918 39.1713 20.3477 39.1189 20.5979C39.0084 21.1041 38.8804 21.5986 38.7291 22.0873C38.6884 22.2327 38.636 22.3665 38.5953 22.5061C38.5138 22.7389 38.4266 22.9716 38.3393 23.1985C38.2986 23.3032 38.2579 23.4079 38.2113 23.5126C38.1706 23.6173 38.124 23.7221 38.0775 23.821C36.8907 26.5321 35.0115 28.7894 32.6611 30.5463C32.6088 30.5871 32.5564 30.622 32.5041 30.6627C32.3877 30.75 32.2772 30.8314 32.1608 30.9129C32.0328 31.006 31.899 31.0932 31.7652 31.1863C32.6786 30.5114 33.1731 29.726 33.4931 28.7486C35.1104 27.428 36.5765 25.514 37.6179 23.6813C37.6703 23.5824 37.7284 23.4835 37.7808 23.3846C37.8332 23.2857 37.8855 23.1868 37.9379 23.0821C38.0484 22.861 38.159 22.64 38.2579 22.4131C38.316 22.2793 38.3742 22.1513 38.4324 22.0116C38.828 21.0692 39.148 20.0859 39.3691 19.062H39.3632Z" fill="#0296FE"/>
<path d="M82.4436 23.5415V26.9042C82.4436 27.3987 82.176 27.8525 81.7513 28.0968L77.4112 30.6043C76.9807 30.8487 76.4571 30.8487 76.0266 30.6043L74.4616 29.7026C74.258 29.5397 74.0718 29.3593 73.9031 29.1673C73.1526 28.3354 72.6871 27.2416 72.6464 26.0373C72.6464 26.0257 72.6464 26.0199 72.6464 26.0082V25.9501C72.6464 26.4446 72.914 26.8984 73.3387 27.1427L76.0266 28.6961C76.3756 28.8997 76.7945 28.9404 77.1668 28.8066C77.2483 28.7775 77.3297 28.7426 77.4112 28.6961L79.4183 27.5325L79.7034 27.3696C79.7034 27.3696 79.7092 27.3696 79.715 27.3696C79.8547 27.294 80.0001 27.2125 80.1339 27.1253C80.1514 27.1136 80.163 27.1078 80.1805 27.0962C80.9891 26.5668 81.664 25.8221 82.0654 24.9261C82.0771 24.897 82.0945 24.868 82.1062 24.8389C82.1178 24.8098 82.1294 24.7749 82.1411 24.7458C82.1702 24.6818 82.1934 24.612 82.2167 24.5422L82.2574 24.4258C82.3447 24.1407 82.4087 23.844 82.4436 23.5473V23.5415Z" fill="#0148BE"/>
<path d="M77.4112 20.0913C76.9807 19.8469 76.4571 19.8469 76.0266 20.0913L73.3388 21.6446C72.9431 21.8773 72.6872 22.2846 72.6523 22.7384C72.6523 22.7733 72.6523 22.8082 72.6523 22.8431V25.9498C72.6523 25.9498 72.6523 25.9905 72.6523 26.0138C72.6523 26.0254 72.6523 26.0312 72.6523 26.0429C72.6872 27.2471 73.1584 28.3351 73.9089 29.1728C74.0834 29.3648 74.2696 29.5394 74.4674 29.7023C74.4674 29.7023 74.4732 29.7081 74.479 29.7139L71.6923 28.1024C71.2618 27.858 71 27.3984 71 26.9039V21.889C71 21.3944 71.2618 20.9407 71.6923 20.6905L73.1642 19.8411C73.426 19.7306 73.6995 19.6491 73.9845 19.5851C74.322 19.5095 74.6768 19.4688 75.0376 19.4688C75.887 19.4688 76.684 19.684 77.3763 20.0622C77.3879 20.068 77.4054 20.0796 77.417 20.0854L77.4112 20.0913Z" fill="url(#paint3_linear_7641_13087)"/>
<path d="M82.4437 21.8892V23.5415C82.4087 23.844 82.3447 24.1407 82.2575 24.4199C82.2458 24.4607 82.2284 24.5014 82.2168 24.5421C82.1935 24.6119 82.1702 24.6759 82.1411 24.7457C82.1295 24.7748 82.1179 24.8039 82.1062 24.8388C82.0946 24.8679 82.0829 24.897 82.0655 24.9261C81.6757 25.8162 81.0299 26.5318 80.2271 27.067C80.582 26.8111 80.7972 26.3922 80.7972 25.95V22.8433C80.7972 22.471 80.646 22.1161 80.39 21.8601C80.3085 21.7787 80.2096 21.703 80.1107 21.6448L77.5858 20.1904C77.5858 20.1904 77.5683 20.1788 77.5625 20.1729L77.4229 20.0915C77.4229 20.0915 77.3938 20.074 77.3822 20.0682C76.684 19.6901 75.887 19.4748 75.0434 19.4748C74.6827 19.4748 74.3278 19.5155 73.9904 19.5912C73.7111 19.6552 73.4377 19.7366 73.1701 19.8472C73.1701 19.8472 73.1643 19.8472 73.1584 19.8472L76.0383 18.1833C76.4688 17.9389 76.9924 17.9389 77.4229 18.1833L81.763 20.6907C82.1237 20.9002 82.368 21.2609 82.4378 21.6623C82.4495 21.7379 82.4553 21.8136 82.4553 21.8892H82.4437Z" fill="url(#paint4_linear_7641_13087)"/>
<path d="M56.108 18.484C57.732 18.484 59.096 19.056 60.2 20.2C61.304 21.344 61.856 22.788 61.856 24.532C61.856 26.276 61.304 27.72 60.2 28.864C59.096 30.008 57.732 30.58 56.108 30.58C54.58 30.58 53.38 30.024 52.508 28.912V30.28H50V13H52.508V20.152C53.38 19.04 54.58 18.484 56.108 18.484ZM55.808 20.848C54.784 20.848 53.948 21.196 53.3 21.892C52.66 22.588 52.34 23.468 52.34 24.532C52.34 25.596 52.66 26.476 53.3 27.172C53.948 27.868 54.784 28.216 55.808 28.216C56.856 28.216 57.696 27.864 58.328 27.16C58.96 26.448 59.276 25.572 59.276 24.532C59.276 23.492 58.96 22.62 58.328 21.916C57.696 21.204 56.856 20.848 55.808 20.848Z" fill="#000224"/>
<path d="M67.4731 13V30.28H64.9531V13H67.4731Z" fill="#000224"/>
<path d="M91.2669 18.484C92.1389 18.484 92.9469 18.64 93.6909 18.952C94.4349 19.264 95.0589 19.72 95.5629 20.32L93.9549 22.036C93.1149 21.244 92.1949 20.848 91.1949 20.848C90.2189 20.848 89.4069 21.192 88.7589 21.88C88.1189 22.568 87.7989 23.452 87.7989 24.532C87.7989 25.612 88.1189 26.496 88.7589 27.184C89.4069 27.872 90.2189 28.216 91.1949 28.216C92.2189 28.216 93.1589 27.816 94.0149 27.016L95.5629 28.744C94.5069 29.968 93.0749 30.58 91.2669 30.58C89.4589 30.58 87.9989 30.008 86.8869 28.864C85.7749 27.72 85.2189 26.276 85.2189 24.532C85.2189 22.788 85.7749 21.344 86.8869 20.2C87.9989 19.056 89.4589 18.484 91.2669 18.484Z" fill="#000224"/>
<path d="M100.895 13V23.152H102.155L105.947 18.784H109.103L104.291 24.196L109.151 30.28H105.971L102.143 25.432H100.895V30.28H98.375V13H100.895Z" fill="#000224"/>
<path d="M113.926 13V30.28H111.406V13H113.926Z" fill="#000224"/>
<path d="M122.748 18.484C124.356 18.484 125.66 19.044 126.66 20.164C127.668 21.276 128.176 22.728 128.184 24.52C128.184 24.76 128.168 25.072 128.136 25.456H119.64C119.8 26.44 120.192 27.176 120.816 27.664C121.44 28.144 122.188 28.384 123.06 28.384C124.26 28.384 125.368 27.98 126.384 27.172L127.632 28.96C126.368 30.04 124.792 30.58 122.904 30.58C121.168 30.58 119.752 30.024 118.656 28.912C117.568 27.8 117.024 26.34 117.024 24.532C117.024 22.732 117.552 21.276 118.608 20.164C119.672 19.044 121.052 18.484 122.748 18.484ZM122.7 20.716C121.836 20.716 121.144 20.972 120.624 21.484C120.112 21.988 119.788 22.676 119.652 23.548H125.616C125.48 22.652 125.156 21.956 124.644 21.46C124.14 20.964 123.492 20.716 122.7 20.716Z" fill="#000224"/>
<path d="M137.305 18.484C138.673 18.484 139.793 18.912 140.665 19.768C141.537 20.616 141.973 21.712 141.973 23.056V30.28H139.453V23.884C139.453 22.924 139.217 22.184 138.745 21.664C138.281 21.136 137.625 20.872 136.777 20.872C135.929 20.872 135.221 21.144 134.653 21.688C134.085 22.224 133.801 22.964 133.801 23.908V30.28H131.281V18.784H133.777V20.188C134.553 19.052 135.729 18.484 137.305 18.484Z" fill="#000224"/>
<path d="M154.693 19.708L153.613 21.664C153.205 21.408 152.673 21.18 152.017 20.98C151.369 20.78 150.717 20.68 150.061 20.68C149.389 20.68 148.857 20.804 148.465 21.052C148.081 21.3 147.889 21.632 147.889 22.048C147.889 22.24 147.933 22.408 148.021 22.552C148.117 22.688 148.257 22.8 148.441 22.888C148.633 22.976 148.829 23.044 149.029 23.092C149.237 23.14 149.489 23.188 149.785 23.236L150.973 23.416C153.637 23.8 154.969 24.932 154.969 26.812C154.969 27.94 154.505 28.848 153.577 29.536C152.649 30.224 151.369 30.568 149.737 30.568C147.777 30.568 146.133 30.076 144.805 29.092L145.969 27.208C146.993 27.992 148.257 28.384 149.761 28.384C150.609 28.384 151.257 28.26 151.705 28.012C152.153 27.764 152.377 27.42 152.377 26.98C152.377 26.316 151.713 25.892 150.385 25.708L149.185 25.552C147.913 25.376 146.945 25.004 146.281 24.436C145.617 23.86 145.285 23.108 145.285 22.18C145.285 21.044 145.709 20.148 146.557 19.492C147.413 18.828 148.573 18.496 150.037 18.496C151.893 18.496 153.445 18.9 154.693 19.708Z" fill="#000224"/>
</g>
<defs>
<linearGradient id="paint0_linear_7641_13087" x1="15.5161" y1="42.3041" x2="38.5197" y2="25.8804" gradientUnits="userSpaceOnUse">
<stop stop-color="#0148BE"/>
<stop offset="1" stop-color="#0257BC"/>
</linearGradient>
<linearGradient id="paint1_linear_7641_13087" x1="12.6712" y1="6.32122" x2="3.58958" y2="33.6591" gradientUnits="userSpaceOnUse">
<stop stop-color="#226CFF"/>
<stop offset="1" stop-color="#1084FF"/>
</linearGradient>
<linearGradient id="paint2_linear_7641_13087" x1="15.5045" y1="1.43409" x2="38.2288" y2="23.9373" gradientUnits="userSpaceOnUse">
<stop stop-color="#03CAFF"/>
<stop offset="1" stop-color="#01B9FF"/>
</linearGradient>
<linearGradient id="paint3_linear_7641_13087" x1="74.6769" y1="19.8353" x2="72.0414" y2="27.7824" gradientUnits="userSpaceOnUse">
<stop stop-color="#226CFF"/>
<stop offset="1" stop-color="#1084FF"/>
</linearGradient>
<linearGradient id="paint4_linear_7641_13087" x1="75.503" y1="18.416" x2="82.112" y2="24.9552" gradientUnits="userSpaceOnUse">
<stop stop-color="#00DBFF"/>
<stop offset="1" stop-color="#01B9FF"/>
</linearGradient>
<clipPath id="clip0_7641_13087">
<rect width="155" height="44" fill="white"/>
</clipPath>
</defs>
</svg>
