<svg width="36" height="36" viewBox="0 0 36 36" fill="none" xmlns="http://www.w3.org/2000/svg">
    <path d="M34.221 0L20.1538 11.253L22.7664 4.614L34.221 0Z" fill="#E17726"/>
    <path d="M1.7793 0L15.7185 11.3595L13.234 4.614L1.7793 0Z" fill="#E27625"/>
    <path d="M29.1641 26.0864L25.4219 32.2694L33.4293 34.6439L35.7177 26.2229L29.1641 26.0864Z" fill="#E27625"/>
    <path d="M0.296387 26.2229L2.57091 34.6439L10.5783 32.2694L6.85006 26.0864L0.296387 26.2229Z" fill="#E27625"/>
    <path d="M10.1401 15.6388L7.90869 19.2793L15.8466 19.6603L15.5781 10.4458L10.1401 15.6388Z" fill="#E27625"/>
    <path d="M25.8603 15.6388L20.3374 10.3394L20.1538 19.6603L28.0917 19.2793L25.8603 15.6388Z" fill="#E27625"/>
    <path d="M10.5781 32.2697L15.3664 29.7557L11.2417 26.2847L10.5781 32.2697Z" fill="#E27625"/>
    <path d="M20.6333 29.7557L25.4216 32.2697L24.758 26.2847L20.6333 29.7557Z" fill="#E27625"/>
    <path d="M25.4216 32.2694L20.6333 29.7554L21.0145 33.1214L20.9727 34.5374L25.4216 32.2694Z" fill="#D5BFB2"/>
    <path d="M10.5781 32.2694L15.027 34.5374L14.9992 33.1214L15.3664 29.7554L10.5781 32.2694Z" fill="#D5BFB2"/>
    <path d="M15.1117 24.0601L11.1289 22.7971L13.939 21.4111L15.1117 24.0601Z" fill="#233447"/>
    <path d="M20.8877 24.0601L22.0604 21.4111L24.8844 22.7971L20.8877 24.0601Z" fill="#233447"/>
    <path d="M10.5784 32.2694L11.2698 26.0864L6.8501 26.2229L10.5784 32.2694Z" fill="#CC6228"/>
    <path d="M24.7305 26.0864L25.4219 32.2694L29.164 26.2229L24.7305 26.0864Z" fill="#CC6228"/>
    <path d="M28.0917 19.2793L20.1538 19.6603L20.8883 24.0598L22.0611 21.4108L24.8851 22.7968L28.0917 19.2793Z" fill="#CC6228"/>
    <path d="M11.1292 22.7968L13.9393 21.4108L15.112 24.0598L15.8466 19.6603L7.90869 19.2793L11.1292 22.7968Z" fill="#CC6228"/>
    <path d="M7.90869 19.2793L11.2419 26.2843L11.1292 22.7968L7.90869 19.2793Z" fill="#E27525"/>
    <path d="M24.8849 22.7968L24.7583 26.2843L28.0915 19.2793L24.8849 22.7968Z" fill="#E27525"/>
    <path d="M15.8468 19.6606L15.1123 24.0601L16.0444 29.2531L16.2419 22.4161L15.8468 19.6606Z" fill="#E27525"/>
    <path d="M20.1531 19.6606L19.772 22.4011L19.9556 29.2531L20.8877 24.0601L20.1531 19.6606Z" fill="#E27525"/>
    <path d="M20.8881 24.0599L19.9561 29.2529L20.6335 29.7554L24.7583 26.2844L24.8849 22.7969L20.8881 24.0599Z" fill="#F5841F"/>
    <path d="M11.1289 22.7969L11.2416 26.2844L15.3663 29.7554L16.0438 29.2529L15.1118 24.0599L11.1289 22.7969Z" fill="#F5841F"/>
    <path d="M20.9727 34.5375L21.0145 33.1215L20.6625 32.787H15.3372L14.9992 33.1215L15.027 34.5375L10.5781 32.2695L12.132 33.639L15.2955 36H20.7043L23.8677 33.639L25.4216 32.2695L20.9727 34.5375Z" fill="#C0AC9D"/>
    <path d="M20.6331 29.7554L19.9557 29.2529H16.0438L15.3663 29.7554L14.999 33.1214L15.3371 32.7869H20.6624L21.0143 33.1214L20.6331 29.7554Z" fill="#161616"/>
    <path d="M34.8132 11.985L35.9999 5.772L34.2206 0L20.6333 10.8735L25.8598 15.639L33.2454 17.97L34.8703 15.9135L34.1636 15.366L35.2932 14.253L34.432 13.5225L35.5617 12.594L34.8132 11.985Z" fill="#763E1A"/>
    <path d="M0 5.772L1.20056 11.985L0.43821 12.594L1.56782 13.5225L0.706701 14.253L1.83631 15.366L1.12961 15.9135L2.75446 17.97L10.14 15.639L15.3666 10.8735L1.77927 0L0 5.772Z" fill="#763E1A"/>
    <path d="M33.2457 17.9702L25.8601 15.6392L28.0915 19.2797L24.7583 26.2847L29.1641 26.2231H35.7177L33.2457 17.9702Z" fill="#F5841F"/>
    <path d="M10.1401 15.6392L2.75454 17.9702L0.296387 26.2231H6.85006L11.2419 26.2847L7.90872 19.2797L10.1401 15.6392Z" fill="#F5841F"/>
    <path d="M20.1534 19.6608L20.6334 10.8738L22.766 4.61426H13.2339L15.3665 10.8738L15.8465 19.6608L16.0301 22.4313L16.044 29.2533H19.9559L19.9698 22.4313L20.1534 19.6608Z" fill="#F5841F"/>
</svg>
