<svg width="42" height="26" viewBox="0 0 42 26" fill="none" xmlns="http://www.w3.org/2000/svg">
    <path d="M8.6015 5.15672C15.448 -1.54898 26.552 -1.54898 33.3985 5.15672L34.2218 5.95837C34.5685 6.29419 34.5685 6.83585 34.2218 7.17168L31.4052 9.93412C31.2319 10.0966 30.9611 10.0966 30.7877 9.93412L29.6502 8.81831C24.8728 4.1384 17.1272 4.1384 12.3498 8.81831L11.1364 10.01C10.9631 10.1725 10.6923 10.1725 10.519 10.01L7.69151 7.25834C7.34485 6.92252 7.34485 6.38086 7.69151 6.04503L8.6015 5.15672ZM39.2267 10.8658L41.74 13.3249C42.0867 13.6607 42.0867 14.2024 41.74 14.5382L30.4194 25.6205C30.0727 25.9563 29.5202 25.9563 29.1844 25.6205L21.1571 17.7556C21.0704 17.669 20.9296 17.669 20.8429 17.7556L12.8156 25.6205C12.4689 25.9563 11.9164 25.9563 11.5806 25.6205L0.259995 14.5382C-0.0866649 14.2024 -0.0866649 13.6607 0.259995 13.3249L2.77328 10.8658C3.11994 10.5299 3.67243 10.5299 4.00825 10.8658L12.0356 18.7306C12.1223 18.8173 12.2631 18.8173 12.3498 18.7306L20.3771 10.8658C20.7238 10.5299 21.2762 10.5299 21.6121 10.8658L29.6394 18.7306C29.7261 18.8173 29.8669 18.8173 29.9536 18.7306L37.9809 10.8658C38.3276 10.5299 38.8801 10.5299 39.2267 10.8658Z" fill="#3B99FC"/>
</svg>
