<svg width="16" height="16" viewBox="0 0 16 16" fill="none" xmlns="http://www.w3.org/2000/svg">
    <path fill-rule="evenodd" clip-rule="evenodd" d="M8.01514 0.666016C3.96658 0.666016 0.665044 3.96235 0.665039 8.0109C0.665029 12.0595 3.96657 15.3597 8.01514 15.3597C12.0637 15.3597 15.3587 12.0595 15.3587 8.0109C15.3587 3.96235 12.0637 0.666016 8.01514 0.666016ZM8.01514 2.00145C11.342 2.00145 14.0233 4.68407 14.0233 8.0109C14.0233 11.3377 11.342 14.0243 8.01514 14.0243C4.6883 14.0243 2.00046 11.3377 2.00047 8.0109C2.00048 4.68407 4.6883 2.00145 8.01514 2.00145ZM8.0047 4.66319C7.91646 4.66404 7.82927 4.68237 7.74815 4.71713C7.66704 4.75189 7.59362 4.80237 7.53214 4.86568C7.47066 4.92898 7.42233 5.00384 7.38995 5.08593C7.35757 5.16802 7.34179 5.25571 7.34351 5.34394V7.34448H5.34297C5.31994 7.34329 5.29687 7.34329 5.27385 7.34448C5.09659 7.35365 4.93022 7.43286 4.81136 7.56468C4.6925 7.69651 4.63087 7.87015 4.64004 8.04741C4.6492 8.22468 4.72841 8.39104 4.86024 8.5099C4.99206 8.62876 5.1657 8.69039 5.34297 8.68122H7.34351V10.6818C7.34351 10.859 7.41393 11.029 7.53927 11.1544C7.66461 11.2797 7.83461 11.3501 8.01188 11.3501C8.18914 11.3501 8.35914 11.2797 8.48448 11.1544C8.60983 11.029 8.68025 10.859 8.68025 10.6818V8.68122H10.6808C10.858 8.68122 11.0281 8.6108 11.1534 8.48546C11.2787 8.36012 11.3492 8.19012 11.3492 8.01285C11.3492 7.83559 11.2787 7.66559 11.1534 7.54025C11.0281 7.4149 10.858 7.34448 10.6808 7.34448H8.68025V5.34394C8.68199 5.25451 8.66575 5.16563 8.63248 5.08259C8.59922 4.99955 8.54961 4.92404 8.4866 4.86055C8.42359 4.79705 8.34846 4.74686 8.26568 4.71296C8.1829 4.67906 8.09415 4.66213 8.0047 4.66319Z" fill="white"/>
</svg>
