<svg width="18" height="18" viewBox="0 0 18 18" fill="none" xmlns="http://www.w3.org/2000/svg">
<path d="M17.0311 4.05436L14.7676 5.99449L11.6217 1.8C11.3606 1.45181 10.8222 1.49948 10.6272 1.88968L7.46965 8.2048L4.52377 5.25892C4.27025 5.00541 3.84979 5.03655 3.63656 5.32529L1.1739 8.66004V0.586969C1.1739 0.262793 0.911109 0 0.586969 0C0.262828 0 0 0.262793 0 0.586969V17.4131C0 17.7372 0.262793 18 0.586969 18H17.4131C17.7372 18 18 17.7372 18 17.413V4.5C18 3.99952 17.411 3.72864 17.0311 4.05436ZM16.8261 16.8261H1.1739V16.5058L4.17579 12.4407L7.2154 15.4802C7.4982 15.7631 7.97632 15.6859 8.15544 15.3277L11.2525 9.13366L14.2044 13.0695C14.4079 13.341 14.7987 13.3835 15.0559 13.163L16.8261 11.6457V16.8261ZM16.8261 10.0996L14.7676 11.864L11.6217 7.66958C11.3606 7.32139 10.8222 7.36907 10.6272 7.75927L7.46965 14.0744L4.52377 11.1285C4.46404 11.0688 4.39212 11.0227 4.31294 10.9933C4.23375 10.9639 4.14916 10.9519 4.06494 10.9582C3.98071 10.9645 3.89883 10.9889 3.8249 11.0298C3.75096 11.0706 3.68671 11.1269 3.63653 11.1948L1.1739 14.5297V10.6362L4.17579 6.57109L7.2154 9.61066C7.49823 9.8935 7.97632 9.81636 8.15544 9.45812L11.2525 3.26412L14.2044 7.2C14.4079 7.47141 14.7987 7.51398 15.0559 7.29348L16.8261 5.77617V10.0996Z" fill="#000224" fill-opacity="0.5"/>
</svg>