<svg width="16" height="16"  fill="currentColor" viewBox="0 0 16 16"  xmlns="http://www.w3.org/2000/svg">
<path d="M15.1387 3.60387L13.1267 5.32844L10.3304 1.6C10.0983 1.2905 9.61975 1.33287 9.44641 1.67972L6.63969 7.29316L4.02112 4.67459C3.79578 4.44925 3.42203 4.47694 3.2325 4.73359L1.04347 7.69781V0.52175C1.04347 0.233594 0.809875 0 0.52175 0C0.233625 0 0 0.233594 0 0.52175V15.4783C0 15.7664 0.233594 16 0.52175 16H15.4783C15.7664 16 16 15.7664 16 15.4782V4C16 3.55512 15.4764 3.31434 15.1387 3.60387ZM14.9565 14.9565H1.04347V14.6718L3.71181 11.0584L6.41369 13.7602C6.66506 14.0116 7.09006 13.9431 7.24928 13.6246L10.0022 8.11881L12.6261 11.6174C12.807 11.8586 13.1544 11.8965 13.383 11.7005L14.9565 10.3518V14.9565ZM14.9565 8.97744L13.1267 10.5458L10.3304 6.81741C10.0983 6.50791 9.61975 6.55028 9.44641 6.89712L6.63969 12.5106L4.02112 9.892C3.96803 9.83892 3.90411 9.79792 3.83372 9.7718C3.76334 9.74568 3.68814 9.73506 3.61328 9.74065C3.53841 9.74625 3.46563 9.76794 3.39991 9.80423C3.33419 9.84053 3.27708 9.89058 3.23247 9.95097L1.04347 12.9152V9.45438L3.71181 5.84097L6.41369 8.54281C6.66509 8.79422 7.09006 8.72566 7.24928 8.40722L10.0022 2.90144L12.6261 6.4C12.807 6.64125 13.1544 6.67909 13.383 6.48309L14.9565 5.13438V8.97744Z" />
</svg>
