<svg width="18" height="18" viewBox="0 0 18 18" fill="none" xmlns="http://www.w3.org/2000/svg">
<path d="M16.9091 8.40347L13.7271 5.22151C13.6488 5.14316 13.5558 5.081 13.4534 5.0386C13.351 4.99619 13.2413 4.97437 13.1305 4.97437C13.0197 4.97437 12.91 4.99619 12.8076 5.0386C12.7052 5.081 12.6122 5.14316 12.5339 5.22151C12.3756 5.37974 12.2867 5.59435 12.2867 5.81813C12.2867 6.0419 12.3756 6.25651 12.5339 6.41475L14.2755 8.15635H5.0625C4.83872 8.15635 4.62411 8.24525 4.46588 8.40348C4.30764 8.56172 4.21875 8.77633 4.21875 9.0001C4.21875 9.22388 4.30764 9.43849 4.46588 9.59672C4.62411 9.75496 4.83872 9.84385 5.0625 9.84385H14.2755L12.5339 11.5855C12.3756 11.7437 12.2867 11.9583 12.2867 12.1821C12.2868 12.4059 12.3757 12.6205 12.5339 12.7787C12.6921 12.9369 12.9067 13.0258 13.1305 13.0258C13.3543 13.0258 13.5689 12.9369 13.7271 12.7787L16.9091 9.5967C17.0674 9.43847 17.1563 9.22386 17.1563 9.00009C17.1563 8.77631 17.0674 8.5617 16.9091 8.40347Z" fill="#EE5D50"/>
</svg>
