<svg width="24" height="24" viewBox="0 0 24 24" fill="none" xmlns="http://www.w3.org/2000/svg">
<g clip-path="url(#clip0_3698_23022)">
<path d="M12.0001 24C18.6168 24 23.9998 18.6168 23.9998 11.9999C23.9998 5.38325 18.6168 0 12.0001 0C5.38338 0 0.000244141 5.38325 0.000244141 11.9999C0.000244141 18.6168 5.38338 24 12.0001 24ZM12.0001 1.6427C17.711 1.6427 22.3571 6.28892 22.3572 11.9999C22.3572 17.711 17.7111 22.3572 12.0001 22.3573C6.28917 22.3572 1.64306 17.711 1.64306 11.9998C1.64306 6.28903 6.28917 1.6427 12.0001 1.6427Z" fill="#8D91A5"/>
<path d="M10.3885 17.1396C10.5426 17.2936 10.7515 17.3801 10.9693 17.3801C11.1871 17.3801 11.396 17.2936 11.55 17.1396C11.6263 17.0633 11.6869 16.9728 11.7282 16.8731C11.7694 16.7734 11.7907 16.6666 11.7907 16.5587C11.7907 16.4509 11.7694 16.344 11.7281 16.2444C11.6868 16.1447 11.6262 16.0542 11.5499 15.9779L8.39375 12.8218L17.5334 12.821C17.7513 12.8209 17.9602 12.7344 18.1142 12.5803C18.2682 12.4263 18.3547 12.2174 18.3547 11.9995C18.3547 11.7817 18.2682 11.5728 18.1141 11.4188C17.9601 11.2648 17.7512 11.1782 17.5333 11.1782L8.39331 11.1791L11.5503 8.0224C11.7043 7.86836 11.7909 7.65943 11.7909 7.44158C11.7909 7.22372 11.7044 7.01479 11.5503 6.86073C11.3963 6.70668 11.1873 6.62013 10.9695 6.62012C10.7516 6.62011 10.5427 6.70664 10.3887 6.86068L5.82971 11.4195C5.75342 11.4958 5.6929 11.5863 5.65161 11.6859C5.61033 11.7856 5.58909 11.8924 5.58911 12.0003C5.58922 12.2182 5.67579 12.4271 5.82982 12.5812L10.3885 17.1396Z" fill="#8D91A5"/>
</g>
<defs>
<clipPath id="clip0_3698_23022">
<rect width="24" height="24" fill="white"/>
</clipPath>
</defs>
</svg>
