<svg width="19" height="18" viewBox="0 0 19 18" fill="none" xmlns="http://www.w3.org/2000/svg">
<path d="M17.5893 3.59124H14.2844C13.9384 3.59124 13.6579 3.87172 13.6579 4.21771V14.409C13.6579 14.755 13.9384 15.0355 14.2844 15.0355H17.5893C17.9352 15.0355 18.2157 14.755 18.2157 14.409V4.21771C18.2157 3.87172 17.9352 3.59124 17.5893 3.59124ZM16.9628 13.7826H14.9108V4.84419H16.9628V13.7826ZM12.1363 0.25H8.83143C8.48544 0.25 8.20496 0.530483 8.20496 0.876474V14.409C8.20496 14.755 8.48541 15.0355 8.83143 15.0355H12.1363C12.4823 15.0355 12.7628 14.755 12.7628 14.409V0.876509C12.7628 0.530518 12.4823 0.25 12.1363 0.25ZM11.5098 13.7826H9.4579V1.50298H11.5098V13.7826ZM6.68332 5.26186H3.37843C3.03244 5.26186 2.75195 5.54234 2.75195 5.88833V14.409C2.75195 14.755 3.03244 15.0355 3.37843 15.0355H6.68332C7.02931 15.0355 7.30979 14.755 7.30979 14.409V5.88833C7.30979 5.54234 7.02931 5.26186 6.68332 5.26186ZM6.05684 13.7826H4.0049V6.51481H6.05684V13.7826Z" fill="#000224" fill-opacity="0.5"/>
<path d="M17.5879 16.497H1.50295V0.876474C1.50295 0.530483 1.22246 0.25 0.876474 0.25C0.530483 0.249965 0.25 0.530483 0.25 0.876474V17.1235C0.25 17.4695 0.530483 17.75 0.876474 17.75H17.5879C17.9339 17.75 18.2144 17.4695 18.2144 17.1235C18.2144 16.7775 17.9339 16.497 17.5879 16.497Z" fill="#000224" fill-opacity="0.5"/>
</svg>
