<svg stroke="currentColor" fill="currentColor" stroke-width="0" viewBox="0 0 16 16" icon="bullet-list"
    aria-hidden="true" alt="" width="15" height="14" xmlns="http://www.w3.org/2000/svg">
    <path fill-rule="evenodd" d="M14.8698 3.67299H12.2259C11.9491 3.67299 11.7248 3.89738 11.7248 4.17417V12.3272C11.7248 12.604 11.9491 12.8284 12.2259 12.8284H14.8698C15.1466 12.8284 15.371 12.604 15.371 12.3272V4.17417C15.371 3.89738 15.1466 3.67299 14.8698 3.67299ZM14.3687 11.8261H12.7271V4.67535H14.3687V11.8261ZM10.5075 1H7.86358C7.58679 1 7.3624 1.22439 7.3624 1.50118V12.3272C7.3624 12.604 7.58676 12.8284 7.86358 12.8284H10.5075C10.7843 12.8284 11.0087 12.604 11.0087 12.3272V1.50121C11.0087 1.22441 10.7843 1 10.5075 1ZM10.0063 11.8261H8.36476V2.00239H10.0063V11.8261ZM6.14509 5.00949H3.50118C3.22439 5.00949 3 5.23387 3 5.51067V12.3272C3 12.604 3.22439 12.8284 3.50118 12.8284H6.14509C6.42188 12.8284 6.64627 12.604 6.64627 12.3272V5.51067C6.64627 5.23387 6.42188 5.00949 6.14509 5.00949ZM5.64391 11.8261H4.00236V6.01185H5.64391V11.8261Z" />
    <path fill-rule="evenodd" d="M14.8703 13.9976H2.00236V1.50118C2.00236 1.22439 1.77797 1 1.50118 1C1.22439 0.999972 1 1.22439 1 1.50118V14.4988C1 14.7756 1.22439 15 1.50118 15H14.8703C15.1471 15 15.3715 14.7756 15.3715 14.4988C15.3715 14.222 15.1471 13.9976 14.8703 13.9976Z" />
</svg>