<svg width="191" height="180" viewBox="0 0 191 180" fill="none" xmlns="http://www.w3.org/2000/svg">
    <path d="M102.052 69.4739C101.214 69.4739 100.411 69.1412 99.819 68.5489C99.2267 67.9567 98.894 67.1535 98.894 66.316V60.0002C98.894 59.1627 99.2267 58.3594 99.819 57.7672C100.411 57.175 101.214 56.8423 102.052 56.8423C102.889 56.8423 103.693 57.175 104.285 57.7672C104.877 58.3594 105.21 59.1627 105.21 60.0002V66.316C105.21 67.1535 104.877 67.9567 104.285 68.5489C103.693 69.1412 102.889 69.4739 102.052 69.4739Z" fill="#F3F3F3"/>
    <path d="M89.4211 69.4739C88.5836 69.4739 87.7803 69.1412 87.1881 68.5489C86.5959 67.9567 86.2632 67.1535 86.2632 66.316V60.0002C86.2632 59.1627 86.5959 58.3594 87.1881 57.7672C87.7803 57.175 88.5836 56.8423 89.4211 56.8423C90.2586 56.8423 91.0618 57.175 91.654 57.7672C92.2463 58.3594 92.579 59.1627 92.579 60.0002V66.316C92.579 67.1535 92.2463 67.9567 91.654 68.5489C91.0618 69.1412 90.2586 69.4739 89.4211 69.4739Z" fill="#F3F3F3"/>
    <path d="M8.84646 26.1763H153.711C155.961 26.1763 158.118 27.2866 159.708 29.2629C161.299 31.2393 162.192 33.9197 162.192 36.7147V53.1473H11.2647C8.37408 53.1473 5.6019 51.7204 3.55795 49.1806C1.514 46.6407 0.365723 43.1959 0.365723 39.6039V36.7147C0.365723 33.9197 1.25923 31.2393 2.84968 29.2629C4.44012 27.2866 6.59723 26.1763 8.84646 26.1763Z" fill="#1A203B"/>
    <path d="M83.1053 63.1581H76.7895C75.952 63.1581 75.1487 62.8254 74.5565 62.2332C73.9643 61.6409 73.6316 60.8377 73.6316 60.0002C73.6316 59.1627 73.9643 58.3594 74.5565 57.7672C75.1487 57.175 75.952 56.8423 76.7895 56.8423H83.1053C83.9428 56.8423 84.746 57.175 85.3382 57.7672C85.9305 58.3594 86.2632 59.1627 86.2632 60.0002C86.2632 60.8377 85.9305 61.6409 85.3382 62.2332C84.746 62.8254 83.9428 63.1581 83.1053 63.1581Z" fill="#F3F3F3"/>
    <path d="M18.229 48.2355L104.678 24.3295L100.1 14.9546C97.1047 8.86093 89.7991 6.34451 83.7842 9.37902L6.39404 48.2355H18.229Z" fill="url(#paint0_linear_1163_5021)"/>
    <path d="M132.059 24.7026C130.988 24.7026 129.917 24.8527 128.845 25.1528L108.543 30.8547L46.5378 48.2354H116.917H147.59L143.793 33.9307C142.332 28.3538 137.415 24.7026 132.059 24.7026Z" fill="url(#paint1_linear_1163_5021)"/>
    <path d="M174.684 47.3686H10.4734C5.24127 47.3686 4.4113 47.3686 0.999756 41.0103V170.527C0.999756 175.759 5.24127 180 10.4734 180H174.684C179.916 180 184.158 175.759 184.158 170.527V56.8423C184.158 51.6101 179.916 47.3686 174.684 47.3686Z" fill="#2F3B58"/>
    <path d="M152.579 138.948H184.158C185.833 138.948 187.439 138.282 188.623 137.098C189.808 135.913 190.473 134.307 190.473 132.632V94.7372C190.473 93.0621 189.808 91.4557 188.623 90.2712C187.439 89.0868 185.833 88.4214 184.158 88.4214H152.579C145.878 88.4214 139.453 91.083 134.715 95.8208C129.977 100.559 127.315 106.984 127.315 113.685C127.315 120.385 129.977 126.811 134.715 131.548C139.453 136.286 145.878 138.948 152.579 138.948Z" fill="#465065"/>
    <path d="M149.42 123.158C154.653 123.158 158.894 118.917 158.894 113.685C158.894 108.452 154.653 104.211 149.42 104.211C144.188 104.211 139.947 108.452 139.947 113.685C139.947 118.917 144.188 123.158 149.42 123.158Z" fill="url(#paint2_linear_1163_5021)"/>
    <g opacity="0.7">
        <path d="M19.9471 61.0528H13.6313C12.7938 61.0528 11.9905 60.831 11.3983 60.4362C10.8061 60.0414 10.4734 59.5059 10.4734 58.9475C10.4734 58.3892 10.8061 57.8537 11.3983 57.4589C11.9905 57.0641 12.7938 56.8423 13.6313 56.8423H19.9471C20.7846 56.8423 21.5878 57.0641 22.18 57.4589C22.7723 57.8537 23.105 58.3892 23.105 58.9475C23.105 59.5059 22.7723 60.0414 22.18 60.4362C21.5878 60.831 20.7846 61.0528 19.9471 61.0528Z" fill="#465065"/>
        <path d="M45.2103 61.0528H38.8945C38.0569 61.0528 37.2537 60.831 36.6615 60.4362C36.0693 60.0414 35.7366 59.5059 35.7366 58.9475C35.7366 58.3892 36.0693 57.8537 36.6615 57.4589C37.2537 57.0641 38.0569 56.8423 38.8945 56.8423H45.2103C46.0478 56.8423 46.851 57.0641 47.4432 57.4589C48.0354 57.8537 48.3682 58.3892 48.3682 58.9475C48.3682 59.5059 48.0354 60.0414 47.4432 60.4362C46.851 60.831 46.0478 61.0528 45.2103 61.0528Z" fill="#465065"/>
        <path d="M70.4732 61.0528H64.1574C63.3199 61.0528 62.5167 60.831 61.9244 60.4362C61.3322 60.0414 60.9995 59.5059 60.9995 58.9475C60.9995 58.3892 61.3322 57.8537 61.9244 57.4589C62.5167 57.0641 63.3199 56.8423 64.1574 56.8423H70.4732C71.3107 56.8423 72.1139 57.0641 72.7062 57.4589C73.2984 57.8537 73.6311 58.3892 73.6311 58.9475C73.6311 59.5059 73.2984 60.0414 72.7062 60.4362C72.1139 60.831 71.3107 61.0528 70.4732 61.0528Z" fill="#465065"/>
        <path d="M95.7371 61.0528H89.4213C88.5838 61.0528 87.7806 60.831 87.1884 60.4362C86.5961 60.0414 86.2634 59.5059 86.2634 58.9475C86.2634 58.3892 86.5961 57.8537 87.1884 57.4589C87.7806 57.0641 88.5838 56.8423 89.4213 56.8423H95.7371C96.5746 56.8423 97.3779 57.0641 97.9701 57.4589C98.5623 57.8537 98.895 58.3892 98.895 58.9475C98.895 59.5059 98.5623 60.0414 97.9701 60.4362C97.3779 60.831 96.5746 61.0528 95.7371 61.0528Z" fill="#465065"/>
        <path d="M121 61.0528H114.684C113.846 61.0528 113.043 60.831 112.451 60.4362C111.859 60.0414 111.526 59.5059 111.526 58.9475C111.526 58.3892 111.859 57.8537 112.451 57.4589C113.043 57.0641 113.846 56.8423 114.684 56.8423H121C121.837 56.8423 122.64 57.0641 123.233 57.4589C123.825 57.8537 124.157 58.3892 124.157 58.9475C124.157 59.5059 123.825 60.0414 123.233 60.4362C122.64 60.831 121.837 61.0528 121 61.0528Z" fill="#465065"/>
        <path d="M146.263 61.0528H139.947C139.109 61.0528 138.306 60.831 137.714 60.4362C137.122 60.0414 136.789 59.5059 136.789 58.9475C136.789 58.3892 137.122 57.8537 137.714 57.4589C138.306 57.0641 139.109 56.8423 139.947 56.8423H146.263C147.1 56.8423 147.903 57.0641 148.495 57.4589C149.088 57.8537 149.42 58.3892 149.42 58.9475C149.42 59.5059 149.088 60.0414 148.495 60.4362C147.903 60.831 147.1 61.0528 146.263 61.0528Z" fill="#465065"/>
        <path d="M171.526 61.0528H165.21C164.372 61.0528 163.569 60.831 162.977 60.4362C162.385 60.0414 162.052 59.5059 162.052 58.9475C162.052 58.3892 162.385 57.8537 162.977 57.4589C163.569 57.0641 164.372 56.8423 165.21 56.8423H171.526C172.363 56.8423 173.166 57.0641 173.759 57.4589C174.351 57.8537 174.684 58.3892 174.684 58.9475C174.684 59.5059 174.351 60.0414 173.759 60.4362C173.166 60.831 172.363 61.0528 171.526 61.0528Z" fill="#465065"/>
        <path d="M19.9471 170.526H13.6313C12.7938 170.526 11.9905 170.305 11.3983 169.91C10.8061 169.515 10.4734 168.98 10.4734 168.421C10.4734 167.863 10.8061 167.327 11.3983 166.933C11.9905 166.538 12.7938 166.316 13.6313 166.316H19.9471C20.7846 166.316 21.5878 166.538 22.18 166.933C22.7723 167.327 23.105 167.863 23.105 168.421C23.105 168.98 22.7723 169.515 22.18 169.91C21.5878 170.305 20.7846 170.526 19.9471 170.526Z" fill="#465065"/>
        <path d="M45.2103 170.526H38.8945C38.0569 170.526 37.2537 170.305 36.6615 169.91C36.0693 169.515 35.7366 168.98 35.7366 168.421C35.7366 167.863 36.0693 167.327 36.6615 166.933C37.2537 166.538 38.0569 166.316 38.8945 166.316H45.2103C46.0478 166.316 46.851 166.538 47.4432 166.933C48.0354 167.327 48.3682 167.863 48.3682 168.421C48.3682 168.98 48.0354 169.515 47.4432 169.91C46.851 170.305 46.0478 170.526 45.2103 170.526Z" fill="#465065"/>
        <path d="M70.4732 170.526H64.1574C63.3199 170.526 62.5167 170.305 61.9244 169.91C61.3322 169.515 60.9995 168.98 60.9995 168.421C60.9995 167.863 61.3322 167.327 61.9244 166.933C62.5167 166.538 63.3199 166.316 64.1574 166.316H70.4732C71.3107 166.316 72.1139 166.538 72.7062 166.933C73.2984 167.327 73.6311 167.863 73.6311 168.421C73.6311 168.98 73.2984 169.515 72.7062 169.91C72.1139 170.305 71.3107 170.526 70.4732 170.526Z" fill="#465065"/>
        <path d="M95.7371 170.526H89.4213C88.5838 170.526 87.7806 170.305 87.1884 169.91C86.5961 169.515 86.2634 168.98 86.2634 168.421C86.2634 167.863 86.5961 167.327 87.1884 166.933C87.7806 166.538 88.5838 166.316 89.4213 166.316H95.7371C96.5746 166.316 97.3779 166.538 97.9701 166.933C98.5623 167.327 98.895 167.863 98.895 168.421C98.895 168.98 98.5623 169.515 97.9701 169.91C97.3779 170.305 96.5746 170.526 95.7371 170.526Z" fill="#465065"/>
        <path d="M121 170.526H114.684C113.846 170.526 113.043 170.305 112.451 169.91C111.859 169.515 111.526 168.98 111.526 168.421C111.526 167.863 111.859 167.327 112.451 166.933C113.043 166.538 113.846 166.316 114.684 166.316H121C121.837 166.316 122.64 166.538 123.233 166.933C123.825 167.327 124.157 167.863 124.157 168.421C124.157 168.98 123.825 169.515 123.233 169.91C122.64 170.305 121.837 170.526 121 170.526Z" fill="#465065"/>
        <path d="M146.263 170.526H139.947C139.109 170.526 138.306 170.305 137.714 169.91C137.122 169.515 136.789 168.98 136.789 168.421C136.789 167.863 137.122 167.327 137.714 166.933C138.306 166.538 139.109 166.316 139.947 166.316H146.263C147.1 166.316 147.903 166.538 148.495 166.933C149.088 167.327 149.42 167.863 149.42 168.421C149.42 168.98 149.088 169.515 148.495 169.91C147.903 170.305 147.1 170.526 146.263 170.526Z" fill="#465065"/>
        <path d="M171.526 170.526H165.21C164.372 170.526 163.569 170.305 162.977 169.91C162.385 169.515 162.052 168.98 162.052 168.421C162.052 167.863 162.385 167.327 162.977 166.933C163.569 166.538 164.372 166.316 165.21 166.316H171.526C172.363 166.316 173.166 166.538 173.759 166.933C174.351 167.327 174.684 167.863 174.684 168.421C174.684 168.98 174.351 169.515 173.759 169.91C173.166 170.305 172.363 170.526 171.526 170.526Z" fill="#465065"/>
    </g>
    <defs>
        <linearGradient id="paint0_linear_1163_5021" x1="23.5261" y1="48.2355" x2="26.2391" y2="4.96153" gradientUnits="userSpaceOnUse">
            <stop stop-color="#1084FF"/>
            <stop offset="1" stop-color="#226CFF"/>
        </linearGradient>
        <linearGradient id="paint1_linear_1163_5021" x1="64.1525" y1="48.2354" x2="65.0617" y2="22.8007" gradientUnits="userSpaceOnUse">
            <stop stop-color="#1084FF"/>
            <stop offset="1" stop-color="#226CFF"/>
        </linearGradient>
        <linearGradient id="paint2_linear_1163_5021" x1="143.25" y1="123.158" x2="146.324" y2="103.125" gradientUnits="userSpaceOnUse">
            <stop stop-color="#1084FF"/>
            <stop offset="1" stop-color="#226CFF"/>
        </linearGradient>
    </defs>
</svg>
