<svg width="18" height="18" viewBox="0 0 18 18" fill="none" xmlns="http://www.w3.org/2000/svg">
    <path d="M15.6069 0.349609H5.06068C3.93793 0.349609 3.02455 1.26573 3.02455 2.39186V3.02417H2.38549C1.26274 3.02417 0.349365 3.9403 0.349365 5.06705V15.6072C0.349365 16.7334 1.26274 17.6495 2.38549 17.6495H12.9321C14.0584 17.6495 14.9746 16.7334 14.9746 15.6072V14.9749H15.6069C16.7333 14.9749 17.6498 14.0588 17.6498 12.932V2.3918C17.6497 1.26573 16.7333 0.349609 15.6069 0.349609V0.349609ZM13.7246 15.6072C13.7246 16.0442 13.3691 16.3994 12.9321 16.3994H2.38549C1.95212 16.3994 1.59937 16.0442 1.59937 15.6072V5.06698C1.59937 4.62998 1.95218 4.27411 2.38549 4.27411H3.64955H12.9321C13.3691 4.27411 13.7246 4.62992 13.7246 5.06698V14.3498V15.6072ZM16.3997 12.932C16.3997 13.369 16.0442 13.7249 15.6069 13.7249H14.9746V5.06698C14.9746 3.9403 14.0584 3.02411 12.932 3.02411H4.27449V2.3918C4.27449 1.9548 4.6273 1.59955 5.06062 1.59955H15.6069C16.0442 1.59955 16.3997 1.9548 16.3997 2.3918V12.932Z" fill="currentColor"/>
</svg>
