<svg width="18" height="18" viewBox="0 0 18 18" fill="none" xmlns="http://www.w3.org/2000/svg">
<path d="M11.8224 12.3867H10.9756C10.9008 12.3867 10.829 12.4165 10.776 12.4694C10.7231 12.5223 10.6934 12.5941 10.6934 12.669C10.6934 12.7438 10.7231 12.8156 10.776 12.8686C10.829 12.9215 10.9008 12.9512 10.9756 12.9512H11.8224C11.8973 12.9512 11.969 12.9215 12.022 12.8686C12.0749 12.8156 12.1046 12.7438 12.1046 12.669C12.1046 12.5941 12.0749 12.5223 12.022 12.4694C11.969 12.4165 11.8973 12.3867 11.8224 12.3867ZM13.5159 12.3867H12.6692C12.5943 12.3867 12.5225 12.4165 12.4696 12.4694C12.4166 12.5223 12.3869 12.5941 12.3869 12.669C12.3869 12.7438 12.4166 12.8156 12.4696 12.8686C12.5225 12.9215 12.5943 12.9512 12.6692 12.9512H13.5159C13.5908 12.9512 13.6626 12.9215 13.7155 12.8686C13.7685 12.8156 13.7982 12.7438 13.7982 12.669C13.7982 12.5941 13.7685 12.5223 13.7155 12.4694C13.6626 12.4165 13.5908 12.3867 13.5159 12.3867ZM15.2095 12.3867H14.3627C14.2879 12.3867 14.2161 12.4165 14.1631 12.4694C14.1102 12.5223 14.0805 12.5941 14.0805 12.669C14.0805 12.7438 14.1102 12.8156 14.1631 12.8686C14.2161 12.9215 14.2879 12.9512 14.3627 12.9512H15.2095C15.2843 12.9512 15.3561 12.9215 15.4091 12.8686C15.462 12.8156 15.4917 12.7438 15.4917 12.669C15.4917 12.5941 15.462 12.5223 15.4091 12.4694C15.3561 12.4165 15.2843 12.3867 15.2095 12.3867Z" fill="#000224" fill-opacity="0.5"/>
<path d="M11.8224 12.2867H10.9756C10.8742 12.2867 10.777 12.327 10.7053 12.3987C10.6336 12.4704 10.5934 12.5676 10.5934 12.669C10.5934 12.7704 10.6336 12.8676 10.7053 12.9393C10.777 13.011 10.8742 13.0512 10.9756 13.0512H11.8224C11.9238 13.0512 12.021 13.011 12.0927 12.9393C12.1644 12.8676 12.2046 12.7704 12.2046 12.669C12.2046 12.5676 12.1644 12.4704 12.0927 12.3987C12.021 12.327 11.9238 12.2867 11.8224 12.2867ZM13.5159 12.2867H12.6692C12.5678 12.2867 12.4706 12.327 12.3989 12.3987C12.3272 12.4704 12.2869 12.5676 12.2869 12.669C12.2869 12.7704 12.3272 12.8676 12.3989 12.9393C12.4706 13.011 12.5678 13.0512 12.6692 13.0512H13.5159C13.6173 13.0512 13.7145 13.011 13.7862 12.9393C13.8579 12.8676 13.8982 12.7704 13.8982 12.669C13.8982 12.5676 13.8579 12.4704 13.7862 12.3987C13.7145 12.327 13.6173 12.2867 13.5159 12.2867ZM15.2095 12.2867H14.3627C14.2613 12.2867 14.1641 12.327 14.0924 12.3987C14.0207 12.4704 13.9805 12.5676 13.9805 12.669C13.9805 12.7704 14.0207 12.8676 14.0924 12.9393C14.1641 13.011 14.2613 13.0512 14.3627 13.0512H15.2095C15.3109 13.0512 15.4081 13.011 15.4798 12.9393C15.5515 12.8676 15.5917 12.7704 15.5917 12.669C15.5917 12.5676 15.5515 12.4704 15.4798 12.3987C15.4081 12.327 15.3109 12.2867 15.2095 12.2867Z" stroke="#000224" stroke-opacity="0.5" stroke-width="0.2"/>
<path d="M16.3387 0.25H1.66129C0.882187 0.250953 0.250953 0.882187 0.25 1.66129V16.3387C0.250953 17.1178 0.882187 17.749 1.66129 17.75H16.3387C17.1178 17.749 17.749 17.1178 17.75 16.3387V1.66129C17.749 0.882187 17.1178 0.250953 16.3387 0.25ZM17.1855 16.3387C17.1855 16.8063 16.8063 17.1855 16.3387 17.1855H1.66129C1.19366 17.1855 0.814516 16.8063 0.814516 16.3387V1.66129C0.814516 1.19366 1.19366 0.814516 1.66129 0.814516H16.3387C16.8063 0.814516 17.1855 1.19366 17.1855 1.66129V16.3387Z" fill="#000224" fill-opacity="0.5"/>
<path d="M16.3388 0.15H16.3387L1.66129 0.15L1.66117 0.15C0.826932 0.15102 0.15102 0.826932 0.15 1.66117V1.66129L0.15 16.3387L0.15 16.3388C0.15102 17.1731 0.826932 17.849 1.66117 17.85H1.66129H16.3387H16.3388C17.1731 17.849 17.849 17.1731 17.85 16.3388V16.3387V1.66129V1.66117C17.849 0.826932 17.1731 0.15102 16.3388 0.15ZM17.0855 16.3387C17.0855 16.7511 16.7511 17.0855 16.3387 17.0855H1.66129C1.24889 17.0855 0.914516 16.7511 0.914516 16.3387V1.66129C0.914516 1.24889 1.24889 0.914516 1.66129 0.914516H16.3387C16.7511 0.914516 17.0855 1.24889 17.0855 1.66129V16.3387Z" stroke="#000224" stroke-opacity="0.5" stroke-width="0.2"/>
<mask id="path-5-outside-1_4108_13630" maskUnits="userSpaceOnUse" x="0.380859" y="0.378906" width="17" height="17" fill="black">
<rect fill="white" x="0.380859" y="0.378906" width="17" height="17"/>
<path d="M16.3405 8.71762H9.28409V1.66116C9.28409 1.5863 9.25435 1.51451 9.20141 1.46158C9.14848 1.40864 9.07669 1.37891 9.00183 1.37891C8.92697 1.37891 8.85517 1.40864 8.80224 1.46158C8.74931 1.51451 8.71957 1.5863 8.71957 1.66116V8.71762H1.66312C1.58826 8.71762 1.51646 8.74735 1.46353 8.80029C1.4106 8.85322 1.38086 8.92501 1.38086 8.99987C1.38086 9.07473 1.4106 9.14653 1.46353 9.19946C1.51646 9.25239 1.58826 9.28213 1.66312 9.28213H8.71957V16.3386C8.71957 16.4134 8.74931 16.4852 8.80224 16.5382C8.85517 16.5911 8.92697 16.6208 9.00183 16.6208C9.07669 16.6208 9.14848 16.5911 9.20141 16.5382C9.25435 16.4852 9.28409 16.4134 9.28409 16.3386V9.28213H16.3405C16.4154 9.28213 16.4872 9.25239 16.5401 9.19946C16.5931 9.14653 16.6228 9.07473 16.6228 8.99987C16.6228 8.92501 16.5931 8.85322 16.5401 8.80029C16.4872 8.74735 16.4154 8.71762 16.3405 8.71762Z"/>
</mask>
<path d="M16.3405 8.71762H9.28409V1.66116C9.28409 1.5863 9.25435 1.51451 9.20141 1.46158C9.14848 1.40864 9.07669 1.37891 9.00183 1.37891C8.92697 1.37891 8.85517 1.40864 8.80224 1.46158C8.74931 1.51451 8.71957 1.5863 8.71957 1.66116V8.71762H1.66312C1.58826 8.71762 1.51646 8.74735 1.46353 8.80029C1.4106 8.85322 1.38086 8.92501 1.38086 8.99987C1.38086 9.07473 1.4106 9.14653 1.46353 9.19946C1.51646 9.25239 1.58826 9.28213 1.66312 9.28213H8.71957V16.3386C8.71957 16.4134 8.74931 16.4852 8.80224 16.5382C8.85517 16.5911 8.92697 16.6208 9.00183 16.6208C9.07669 16.6208 9.14848 16.5911 9.20141 16.5382C9.25435 16.4852 9.28409 16.4134 9.28409 16.3386V9.28213H16.3405C16.4154 9.28213 16.4872 9.25239 16.5401 9.19946C16.5931 9.14653 16.6228 9.07473 16.6228 8.99987C16.6228 8.92501 16.5931 8.85322 16.5401 8.80029C16.4872 8.74735 16.4154 8.71762 16.3405 8.71762Z" fill="#000224" fill-opacity="0.5"/>
<path d="M9.28409 8.71762H9.08408V8.91762H9.28409V8.71762ZM9.00183 1.37891V1.17891V1.37891ZM8.71957 8.71762V8.91762H8.91957V8.71762H8.71957ZM1.38086 8.99987H1.18086H1.38086ZM8.71957 9.28213H8.91957V9.08213H8.71957V9.28213ZM9.28409 9.28213V9.08213H9.08408V9.28213H9.28409ZM16.3405 8.51762H9.28409V8.91762H16.3405V8.51762ZM9.48409 8.71762V1.66116H9.08408V8.71762H9.48409ZM9.48409 1.66116C9.48409 1.53326 9.43328 1.4106 9.34284 1.32016L9.05999 1.603C9.07542 1.61843 9.08408 1.63935 9.08408 1.66116H9.48409ZM9.34284 1.32016C9.25239 1.22972 9.12973 1.17891 9.00183 1.17891V1.57891C9.02364 1.57891 9.04457 1.58757 9.05999 1.603L9.34284 1.32016ZM9.00183 1.17891C8.87392 1.17891 8.75126 1.22972 8.66082 1.32016L8.94366 1.603C8.95909 1.58757 8.98001 1.57891 9.00183 1.57891V1.17891ZM8.66082 1.32016C8.57038 1.4106 8.51957 1.53326 8.51957 1.66116H8.91957C8.91957 1.63935 8.92824 1.61843 8.94366 1.603L8.66082 1.32016ZM8.51957 1.66116V8.71762H8.91957V1.66116H8.51957ZM8.71957 8.51762H1.66312V8.91762H8.71957V8.51762ZM1.66312 8.51762C1.53521 8.51762 1.41255 8.56842 1.32211 8.65887L1.60495 8.94171C1.62038 8.92628 1.6413 8.91762 1.66312 8.91762V8.51762ZM1.32211 8.65887C1.23167 8.74931 1.18086 8.87197 1.18086 8.99987H1.58086C1.58086 8.97806 1.58953 8.95713 1.60495 8.94171L1.32211 8.65887ZM1.18086 8.99987C1.18086 9.12778 1.23167 9.25044 1.32211 9.34088L1.60495 9.05804C1.58953 9.04261 1.58086 9.02169 1.58086 8.99987H1.18086ZM1.32211 9.34088C1.41255 9.43132 1.53521 9.48213 1.66312 9.48213V9.08213C1.6413 9.08213 1.62038 9.07347 1.60495 9.05804L1.32211 9.34088ZM1.66312 9.48213H8.71957V9.08213H1.66312V9.48213ZM8.51957 9.28213V16.3386H8.91957V9.28213H8.51957ZM8.51957 16.3386C8.51957 16.4665 8.57038 16.5892 8.66082 16.6796L8.94366 16.3967C8.92824 16.3813 8.91957 16.3604 8.91957 16.3386H8.51957ZM8.66082 16.6796C8.75126 16.77 8.87392 16.8208 9.00183 16.8208V16.4208C8.98001 16.4208 8.95909 16.4122 8.94366 16.3967L8.66082 16.6796ZM9.00183 16.8208C9.12973 16.8208 9.25239 16.77 9.34284 16.6796L9.05999 16.3967C9.04457 16.4122 9.02364 16.4208 9.00183 16.4208V16.8208ZM9.34284 16.6796C9.43328 16.5892 9.48409 16.4665 9.48409 16.3386H9.08408C9.08408 16.3604 9.07542 16.3813 9.05999 16.3967L9.34284 16.6796ZM9.48409 16.3386V9.28213H9.08408V16.3386H9.48409ZM9.28409 9.48213H16.3405V9.08213H9.28409V9.48213ZM16.3405 9.48213C16.4684 9.48213 16.5911 9.43132 16.6815 9.34088L16.3987 9.05804C16.3833 9.07347 16.3624 9.08213 16.3405 9.08213V9.48213ZM16.6815 9.34088C16.772 9.25044 16.8228 9.12778 16.8228 8.99987H16.4228C16.4228 9.02169 16.4141 9.04261 16.3987 9.05804L16.6815 9.34088ZM16.8228 8.99987C16.8228 8.87197 16.772 8.74931 16.6815 8.65887L16.3987 8.94171C16.4141 8.95713 16.4228 8.97806 16.4228 8.99987H16.8228ZM16.6815 8.65887C16.5911 8.56842 16.4684 8.51762 16.3405 8.51762V8.91762C16.3624 8.91762 16.3833 8.92628 16.3987 8.94171L16.6815 8.65887Z" fill="#000224" fill-opacity="0.5" mask="url(#path-5-outside-1_4108_13630)"/>
<path d="M4.06163 4.73973L4.76533 4.03603V7.30623C4.76533 7.38109 4.79507 7.45289 4.84801 7.50582C4.90094 7.55876 4.97273 7.58849 5.04759 7.58849C5.12245 7.58849 5.19425 7.55876 5.24718 7.50582C5.30011 7.45289 5.32985 7.38109 5.32985 7.30623V3.35462C5.32985 3.24052 5.26105 3.13757 5.15563 3.09389C5.0502 3.05021 4.92876 3.07445 4.84804 3.15507L3.66248 4.34058C3.61053 4.39372 3.58162 4.46519 3.58204 4.53951C3.58245 4.61382 3.61216 4.68497 3.6647 4.73751C3.71725 4.79006 3.7884 4.81976 3.86271 4.82018C3.93702 4.8206 4.0085 4.79169 4.06163 4.73973ZM6.45888 11.6812C6.41711 10.9421 5.787 10.375 5.04759 10.4111C4.30818 10.375 3.67808 10.9421 3.6363 11.6812C3.6363 11.7561 3.66604 11.8279 3.71897 11.8808C3.77191 11.9338 3.8437 11.9635 3.91856 11.9635C3.99342 11.9635 4.06521 11.9338 4.11815 11.8808C4.17108 11.8279 4.20082 11.7561 4.20082 11.6812C4.24369 11.2547 4.62022 10.9409 5.04759 10.9756C5.47497 10.9409 5.8515 11.2547 5.89437 11.6812C5.8515 12.1078 5.47497 12.4216 5.04759 12.3869C4.97273 12.3869 4.90094 12.4166 4.84801 12.4696C4.79507 12.5225 4.76533 12.5943 4.76533 12.6691C4.76533 12.744 4.79507 12.8158 4.84801 12.8687C4.90094 12.9217 4.97273 12.9514 5.04759 12.9514C5.47497 12.9167 5.8515 13.2305 5.89437 13.657C5.8515 14.0836 5.47497 14.3974 5.04759 14.3627C4.62022 14.3974 4.24369 14.0836 4.20082 13.657C4.20082 13.5822 4.17108 13.5104 4.11815 13.4575C4.06521 13.4045 3.99342 13.3748 3.91856 13.3748C3.8437 13.3748 3.77191 13.4045 3.71897 13.4575C3.66604 13.5104 3.6363 13.5822 3.6363 13.657C3.67808 14.3962 4.30818 14.9633 5.04759 14.9272C5.787 14.9633 6.41711 14.3962 6.45888 13.657C6.45603 13.4625 6.4069 13.2714 6.31557 13.0997C6.22423 12.9279 6.09331 12.7803 5.93364 12.6691C6.09331 12.558 6.22423 12.4104 6.31557 12.2386C6.4069 12.0668 6.45603 11.8758 6.45888 11.6812ZM11.7653 4.82244C11.8401 4.82244 11.9119 4.7927 11.9648 4.73976C12.0178 4.68683 12.0475 4.61504 12.0475 4.54018C12.0475 4.04122 12.452 3.63688 12.9508 3.63688C13.0936 3.63356 13.2346 3.669 13.3589 3.73943C13.4831 3.80985 13.586 3.91263 13.6565 4.03684C13.7321 4.17187 13.7708 4.32448 13.7687 4.47925C13.7665 4.63403 13.7235 4.78549 13.644 4.91833C13.2299 5.52051 12.7352 6.06315 12.1738 6.53112C11.9604 6.72877 11.7526 6.91979 11.5657 7.10668C11.4851 7.18744 11.461 7.30885 11.5047 7.4143C11.5484 7.51976 11.6512 7.58849 11.7653 7.58849H14.0799C14.1547 7.58849 14.2265 7.55876 14.2794 7.50582C14.3324 7.45289 14.3621 7.38109 14.3621 7.30623C14.3621 7.23138 14.3324 7.15958 14.2794 7.10665C14.2265 7.05371 14.1547 7.02398 14.0799 7.02398H12.4709L12.5557 6.94611C13.1591 6.44255 13.6887 5.85669 14.1289 5.20571C14.259 4.98715 14.3291 4.73813 14.332 4.48381C14.335 4.2295 14.2708 3.97891 14.1459 3.75737C14.026 3.54689 13.8519 3.37235 13.6418 3.25189C13.4316 3.13143 13.193 3.06944 12.9508 3.07236C12.1406 3.07318 11.4839 3.72978 11.483 4.54018C11.483 4.61504 11.5127 4.68683 11.5657 4.73976C11.6186 4.7927 11.6904 4.82244 11.7653 4.82244Z" fill="#000224" fill-opacity="0.5"/>
<path d="M12.9531 3.73685L12.9508 3.73691C12.5072 3.73688 12.1475 4.09646 12.1475 4.54018C12.1475 4.64156 12.1072 4.73879 12.0356 4.81047C11.9639 4.88216 11.8666 4.92244 11.7653 4.92244C11.6639 4.92244 11.5667 4.88216 11.495 4.81047C11.4233 4.73879 11.383 4.64156 11.383 4.54018V4.54007C11.3839 3.67471 12.085 2.97353 12.9502 2.97237C12.9503 2.97236 12.9505 2.97236 12.9507 2.97236L12.9508 3.07236L12.9531 3.73685ZM12.9531 3.73685C13.0779 3.73396 13.201 3.76491 13.3096 3.82642C13.418 3.88788 13.5078 3.97755 13.5693 4.08591C13.6363 4.20555 13.6706 4.34074 13.6687 4.47785C13.6668 4.61399 13.6292 4.74724 13.5598 4.86435C13.1512 5.45793 12.6633 5.99287 12.1098 6.45431L12.1097 6.4542L12.1058 6.45776C12.0863 6.47588 12.0667 6.49396 12.0473 6.51201C11.8548 6.69021 11.6662 6.86474 11.495 7.03597L11.4949 7.03603C11.3858 7.14538 11.3531 7.30977 11.4123 7.4526C11.4715 7.59536 11.6107 7.68849 11.7653 7.68849H14.0799C14.1812 7.68849 14.2785 7.64822 14.3501 7.57653C14.4218 7.50484 14.4621 7.40762 14.4621 7.30623C14.4621 7.20485 14.4218 7.10763 14.3501 7.03594C14.2785 6.96425 14.1812 6.92398 14.0799 6.92398H12.7361L12.9531 3.73685ZM4.13154 4.81123L4.13155 4.81124L4.13234 4.81044L4.66533 4.27745V7.30623C4.66533 7.40762 4.70561 7.50484 4.77729 7.57653C4.84898 7.64822 4.94621 7.68849 5.04759 7.68849C5.14897 7.68849 5.2462 7.64822 5.31789 7.57653C5.38958 7.50484 5.42985 7.40762 5.42985 7.30623V3.35462C5.42985 3.20006 5.33668 3.06066 5.1939 3.0015C5.05105 2.94232 4.88664 2.97519 4.77737 3.08431L4.77733 3.08435L3.59177 4.26987L3.59177 4.26987L3.59098 4.27067C3.52062 4.34263 3.48147 4.43943 3.48204 4.54006C3.4826 4.6407 3.52283 4.73706 3.59399 4.80822C3.66516 4.87939 3.76151 4.91961 3.86215 4.92018C3.96279 4.92074 4.05959 4.88159 4.13154 4.81123ZM6.55887 11.6827L6.55913 11.6827L6.55872 11.6756C6.51394 10.8832 5.83976 10.2749 5.04759 10.311C4.25542 10.2749 3.58124 10.8832 3.53646 11.6756L3.5363 11.6756V11.6812C3.5363 11.7826 3.57658 11.8798 3.64826 11.9515C3.71995 12.0232 3.81718 12.0635 3.91856 12.0635C4.01994 12.0635 4.11717 12.0232 4.18886 11.9515C4.25923 11.8812 4.29934 11.7862 4.30078 11.6868C4.34035 11.3167 4.6679 11.0451 5.0395 11.0753L5.04759 11.0759L5.05569 11.0753C5.42542 11.0452 5.75155 11.314 5.79379 11.6812C5.75155 12.0485 5.42542 12.3172 5.05569 12.2872L5.05572 12.2869H5.04759C4.94621 12.2869 4.84898 12.3272 4.77729 12.3988C4.70561 12.4705 4.66533 12.5678 4.66533 12.6691C4.66533 12.7705 4.70561 12.8677 4.77729 12.9394C4.84898 13.0111 4.94621 13.0514 5.04759 13.0514V13.0517L5.05569 13.0511C5.42542 13.021 5.75155 13.2898 5.79379 13.657C5.75155 14.0243 5.42542 14.293 5.05569 14.263L5.04759 14.2624L5.0395 14.263C4.6679 14.2932 4.34036 14.0216 4.30078 13.6515C4.29934 13.5521 4.25923 13.4571 4.18886 13.3867C4.11717 13.3151 4.01994 13.2748 3.91856 13.2748C3.81718 13.2748 3.71995 13.3151 3.64826 13.3867L3.71897 13.4575L3.64826 13.3867C3.57658 13.4584 3.5363 13.5557 3.5363 13.657H3.53614L3.53646 13.6627C3.58124 14.4551 4.25542 15.0634 5.04759 15.0273C5.83976 15.0634 6.51394 14.4551 6.55872 13.6627L6.55898 13.6627L6.55887 13.6556C6.55578 13.4452 6.50265 13.2385 6.40386 13.0527C6.32612 12.9065 6.22186 12.7765 6.0968 12.6691C6.22186 12.5618 6.32612 12.4318 6.40386 12.2856C6.50265 12.0998 6.55578 11.8931 6.55887 11.6827ZM11.483 4.54018C11.483 4.61504 11.5127 4.68683 11.5657 4.73976C11.6186 4.7927 11.6904 4.82244 11.7653 4.82244C11.8401 4.82244 11.9119 4.7927 11.9648 4.73976C12.0178 4.68683 12.0475 4.61504 12.0475 4.54018C12.0475 4.04122 12.452 3.63688 12.9508 3.63688L11.483 4.54018Z" stroke="#000224" stroke-opacity="0.5" stroke-width="0.2"/>
</svg>