

<svg width="16" height="16" viewBox="0 0 16 16"  stroke="currentColor" fill="currentColor" xmlns="http://www.w3.org/2000/svg">
<path d="M10.2587 10.71H9.58128C9.52139 10.71 9.46395 10.7338 9.42161 10.7761C9.37926 10.8184 9.35547 10.8759 9.35547 10.9358C9.35547 10.9957 9.37926 11.0531 9.42161 11.0954C9.46395 11.1378 9.52139 11.1616 9.58128 11.1616H10.2587C10.3186 11.1616 10.376 11.1378 10.4184 11.0954C10.4607 11.0531 10.4845 10.9957 10.4845 10.9358C10.4845 10.8759 10.4607 10.8184 10.4184 10.7761C10.376 10.7338 10.3186 10.71 10.2587 10.71ZM11.6135 10.71H10.9361C10.8762 10.71 10.8188 10.7338 10.7764 10.7761C10.7341 10.8184 10.7103 10.8759 10.7103 10.9358C10.7103 10.9957 10.7341 11.0531 10.7764 11.0954C10.8188 11.1378 10.8762 11.1616 10.9361 11.1616H11.6135C11.6734 11.1616 11.7309 11.1378 11.7732 11.0954C11.8155 11.0531 11.8393 10.9957 11.8393 10.9358C11.8393 10.8759 11.8155 10.8184 11.7732 10.7761C11.7309 10.7338 11.6734 10.71 11.6135 10.71ZM12.9684 10.71H12.291C12.2311 10.71 12.1736 10.7338 12.1313 10.7761C12.0889 10.8184 12.0651 10.8759 12.0651 10.9358C12.0651 10.9957 12.0889 11.0531 12.1313 11.0954C12.1736 11.1378 12.2311 11.1616 12.291 11.1616H12.9684C13.0283 11.1616 13.0857 11.1378 13.128 11.0954C13.1704 11.0531 13.1942 10.9957 13.1942 10.9358C13.1942 10.8759 13.1704 10.8184 13.128 10.7761C13.0857 10.7338 13.0283 10.71 12.9684 10.71Z" fill="#000224" fill-opacity="0.5"/>
<path d="M13.871 1H2.12903C1.50575 1.00076 1.00076 1.50575 1 2.12903V13.871C1.00076 14.4942 1.50575 14.9992 2.12903 15H13.871C14.4942 14.9992 14.9992 14.4942 15 13.871V2.12903C14.9992 1.50575 14.4942 1.00076 13.871 1ZM14.5484 13.871C14.5484 14.2451 14.2451 14.5484 13.871 14.5484H2.12903C1.75493 14.5484 1.45161 14.2451 1.45161 13.871V2.12903C1.45161 1.75493 1.75493 1.45161 2.12903 1.45161H13.871C14.2451 1.45161 14.5484 1.75493 14.5484 2.12903V13.871Z" fill="white" />
<path d="M13.872 7.67429H8.32688V2.12913C8.32688 2.04272 8.29255 1.95985 8.23145 1.89875C8.17035 1.83765 8.08748 1.80332 8.00107 1.80332C7.91466 1.80332 7.83179 1.83765 7.77069 1.89875C7.70959 1.95985 7.67526 2.04272 7.67526 2.12913V7.67429H2.1301C2.04369 7.67429 1.96082 7.70861 1.89972 7.76971C1.83862 7.83081 1.8043 7.91369 1.8043 8.00009C1.8043 8.0865 1.83862 8.16937 1.89972 8.23047C1.96082 8.29157 2.04369 8.3259 2.1301 8.3259H7.67526V13.8711C7.67526 13.9575 7.70959 14.0403 7.77069 14.1014C7.83179 14.1625 7.91466 14.1969 8.00107 14.1969C8.08748 14.1969 8.17035 14.1625 8.23145 14.1014C8.29255 14.0403 8.32688 13.9575 8.32688 13.8711V8.3259H13.872C13.9584 8.3259 14.0413 8.29158 14.1024 8.23047C14.1635 8.16937 14.1978 8.0865 14.1978 8.00009C14.1978 7.91369 14.1635 7.83081 14.1024 7.76971C14.0413 7.70861 13.9584 7.67429 13.872 7.67429Z" stroke="#000224" stroke-opacity="0.5" stroke-width="0.2"/>
<path d="M4.04969 4.59179L4.61266 4.02882V6.64499C4.61266 6.70488 4.63645 6.76231 4.6788 6.80466C4.72114 6.847 4.77858 6.87079 4.83846 6.87079C4.89835 6.87079 4.95579 6.847 4.99813 6.80466C5.04048 6.76231 5.06427 6.70488 5.06427 6.64499V3.4837C5.06427 3.39242 5.00923 3.31005 4.92489 3.27511C4.84055 3.24017 4.7434 3.25956 4.67882 3.32405L3.73038 4.27247C3.68881 4.31497 3.66569 4.37216 3.66602 4.4316C3.66635 4.49105 3.69012 4.54797 3.73215 4.59001C3.77419 4.63205 3.83111 4.65581 3.89056 4.65614C3.95001 4.65648 4.00719 4.63335 4.04969 4.59179ZM5.9675 10.145C5.93408 9.55366 5.42999 9.09998 4.83846 9.12886C4.24694 9.09998 3.74285 9.55366 3.70943 10.145C3.70943 10.2049 3.73322 10.2623 3.77557 10.3047C3.81792 10.347 3.87535 10.3708 3.93524 10.3708C3.99513 10.3708 4.05256 10.347 4.09491 10.3047C4.13726 10.2623 4.16105 10.2049 4.16105 10.145C4.19534 9.80374 4.49657 9.5527 4.83846 9.58047C5.18036 9.5527 5.48159 9.80374 5.51588 10.145C5.48159 10.4862 5.18036 10.7373 4.83846 10.7095C4.77858 10.7095 4.72114 10.7333 4.6788 10.7756C4.63645 10.818 4.61266 10.8754 4.61266 10.9353C4.61266 10.9952 4.63645 11.0526 4.6788 11.095C4.72114 11.1373 4.77858 11.1611 4.83846 11.1611C5.18036 11.1333 5.48159 11.3844 5.51588 11.7256C5.48159 12.0669 5.18036 12.3179 4.83846 12.2901C4.49657 12.3179 4.19534 12.0669 4.16105 11.7256C4.16105 11.6657 4.13726 11.6083 4.09491 11.566C4.05256 11.5236 3.99513 11.4998 3.93524 11.4998C3.87535 11.4998 3.81792 11.5236 3.77557 11.566C3.73322 11.6083 3.70943 11.6657 3.70943 11.7256C3.74285 12.317 4.24694 12.7706 4.83846 12.7418C5.42999 12.7706 5.93408 12.317 5.9675 11.7256C5.96521 11.57 5.92591 11.4172 5.85284 11.2797C5.77977 11.1423 5.67504 11.0242 5.5473 10.9353C5.67504 10.8464 5.77977 10.7283 5.85284 10.5909C5.92591 10.4535 5.96521 10.3006 5.9675 10.145ZM10.2126 4.65795C10.2725 4.65795 10.3299 4.63416 10.3723 4.59181C10.4146 4.54946 10.4384 4.49203 10.4384 4.43214C10.4384 4.03297 10.762 3.7095 11.161 3.7095C11.2753 3.70685 11.3881 3.7352 11.4875 3.79154C11.5869 3.84788 11.6692 3.93011 11.7256 4.02947C11.7861 4.1375 11.8171 4.25958 11.8153 4.3834C11.8136 4.50722 11.7792 4.62839 11.7156 4.73467C11.3843 5.21641 10.9885 5.65052 10.5394 6.0249C10.3687 6.18302 10.2025 6.33583 10.053 6.48534C9.98846 6.54995 9.96915 6.64708 10.0041 6.73144C10.0391 6.81581 10.1213 6.87079 10.2126 6.87079H12.0643C12.1242 6.87079 12.1816 6.847 12.2239 6.80466C12.2663 6.76231 12.2901 6.70488 12.2901 6.64499C12.2901 6.5851 12.2663 6.52767 12.2239 6.48532C12.1816 6.44297 12.1242 6.41918 12.0643 6.41918H10.7771L10.8449 6.35689C11.3276 5.95404 11.7513 5.48535 12.1035 4.96456C12.2076 4.78972 12.2636 4.5905 12.266 4.38705C12.2684 4.1836 12.217 3.98313 12.1171 3.8059C12.0212 3.63751 11.8819 3.49788 11.7138 3.40151C11.5457 3.30514 11.3548 3.25555 11.161 3.25789C10.5128 3.25854 9.98747 3.78382 9.98679 4.43214C9.98679 4.49203 10.0106 4.54946 10.0529 4.59181C10.0953 4.63416 10.1527 4.65795 10.2126 4.65795Z" fill="#000224" fill-opacity="0.5"/>
</svg>
