<svg width="18" height="19" viewBox="0 0 18 19" fill="none" xmlns="http://www.w3.org/2000/svg">
    <path
        d="M17.4193 8.44539V2.40385C17.4193 1.07116 16.8507 0.538086 15.4381 0.538086H11.8487C10.436 0.538086 9.86742 1.07116 9.86742 2.40385V8.44539C9.86742 9.77808 10.436 10.3112 11.8487 10.3112H15.4381C16.8507 10.3112 17.4193 9.77808 17.4193 8.44539ZM8.0905 10.4V16.4415C8.0905 17.7742 7.52188 18.3073 6.10923 18.3073H2.51984C1.10719 18.3073 0.538574 17.7742 0.538574 16.4415V10.4C0.538574 9.06732 1.10719 8.53424 2.51984 8.53424H6.10923C7.52188 8.53424 8.0905 9.06732 8.0905 10.4ZM17.4193 16.4415V13.9539C17.4193 12.6212 16.8507 12.0881 15.4381 12.0881H11.8487C10.436 12.0881 9.86742 12.6212 9.86742 13.9539V16.4415C9.86742 17.7742 10.436 18.3073 11.8487 18.3073H15.4381C16.8507 18.3073 17.4193 17.7742 17.4193 16.4415ZM8.0905 4.89155V2.40385C8.0905 1.07116 7.52188 0.538086 6.10923 0.538086H2.51984C1.10719 0.538086 0.538574 1.07116 0.538574 2.40385V4.89155C0.538574 6.22424 1.10719 6.75732 2.51984 6.75732H6.10923C7.52188 6.75732 8.0905 6.22424 8.0905 4.89155Z"
        fill="currentColor" />
    <defs>
        <linearGradient id="paint0_linear_3595_8836" x1="13.5476" y1="0.53808" x2="3.02959" y2="0.73885"
            gradientUnits="userSpaceOnUse">
            <stop stop-color="#226CFF" />
            <stop offset="1" stop-color="#1084FF" />
        </linearGradient>
    </defs>
</svg>