<svg width="14" height="14" viewBox="0 0 14 14" fill="none" xmlns="http://www.w3.org/2000/svg">
<path d="M12.9997 2.33301H0.999674C0.822863 2.33301 0.653294 2.40325 0.52827 2.52827C0.403246 2.65329 0.333008 2.82286 0.333008 2.99967C0.333008 3.17649 0.403246 3.34605 0.52827 3.47108C0.653294 3.5961 0.822863 3.66634 0.999674 3.66634H2.33301V11.6663C2.33301 12.1968 2.54372 12.7055 2.91879 13.0806C3.29387 13.4556 3.80257 13.6663 4.33301 13.6663H9.66634C10.1968 13.6663 10.7055 13.4556 11.0806 13.0806C11.4556 12.7055 11.6663 12.1968 11.6663 11.6663V3.66634H12.9997C13.1765 3.66634 13.3461 3.5961 13.4711 3.47108C13.5961 3.34605 13.6663 3.17649 13.6663 2.99967C13.6663 2.82286 13.5961 2.65329 13.4711 2.52827C13.3461 2.40325 13.1765 2.33301 12.9997 2.33301ZM6.33301 9.66634C6.33301 9.84315 6.26277 10.0127 6.13775 10.1377C6.01272 10.2628 5.84315 10.333 5.66634 10.333C5.48953 10.333 5.31996 10.2628 5.19494 10.1377C5.06991 10.0127 4.99967 9.84315 4.99967 9.66634V6.33301C4.99967 6.1562 5.06991 5.98663 5.19494 5.8616C5.31996 5.73658 5.48953 5.66634 5.66634 5.66634C5.84315 5.66634 6.01272 5.73658 6.13775 5.8616C6.26277 5.98663 6.33301 6.1562 6.33301 6.33301V9.66634ZM8.99967 9.66634C8.99967 9.84315 8.92944 10.0127 8.80441 10.1377C8.67939 10.2628 8.50982 10.333 8.33301 10.333C8.1562 10.333 7.98663 10.2628 7.8616 10.1377C7.73658 10.0127 7.66634 9.84315 7.66634 9.66634V6.33301C7.66634 6.1562 7.73658 5.98663 7.8616 5.8616C7.98663 5.73658 8.1562 5.66634 8.33301 5.66634C8.50982 5.66634 8.67939 5.73658 8.80441 5.8616C8.92944 5.98663 8.99967 6.1562 8.99967 6.33301V9.66634ZM5.66634 1.66634H8.33301C8.50982 1.66634 8.67939 1.5961 8.80441 1.47108C8.92944 1.34605 8.99967 1.17649 8.99967 0.999674C8.99967 0.822863 8.92944 0.653294 8.80441 0.52827C8.67939 0.403246 8.50982 0.333008 8.33301 0.333008H5.66634C5.48953 0.333008 5.31996 0.403246 5.19494 0.52827C5.06991 0.653294 4.99967 0.822863 4.99967 0.999674C4.99967 1.17649 5.06991 1.34605 5.19494 1.47108C5.31996 1.5961 5.48953 1.66634 5.66634 1.66634Z" fill="#8D91A5"/>
</svg>
