<svg  width="16" height="16" viewBox="0 0 16 16" fill="none" xmlns="http://www.w3.org/2000/svg">
<path fill-rule="evenodd" d="M13.9997 3.33301H1.99967C1.82286 3.33301 1.65329 3.40325 1.52827 3.52827C1.40325 3.65329 1.33301 3.82286 1.33301 3.99967C1.33301 4.17649 1.40325 4.34605 1.52827 4.47108C1.65329 4.5961 1.82286 4.66634 1.99967 4.66634H3.33301V12.6663C3.33301 13.1968 3.54372 13.7055 3.91879 14.0806C4.29387 14.4556 4.80257 14.6663 5.33301 14.6663H10.6663C11.1968 14.6663 11.7055 14.4556 12.0806 14.0806C12.4556 13.7055 12.6663 13.1968 12.6663 12.6663V4.66634H13.9997C14.1765 4.66634 14.3461 4.5961 14.4711 4.47108C14.5961 4.34605 14.6663 4.17649 14.6663 3.99967C14.6663 3.82286 14.5961 3.65329 14.4711 3.52827C14.3461 3.40325 14.1765 3.33301 13.9997 3.33301ZM7.33301 10.6663C7.33301 10.8432 7.26277 11.0127 7.13775 11.1377C7.01272 11.2628 6.84315 11.333 6.66634 11.333C6.48953 11.333 6.31996 11.2628 6.19494 11.1377C6.06991 11.0127 5.99967 10.8432 5.99967 10.6663V7.33301C5.99967 7.1562 6.06991 6.98663 6.19494 6.8616C6.31996 6.73658 6.48953 6.66634 6.66634 6.66634C6.84315 6.66634 7.01272 6.73658 7.13775 6.8616C7.26277 6.98663 7.33301 7.1562 7.33301 7.33301V10.6663ZM9.99967 10.6663C9.99967 10.8432 9.92944 11.0127 9.80441 11.1377C9.67939 11.2628 9.50982 11.333 9.33301 11.333C9.1562 11.333 8.98663 11.2628 8.8616 11.1377C8.73658 11.0127 8.66634 10.8432 8.66634 10.6663V7.33301C8.66634 7.1562 8.73658 6.98663 8.8616 6.8616C8.98663 6.73658 9.1562 6.66634 9.33301 6.66634C9.50982 6.66634 9.67939 6.73658 9.80441 6.8616C9.92944 6.98663 9.99967 7.1562 9.99967 7.33301V10.6663ZM6.66634 2.66634H9.33301C9.50982 2.66634 9.67939 2.5961 9.80441 2.47108C9.92944 2.34605 9.99967 2.17649 9.99967 1.99967C9.99967 1.82286 9.92944 1.65329 9.80441 1.52827C9.67939 1.40325 9.50982 1.33301 9.33301 1.33301H6.66634C6.48953 1.33301 6.31996 1.40325 6.19494 1.52827C6.06991 1.65329 5.99967 1.82286 5.99967 1.99967C5.99967 2.17649 6.06991 2.34605 6.19494 2.47108C6.31996 2.5961 6.48953 2.66634 6.66634 2.66634Z" fill="currentColor" />
</svg>
