<svg width="18" height="18" viewBox="0 0 18 18" fill="none" xmlns="http://www.w3.org/2000/svg">
<path d="M10.6875 13.7812C10.4637 13.7812 10.2491 13.8701 10.0909 14.0284C9.93265 14.1866 9.84375 14.4012 9.84375 14.625V15.4688H2.53125V2.53125H9.84375V3.375C9.84375 3.59878 9.93265 3.81339 10.0909 3.97162C10.2491 4.12986 10.4637 4.21875 10.6875 4.21875C10.9113 4.21875 11.1259 4.12986 11.2841 3.97162C11.4424 3.81339 11.5312 3.59878 11.5312 3.375V2.25C11.5313 2.06533 11.4949 1.88247 11.4242 1.71185C11.3535 1.54124 11.25 1.38621 11.1194 1.25563C10.9888 1.12505 10.8338 1.02147 10.6631 0.950794C10.4925 0.880124 10.3097 0.84375 10.125 0.84375H2.25C1.87704 0.84375 1.51935 0.991908 1.25563 1.25563C0.991908 1.51935 0.84375 1.87704 0.84375 2.25V15.75C0.84375 16.123 0.991908 16.4806 1.25563 16.7444C1.51935 17.0081 1.87704 17.1562 2.25 17.1562H10.125C10.3097 17.1563 10.4925 17.1199 10.6631 17.0492C10.8338 16.9785 10.9888 16.875 11.1194 16.7444C11.25 16.6138 11.3535 16.4588 11.4242 16.2881C11.4949 16.1175 11.5312 15.9347 11.5312 15.75V14.625C11.5312 14.4012 11.4424 14.1866 11.2841 14.0284C11.1259 13.8701 10.9113 13.7812 10.6875 13.7812Z" fill="#EE5D50"/>
</svg>