<svg width="24" height="24" viewBox="0 0 24 24" fill="none" xmlns="http://www.w3.org/2000/svg">
    <path d="M20.6847 14.3296C20.4975 14.3296 20.318 14.404 20.1856 14.5363C20.0532 14.6687 19.9788 14.8483 19.9788 15.0355V17.4461C19.9788 18.0142 19.7531 18.5592 19.3513 18.9609C18.9496 19.3627 18.4047 19.5884 17.8365 19.5884H5.55412C4.98593 19.5884 4.44101 19.3627 4.03925 18.9609C3.63748 18.5592 3.41176 18.0142 3.41176 17.4461V15.0355C3.41176 14.8483 3.3374 14.6687 3.20502 14.5363C3.07264 14.404 2.89309 14.3296 2.70588 14.3296C2.51867 14.3296 2.33913 14.404 2.20675 14.5363C2.07437 14.6687 2 14.8483 2 15.0355V17.4461C2.00093 18.3884 2.37568 19.2918 3.04201 19.9582C3.70833 20.6245 4.61179 20.9992 5.55412 21.0002H17.8365C18.7788 20.9992 19.6823 20.6245 20.3486 19.9582C21.0149 19.2918 21.3897 18.3884 21.3906 17.4461V15.0355C21.3906 14.8483 21.3162 14.6687 21.1838 14.5363C21.0515 14.404 20.8719 14.3296 20.6847 14.3296Z" fill="currentColor" stroke="currentColor" stroke-width="0.5"/>
    <path d="M11.1949 16.3906C11.2605 16.4567 11.3386 16.5093 11.4246 16.5451C11.5106 16.5809 11.6029 16.5994 11.696 16.5994C11.7892 16.5994 11.8815 16.5809 11.9675 16.5451C12.0535 16.5093 12.1316 16.4567 12.1972 16.3906L16.2137 12.3741C16.3258 12.2393 16.3836 12.0675 16.376 11.8924C16.3684 11.7172 16.2959 11.5511 16.1726 11.4265C16.0493 11.3018 15.884 11.2276 15.7089 11.2181C15.5338 11.2086 15.3615 11.2647 15.2254 11.3753L12.4019 14.1988V3.70588C12.4019 3.51867 12.3275 3.33913 12.1952 3.20675C12.0628 3.07437 11.8832 3 11.696 3C11.5088 3 11.3293 3.07437 11.1969 3.20675C11.0645 3.33913 10.9902 3.51867 10.9902 3.70588V14.1882L8.16662 11.3647C8.03417 11.2323 7.85453 11.1578 7.66721 11.1578C7.4799 11.1578 7.30025 11.2323 7.1678 11.3647C7.03535 11.4972 6.96094 11.6768 6.96094 11.8641C6.96094 12.0514 7.03535 12.2311 7.1678 12.3635L11.1949 16.3906Z" fill="currentColor" stroke="currentColor" stroke-width="0.5"/>
</svg>
