<svg width="19" height="19" viewBox="0 0 19 19" fill="none" xmlns="http://www.w3.org/2000/svg">
    <path d="M18 17.0956H0.947368C0.696111 17.0956 0.455144 17.1954 0.277478 17.3731C0.0998117 17.5507 0 17.7917 0 18.0429C0 18.2942 0.0998117 18.5352 0.277478 18.7128C0.455144 18.8905 0.696111 18.9903 0.947368 18.9903H18C18.2513 18.9903 18.4922 18.8905 18.6699 18.7128C18.8476 18.5352 18.9474 18.2942 18.9474 18.0429C18.9474 17.7917 18.8476 17.5507 18.6699 17.3731C18.4922 17.1954 18.2513 17.0956 18 17.0956Z" fill="currentColor"/>
    <path d="M9.47324 0.998474C9.22199 0.998474 8.98102 1.09824 8.80335 1.27581C8.62569 1.45339 8.52587 1.69423 8.52587 1.94536V11.9729L5.40903 8.84818C5.23064 8.66987 4.98869 8.5697 4.7364 8.5697C4.48412 8.5697 4.24216 8.66987 4.06377 8.84818C3.88538 9.02648 3.78516 9.26831 3.78516 9.52046C3.78516 9.77262 3.88538 10.0145 4.06377 10.1928L8.80061 14.9272C8.88868 15.0159 8.99346 15.0864 9.10891 15.1345C9.22435 15.1825 9.34818 15.2073 9.47324 15.2073C9.59831 15.2073 9.72213 15.1825 9.83758 15.1345C9.95302 15.0864 10.0578 15.0159 10.1459 14.9272L14.8827 10.1928C14.971 10.1045 15.0411 9.99966 15.0889 9.88431C15.1367 9.76896 15.1613 9.64532 15.1613 9.52046C15.1613 9.39561 15.1367 9.27198 15.0889 9.15662C15.0411 9.04127 14.971 8.93646 14.8827 8.84818C14.7944 8.75989 14.6895 8.68986 14.5741 8.64208C14.4587 8.5943 14.335 8.5697 14.2101 8.5697C14.0852 8.5697 13.9615 8.5943 13.8461 8.64208C13.7306 8.68986 13.6258 8.75989 13.5375 8.84818L10.4206 11.9729V1.94536C10.4206 1.69423 10.3208 1.45339 10.1431 1.27581C9.96547 1.09824 9.7245 0.998474 9.47324 0.998474Z" fill="currentColor"/>
</svg>
