<svg width="17" height="16" viewBox="0 0 17 16" fill="none" xmlns="http://www.w3.org/2000/svg">
<path d="M9.9977 2.67014L13.2683 5.94074L4.98947 14.2196L1.72069 10.949L9.9977 2.67014ZM15.7501 1.88134L14.2915 0.422767C13.7278 -0.140922 12.8125 -0.140922 12.2469 0.422767L10.8498 1.81994L14.1204 5.09057L15.7501 3.46085C16.1873 3.02362 16.1873 2.31854 15.7501 1.88134ZM0.00910139 15.5461C-0.0504199 15.814 0.191435 16.054 0.459341 15.9889L4.10391 15.1052L0.835134 11.8346L0.00910139 15.5461Z" fill="#8D91A5"/>
<path d="M15.1952 16.001H7.99267C7.78042 16.001 7.57686 15.9166 7.42678 15.7666C7.2767 15.6165 7.19238 15.4129 7.19238 15.2007C7.19238 14.9884 7.2767 14.7849 7.42678 14.6348C7.57686 14.4847 7.78042 14.4004 7.99267 14.4004H15.1952C15.4075 14.4004 15.611 14.4847 15.7611 14.6348C15.9112 14.7849 15.9955 14.9884 15.9955 15.2007C15.9955 15.4129 15.9112 15.6165 15.7611 15.7666C15.611 15.9166 15.4075 16.001 15.1952 16.001Z" fill="#8D91A5"/>
</svg>
