<svg width="17" height="16" viewBox="0 0 17 16" fill="none" xmlns="http://www.w3.org/2000/svg">
    <path d="M9.9977 2.67014L13.2683 5.94074L4.98947 14.2196L1.72069 10.949L9.9977 2.67014ZM15.7501 1.88134L14.2915 0.422767C13.7278 -0.140922 12.8125 -0.140922 12.2469 0.422767L10.8498 1.81994L14.1204 5.09057L15.7501 3.46085C16.1873 3.02362 16.1873 2.31854 15.7501 1.88134ZM0.00910139 15.5461C-0.0504199 15.814 0.191435 16.054 0.459341 15.9889L4.10391 15.1052L0.835134 11.8346L0.00910139 15.5461Z" fill="currentColor"/>
    <path d="M15.1953 16H7.99274C7.7805 16 7.57694 15.9157 7.42686 15.7656C7.27677 15.6155 7.19246 15.4119 7.19246 15.1997C7.19246 14.9875 7.27677 14.7839 7.42686 14.6338C7.57694 14.4837 7.7805 14.3994 7.99274 14.3994H15.1953C15.4076 14.3994 15.6111 14.4837 15.7612 14.6338C15.9113 14.7839 15.9956 14.9875 15.9956 15.1997C15.9956 15.4119 15.9113 15.6155 15.7612 15.7656C15.6111 15.9157 15.4076 16 15.1953 16Z" fill="currentColor"/>
</svg>
