<svg width="20" height="20" viewBox="0 0 20 20" fill="none" xmlns="http://www.w3.org/2000/svg">
<path d="M15.6032 3.38332H12.6667C12.2709 3.38332 11.95 3.06246 11.95 2.66666C11.95 2.27086 12.2709 1.95 12.6667 1.95H17.3334H17.3335C17.3571 1.95003 17.3806 1.95121 17.4041 1.95352L15.6032 3.38332ZM15.6032 3.38332L10.8266 8.15992C10.5467 8.43979 10.5467 8.89357 10.8266 9.17345C11.1065 9.45332 11.5603 9.45332 11.8401 9.17345L16.6167 4.39688V7.33336C16.6167 7.72917 16.9376 8.05002 17.3334 8.05002C17.7292 8.05002 18.0501 7.72917 18.0501 7.33336V2.66672C18.0501 2.64298 18.0488 2.61938 18.0465 2.59599C18.0465 2.59599 18.0465 2.59598 18.0465 2.59597L15.6032 3.38332ZM18.0073 2.42448L18.0073 2.42454C18.008 2.42656 18.0088 2.42879 18.0097 2.43119C18.0127 2.43923 18.0163 2.44909 18.0192 2.45866L18.0073 2.42448ZM18.0073 2.42448C18.0065 2.42245 18.0057 2.42011 18.0048 2.41757C18.0022 2.41009 17.999 2.40087 17.9955 2.39249C17.9921 2.38413 17.9878 2.37523 17.9843 2.36813C17.9832 2.36566 17.9821 2.36342 17.9812 2.36149L17.9811 2.36137M18.0073 2.42448L17.9811 2.36137M17.9811 2.36137C17.9802 2.35939 17.9792 2.3572 17.9781 2.35486C17.9745 2.34708 17.9701 2.33763 17.9654 2.32887L17.9654 2.32877M17.9811 2.36137L17.9654 2.32877M17.9654 2.32877C17.9611 2.32089 17.9561 2.31266 17.952 2.30599C17.9507 2.30377 17.9494 2.30171 17.9484 2.29991L17.9483 2.2999M17.9654 2.32877L17.9483 2.2999M17.9483 2.2999C17.9472 2.29797 17.9459 2.2958 17.9445 2.29346C17.9402 2.28606 17.9349 2.277 17.9294 2.26874L17.8878 2.2965M17.9483 2.2999L17.8878 2.2965M17.8878 2.2965L17.9294 2.26873C17.9236 2.26009 17.9169 2.25131 17.9115 2.24413C17.9098 2.24189 17.9082 2.2398 17.9068 2.23793L17.9067 2.23782M17.8878 2.2965L17.9067 2.23782M17.9067 2.23782C17.9056 2.23637 17.9042 2.23438 17.9025 2.23208C17.8983 2.2263 17.8927 2.21855 17.8877 2.21244L17.8877 2.21241C17.8732 2.19471 17.8578 2.17771 17.8417 2.16147M17.9067 2.23782L17.8417 2.16147M17.8417 2.16147L17.8418 2.16134L17.8389 2.15869L17.8417 2.16147ZM17.6173 2.06416L17.6386 2.01892C17.6405 2.01982 17.6426 2.02079 17.6449 2.02181C17.6527 2.02547 17.6623 2.02988 17.6712 2.03466L17.6713 2.03471C17.6791 2.03892 17.6874 2.04395 17.694 2.04799C17.6962 2.04935 17.6983 2.05061 17.7001 2.05168L17.5689 1.99035C17.5713 1.99122 17.5735 1.99203 17.5755 1.99275L17.5586 2.03981M17.6173 2.06416C17.6147 2.06292 17.6121 2.06167 17.6095 2.06042C17.6026 2.05707 17.5956 2.05373 17.5885 2.05075C17.5811 2.04769 17.5736 2.04506 17.566 2.04243C17.5635 2.04156 17.5611 2.04069 17.5586 2.03981M17.6173 2.06416L17.6387 2.01895C17.6368 2.01804 17.6346 2.017 17.6323 2.01589C17.6251 2.01241 17.6163 2.00815 17.6077 2.00461V2.0046L17.6076 2.00453C17.5987 2.00089 17.5893 1.9976 17.5816 1.99489C17.5794 1.99412 17.5773 1.99339 17.5754 1.99271L17.5586 2.03981M17.6173 2.06416C17.6198 2.06531 17.6222 2.06645 17.6247 2.06759C17.6324 2.07116 17.6401 2.07472 17.6476 2.07875C17.6542 2.08226 17.6604 2.0861 17.6667 2.08995L17.5269 2.02875M17.5586 2.03981C17.556 2.03886 17.5533 2.0379 17.5507 2.03694C17.5428 2.03406 17.535 2.03119 17.5269 2.02875M17.5269 2.02875L17.5414 1.9809L17.5269 2.02875ZM17.5269 2.02875C17.5197 2.02657 17.5125 2.02481 17.5052 2.02305C17.5023 2.02237 17.4995 2.02168 17.4967 2.02097M17.5269 2.02875L17.4041 1.95352C17.4119 1.95429 17.4216 1.95583 17.4286 1.95694C17.4314 1.95738 17.4337 1.95776 17.4354 1.95799L17.4355 1.95801C17.4377 1.95832 17.4401 1.95865 17.4426 1.959C17.4518 1.96026 17.4628 1.96177 17.4734 1.96385L17.4734 1.96387C17.4834 1.96584 17.4936 1.96852 17.502 1.97072C17.5045 1.97136 17.5068 1.97197 17.5089 1.9725L17.4967 2.02097M17.4967 2.02097C17.4939 2.02026 17.4911 2.01954 17.4883 2.01882C17.4802 2.01669 17.472 2.01456 17.4637 2.01291M17.4967 2.02097L17.5088 1.97247C17.5108 1.97297 17.5131 1.97352 17.5156 1.97412C17.5232 1.97596 17.5327 1.97826 17.5414 1.98089L17.4637 2.01291M17.4637 2.01291C17.4547 2.01114 17.4458 2.00991 17.4368 2.00867C17.434 2.00828 17.4312 2.0079 17.4284 2.0075C17.4249 2.00701 17.4215 2.00646 17.4181 2.00591C17.4118 2.00491 17.4056 2.00391 17.3992 2.00328C17.3773 2.00113 17.3554 2.00003 17.3334 2L17.4637 2.01291ZM8.19527 10.862L8.15992 10.8266C8.43982 10.5468 8.8936 10.5467 9.17348 10.8266C9.45335 11.1064 9.45335 11.5602 9.17348 11.8401L4.39688 16.6167H7.33336C7.72917 16.6167 8.05002 16.9375 8.05002 17.3333C8.05002 17.7291 7.72917 18.05 7.33336 18.05H2.66666C2.64297 18.05 2.61939 18.0488 2.59601 18.0464C2.58822 18.0457 2.57858 18.0441 2.57157 18.043C2.56879 18.0426 2.56642 18.0422 2.56475 18.042L2.56466 18.042C2.56239 18.0416 2.5599 18.0413 2.55724 18.0409C2.54815 18.0397 2.53716 18.0382 2.52676 18.0361L2.52671 18.0361C2.51674 18.0342 2.50646 18.0315 2.49804 18.0293C2.49561 18.0286 2.49334 18.0281 2.49128 18.0275C2.49124 18.0275 2.49119 18.0275 2.49115 18.0275L8.19527 10.862ZM8.19527 10.862L8.15992 10.8266L3.38335 15.6032M8.19527 10.862L3.38335 15.6032M2.03474 17.6712L2.03469 17.6711C2.03 17.6624 2.02561 17.6529 2.022 17.6451L2.03474 17.6712ZM2.03474 17.6712C2.03895 17.6791 2.04398 17.6873 2.04802 17.6939C2.0494 17.6962 2.05066 17.6983 2.05174 17.7001L2.05175 17.7001M2.03474 17.6712L2.05175 17.7001M2.05175 17.7001C2.05291 17.702 2.0542 17.7042 2.0556 17.7066C2.05992 17.714 2.06524 17.723 2.07073 17.7313C2.07651 17.7399 2.08316 17.7487 2.08862 17.7559C2.09031 17.7581 2.09188 17.7602 2.09328 17.762L2.09331 17.7621M2.05175 17.7001L2.09331 17.7621M2.09331 17.7621C2.09439 17.7635 2.09579 17.7655 2.0974 17.7677M2.09331 17.7621L2.0974 17.7677M2.15815 17.8385L2.15828 17.8384L2.15815 17.8385ZM2.15815 17.8385L2.16112 17.8413M2.15815 17.8385L2.16112 17.8413M2.16112 17.8413C2.17751 17.8576 2.19466 17.873 2.21238 17.8875C2.21876 17.8928 2.22658 17.8984 2.23241 17.9027C2.2346 17.9043 2.23651 17.9056 2.23795 17.9067L2.23796 17.9067C2.23984 17.9081 2.24192 17.9097 2.24416 17.9114C2.25133 17.9168 2.26009 17.9235 2.26871 17.9293C2.27712 17.9349 2.2863 17.9403 2.2938 17.9447C2.29601 17.946 2.29808 17.9472 2.29994 17.9483L2.16112 17.8413ZM3.38335 15.6032V12.6667C3.38335 12.2709 3.06249 11.95 2.66669 11.95C2.27086 11.95 1.95 12.2709 1.95 12.6667V17.3334L3.38335 15.6032ZM2.02878 17.5269C2.02658 17.5196 2.02481 17.5123 2.02303 17.5049C2.02236 17.5021 2.02169 17.4994 2.021 17.4966L1.97253 17.5089C1.972 17.5068 1.97139 17.5045 1.97074 17.502C1.96856 17.4936 1.96589 17.4834 1.96391 17.4735L1.97249 17.5087C1.97299 17.5107 1.97353 17.5129 1.97412 17.5154C1.97596 17.523 1.97826 17.5326 1.98092 17.5413L2.02878 17.5269ZM2.02878 17.5269C2.03126 17.5351 2.03418 17.543 2.03711 17.551C2.03803 17.5535 2.03894 17.556 2.03984 17.5585M2.02878 17.5269L1.98093 17.5414L2.03984 17.5585M2.03984 17.5585L1.99279 17.5754L2.03984 17.5585ZM2.03984 17.5585C2.04085 17.5613 2.04183 17.5641 2.04282 17.5669C2.04534 17.5742 2.04786 17.5814 2.05078 17.5884C2.05371 17.5955 2.05703 17.6024 2.06036 17.6093C2.06164 17.6119 2.06293 17.6146 2.06419 17.6173L2.01898 17.6386C2.01809 17.6368 2.01706 17.6346 2.01593 17.6323C2.01246 17.6251 2.00811 17.6161 2.00456 17.6075C2.00107 17.599 1.99782 17.5898 1.99519 17.5822C1.99432 17.5798 1.99352 17.5775 1.9928 17.5755L2.03984 17.5585ZM2.0974 17.7677C2.10162 17.7735 2.10727 17.7813 2.11247 17.7876L2.0974 17.7677ZM18.042 2.56456C18.0417 2.56231 18.0414 2.55984 18.041 2.55721C18.0398 2.54812 18.0383 2.53713 18.0362 2.52673L18.0362 2.52668C18.0342 2.5167 18.0315 2.50643 18.0293 2.498C18.0287 2.49558 18.0281 2.49331 18.0276 2.49125C18.0271 2.48926 18.0265 2.48698 18.0259 2.4845C18.0241 2.4769 18.0218 2.46742 18.0192 2.45873L18.042 2.56456ZM17.7877 2.11242C17.7813 2.10723 17.7736 2.10158 17.7677 2.09737C17.7655 2.09577 17.7636 2.09438 17.7622 2.0933C17.7604 2.09195 17.7584 2.09046 17.7563 2.08887C17.749 2.08333 17.7402 2.0766 17.7313 2.0707C17.723 2.06511 17.7138 2.05976 17.7064 2.05538L17.7877 2.11242ZM1.95355 17.4041C1.95435 17.4121 1.95586 17.4216 1.95698 17.4286L1.95355 17.4041ZM1.95804 17.4354C1.95836 17.4377 1.95869 17.4401 1.95904 17.4426L1.95804 17.4354Z" fill="#8D91A5" stroke="#8D91A5" stroke-width="0.1"/>
</svg>
