<svg width="32" height="32" viewBox="0 0 32 32" fill="none" xmlns="http://www.w3.org/2000/svg">
<rect width="32" height="32" rx="4" fill="#242B45" fill-opacity="0.4"/>
<g clip-path="url(#clip0_3755_24080)">
<path d="M24.505 16.7228H18.2666C17.994 16.7228 17.7718 16.945 17.7718 17.2176C17.7718 17.3564 17.8308 17.4815 17.9228 17.5717L22.3155 21.9645C22.3619 22.0144 22.4181 22.0541 22.4805 22.0813C22.543 22.1085 22.6104 22.1226 22.6785 22.1225C22.7598 22.1227 22.8399 22.1029 22.9116 22.0647C22.9834 22.0265 23.0446 21.9712 23.0899 21.9037C24.1699 20.6501 24.8644 19.058 24.9895 17.3061C24.9964 17.2771 24.9999 17.2474 24.9999 17.2175C24.9999 17.1525 24.9871 17.0882 24.9623 17.0281C24.9374 16.9681 24.9009 16.9135 24.855 16.8676C24.809 16.8216 24.7545 16.7852 24.6944 16.7604C24.6344 16.7355 24.57 16.7227 24.505 16.7228ZM16.3827 7.75488C16.1101 7.75655 15.8896 7.97713 15.8896 8.24971V15.1826C15.8896 15.457 16.1101 15.6792 16.3827 15.6792H23.3174C23.5901 15.6792 23.8123 15.457 23.8123 15.1826C23.5674 11.1928 20.3744 7.99974 16.3827 7.75488Z" fill="#8D91A5"/>
<path d="M20.1939 21.5602L15.0789 16.4451C14.9921 16.3566 14.9401 16.2333 14.9401 16.0996L14.9382 8.87494C14.9383 8.81017 14.9256 8.74603 14.9008 8.68618C14.876 8.62634 14.8397 8.57196 14.7939 8.52616C14.7481 8.48037 14.6937 8.44405 14.6339 8.41928C14.574 8.39452 14.5099 8.38179 14.4451 8.38184C10.2902 8.63536 7 12.087 7 16.3045C7 20.6886 10.5542 24.2445 14.9382 24.2445C16.9384 24.2445 18.765 23.5048 20.1609 22.2842C20.216 22.2381 20.2602 22.1804 20.2906 22.1153C20.3209 22.0502 20.3365 21.9792 20.3363 21.9074C20.3362 21.7775 20.2851 21.6528 20.1939 21.5602Z" fill="#8D91A5"/>
</g>
<defs>
<clipPath id="clip0_3755_24080">
<rect width="18" height="18" fill="white" transform="translate(7 7)"/>
</clipPath>
</defs>
</svg>
