<svg width="16" height="20" viewBox="0 0 16 20" fill="none" xmlns="http://www.w3.org/2000/svg">
<path fill-rule="evenodd" clip-rule="evenodd" d="M15.8375 13.3375C15.8375 10.8042 14.3709 7.69167 13.3834 5.88333L12.5042 4.39583C12.5865 4.96736 12.554 5.54957 12.4084 6.10833C12.2172 6.59862 11.9247 7.04304 11.55 7.4125C11.5073 6.12284 11.1266 4.86704 10.4459 3.77083C10.3167 3.57917 9.98753 3.05708 9.62086 2.59167C8.89755 1.66993 8.00349 0.896115 6.98753 0.3125C7.34312 1.04784 7.55658 1.84374 7.61669 2.65833C7.58753 3.61667 7.28336 4.19167 5.84586 6.06667C4.40836 7.94167 4.76253 10.7375 4.76253 10.7375C4.6477 10.3469 4.49124 9.96971 4.29586 9.6125C3.92086 8.88333 2.39169 8.025 2.29586 7.975C2.33753 8.07917 3.02503 9.79167 2.08753 10.9542C0.895861 12.4417 -0.0583061 13.55 0.204194 15.775C0.537527 18.6042 3.75836 19.3958 5.23753 19.6083H5.24169C5.68753 19.675 5.97086 19.6875 5.97086 19.6875C4.99711 19.3542 4.44211 18.1292 4.36544 17.4554C4.30588 17.0716 4.33016 16.6795 4.43661 16.306C4.54307 15.9324 4.72917 15.5864 4.98211 15.2917C5.18044 15.02 5.91336 14.2917 6.16003 14.0417C6.80681 13.4894 7.25734 12.7426 7.44419 11.9129C7.54484 11.3328 7.56293 10.7414 7.49794 10.1562C8.18369 10.5913 8.76466 11.1727 9.19919 11.8588C9.53807 12.3963 9.72616 13.0152 9.74378 13.6504C9.92828 13.4677 10.0724 13.2482 10.1667 13.0062C10.2384 12.7292 10.2538 12.4406 10.2121 12.1575C10.2121 12.1575 11.9021 14.4908 11.8546 16.5642C11.795 19.1625 10.1879 19.6863 10.1854 19.6892C10.2025 19.685 15.8375 18.9825 15.8375 13.3375Z" fill="#8D91A5"/>
</svg>
