<svg width="16" height="20" viewBox="0 0 16 20" fill="none" xmlns="http://www.w3.org/2000/svg">
    <path fill-rule="evenodd" clip-rule="evenodd"
        d="M15.8375 13.3375C15.8375 18.9917 10.1834 19.6875 10.1834 19.6875H5.97086C5.97086 19.6875 5.68753 19.675 5.24169 19.6083H5.23753C3.75836 19.3958 0.537527 18.6042 0.204194 15.775C-0.0583061 13.55 0.895861 12.4417 2.08753 10.9542C3.02503 9.79167 2.33753 8.07917 2.29586 7.975C2.39169 8.025 3.92086 8.88333 4.29586 9.6125C4.49124 9.96971 4.6477 10.3469 4.76253 10.7375C4.76253 10.7375 4.40419 7.9375 5.84586 6.06667C7.28753 4.19583 7.58753 3.61667 7.61669 2.65833C7.55658 1.84374 7.34312 1.04784 6.98753 0.3125C8.00616 0.892338 8.9009 1.66674 9.62086 2.59167C9.62086 2.59167 9.90003 2.9625 10.0209 3.14583C10.1834 3.37917 10.3167 3.57917 10.4459 3.77083C11.1266 4.86704 11.5073 6.12284 11.55 7.4125C11.9247 7.04304 12.2172 6.59862 12.4084 6.10833C12.554 5.54957 12.5865 4.96736 12.5042 4.39583L13.3834 5.88333C14.3709 7.69167 15.8375 10.8042 15.8375 13.3375Z"
        fill="#FF953F" />
    <path fill-rule="evenodd" clip-rule="evenodd"
        d="M11.8542 16.279C11.7875 19.1165 10.0292 19.6874 10.0292 19.6874H5.97085C5.97085 19.6874 5.68752 19.6749 5.24168 19.6082H5.23752C4.29585 19.1582 3.75835 17.9415 3.68335 17.2499C3.62911 16.8858 3.64895 16.5145 3.74168 16.1582C3.91175 15.5129 4.25293 14.9256 4.72918 14.4582C5.94585 13.154 6.72502 12.6665 7.04168 11.1999C7.1521 10.567 7.17174 9.92162 7.10002 9.2832C7.84781 9.75801 8.48106 10.3927 8.95418 11.1415C9.32603 11.727 9.53196 12.4024 9.55002 13.0957C9.75162 12.8974 9.9092 12.6589 10.0125 12.3957C10.0891 12.0921 10.106 11.7766 10.0625 11.4665C10.0625 11.4665 11.9042 14.0165 11.8542 16.279Z"
        fill="#FCAC44" />
    <path fill-rule="evenodd" clip-rule="evenodd"
        d="M10.2109 12.1578C10.2526 12.4409 10.2372 12.7295 10.1655 13.0065C10.0713 13.2479 9.92769 13.4669 9.74379 13.6494C9.72617 13.0142 9.53808 12.3954 9.1992 11.8578C8.76527 11.1719 8.18502 10.5906 7.50004 10.1553C7.56503 10.7404 7.54693 11.3318 7.44629 11.9119C7.15795 13.2569 6.4417 13.7011 5.33045 14.8953C5.20672 15.02 5.09107 15.1525 4.9842 15.2919C4.70186 15.6261 4.50865 16.0263 4.42254 16.4553C4.33747 16.7816 4.31919 17.1217 4.36879 17.4553C4.4417 18.1294 5.00045 19.3519 5.9742 19.6874H10.1838C10.1838 19.6874 11.7917 19.1669 11.8534 16.5644C11.9009 14.4911 10.2109 12.1578 10.2109 12.1578Z"
        fill="#FCCA6E" />
</svg>