<svg width="14" height="16" viewBox="0 0 14 16" fill="none" xmlns="http://www.w3.org/2000/svg">
<path d="M7.82487 11.344C9.06862 11.8003 9.70924 13.1784 9.25612 14.4221C8.79987 15.6659 7.42174 16.3065 6.17799 15.8534C4.93424 15.3971 4.29362 14.019 4.74674 12.7753C4.99362 12.1034 5.52487 11.5753 6.19987 11.3378V10.5003L6.20612 10.3221C6.15924 10.1096 6.02487 9.92526 5.83737 9.81276L3.36862 8.33463C2.64362 7.90026 2.19987 7.11901 2.19987 6.27526V4.66276C0.949866 4.22213 0.293616 2.85026 0.737366 1.60026C1.18112 0.350257 2.54987 -0.305993 3.79987 0.137757C5.04987 0.581507 5.70612 1.95026 5.26237 3.20026C5.02174 3.88463 4.48424 4.42213 3.79987 4.66276V6.27526C3.79987 6.55651 3.94674 6.81588 4.19049 6.96276L6.65924 8.43776C6.78424 8.51276 6.90299 8.60026 7.01237 8.69713C7.12174 8.60026 7.24049 8.51276 7.36862 8.43776L9.83737 6.96276C10.078 6.81901 10.228 6.55651 10.228 6.27526V4.67213C8.97174 4.24401 8.30299 2.87838 8.73112 1.62526C9.06237 0.656507 9.97174 0.00338185 10.9999 0.00338185C12.3249 0.00338185 13.3999 1.07526 13.3999 2.40026C13.3999 3.40651 12.7717 4.30651 11.8249 4.65338V6.27526C11.8249 7.11901 11.3811 7.90026 10.6561 8.33463L8.18737 9.81276C7.99987 9.92526 7.86549 10.1096 7.81862 10.3221L7.82487 10.4971V11.344Z" fill="#8D91A5"/>
</svg>
