<svg width="14" height="14" viewBox="0 0 13 12" fill="none" xmlns="http://www.w3.org/2000/svg">
<path d="M7.58301 0.75C6.19062 0.75 4.85526 1.30312 3.8707 2.28769C2.88613 3.27226 2.33301 4.60761 2.33301 6H0.583008L2.85217 8.26917L2.89301 8.35083L5.24967 6H3.49967C3.49967 3.7425 5.32551 1.91667 7.58301 1.91667C9.84051 1.91667 11.6663 3.7425 11.6663 6C11.6663 8.2575 9.84051 10.0833 7.58301 10.0833C6.45717 10.0833 5.43634 9.6225 4.70134 8.88167L3.87301 9.71C4.35917 10.1988 4.93729 10.5866 5.57404 10.8509C6.2108 11.1152 6.89358 11.2509 7.58301 11.25C8.97539 11.25 10.3108 10.6969 11.2953 9.71231C12.2799 8.72774 12.833 7.39239 12.833 6C12.833 4.60761 12.2799 3.27226 11.2953 2.28769C10.3108 1.30312 8.97539 0.75 7.58301 0.75ZM6.99967 3.66667V6.58333L9.49634 8.065L9.91634 7.35917L7.87467 6.14583V3.66667H6.99967Z" fill="#8D91A5"/>
</svg>
