<svg width="16" height="16" viewBox="0 0 16 16" fill="none" xmlns="http://www.w3.org/2000/svg">
<path d="M8.00023 3C3.74961 3 0.418449 7.4728 0.279224 7.66317C0.20758 7.76071 0.168945 7.87857 0.168945 7.99959C0.168945 8.1206 0.20758 8.23846 0.279224 8.336C0.418449 8.52637 3.74961 12.9992 8.00023 12.9992C12.2508 12.9992 15.582 8.52637 15.7218 8.336C15.7933 8.23839 15.8318 8.12056 15.8318 7.99959C15.8318 7.87861 15.7933 7.76078 15.7218 7.66317C15.582 7.4728 12.2503 3 8.00023 3ZM8.00023 11.8626C4.95206 11.8626 2.29542 8.99632 1.46405 7.99959C2.29486 7.00285 4.95206 4.13653 8.00023 4.13653C11.0484 4.13653 13.7056 7.00342 14.537 8.00015C13.7073 8.99689 11.0563 11.8626 8.00023 11.8626Z" fill="#000224" fill-opacity="0.5"/>
<path d="M8.00027 5.36035C6.54551 5.36035 5.36182 6.54405 5.36182 7.9988C5.36182 9.45356 6.54551 10.6372 8.00027 10.6372C9.45502 10.6372 10.6387 9.45356 10.6387 7.9988C10.6387 6.54405 9.45502 5.36035 8.00027 5.36035ZM8.00027 9.50072C7.60207 9.50027 7.22031 9.34189 6.93874 9.06032C6.65718 8.77875 6.4988 8.397 6.49834 7.9988H7.16549C7.62635 7.9988 8.00027 7.62488 8.00027 7.16402V6.49688C8.82823 6.49688 9.50219 7.17084 9.50219 7.9988C9.50219 8.82676 8.82823 9.50072 8.00027 9.50072Z" fill="#000224" fill-opacity="0.5"/>
</svg>
