<svg width="20" height="20" viewBox="0 0 20 20" fill="none" xmlns="http://www.w3.org/2000/svg">
<path d="M14.1667 4.16699C14.1667 3.67254 14.3133 3.18919 14.588 2.77807C14.8627 2.36695 15.2532 2.04651 15.71 1.85729C16.1668 1.66808 16.6695 1.61857 17.1544 1.71503C17.6394 1.81149 18.0848 2.0496 18.4345 2.39923C18.7841 2.74886 19.0222 3.19432 19.1187 3.67927C19.2151 4.16422 19.1656 4.66689 18.9764 5.1237C18.7872 5.58052 18.4668 5.97096 18.0556 6.24567C17.6445 6.52037 17.1612 6.66699 16.6667 6.66699C16.0037 6.66699 15.3678 6.4036 14.8989 5.93476C14.4301 5.46592 14.1667 4.83003 14.1667 4.16699ZM1.66671 5.00033H11.6667C11.8877 5.00033 12.0997 4.91253 12.256 4.75625C12.4122 4.59997 12.5 4.38801 12.5 4.16699C12.5 3.94598 12.4122 3.73402 12.256 3.57774C12.0997 3.42146 11.8877 3.33366 11.6667 3.33366H1.66671C1.44569 3.33366 1.23373 3.42146 1.07745 3.57774C0.921171 3.73402 0.833374 3.94598 0.833374 4.16699C0.833374 4.38801 0.921171 4.59997 1.07745 4.75625C1.23373 4.91253 1.44569 5.00033 1.66671 5.00033ZM6.66671 7.50033C6.15092 7.50178 5.64821 7.66273 5.22749 7.96111C4.80677 8.25949 4.48864 8.6807 4.31671 9.16699H1.66671C1.44569 9.16699 1.23373 9.25479 1.07745 9.41107C0.921171 9.56735 0.833374 9.77931 0.833374 10.0003C0.833374 10.2213 0.921171 10.4333 1.07745 10.5896C1.23373 10.7459 1.44569 10.8337 1.66671 10.8337H4.31671C4.46959 11.2661 4.73846 11.6481 5.09391 11.9379C5.44936 12.2277 5.87769 12.4142 6.33201 12.4769C6.78633 12.5395 7.24915 12.476 7.6698 12.2933C8.09045 12.1106 8.45273 11.8157 8.717 11.4408C8.98126 11.066 9.13732 10.6257 9.16809 10.1681C9.19887 9.71048 9.10317 9.25324 8.89149 8.84639C8.6798 8.43954 8.36027 8.09876 7.96787 7.86135C7.57548 7.62394 7.12533 7.49904 6.66671 7.50033ZM18.3334 9.16699H11.6667C11.4457 9.16699 11.2337 9.25479 11.0775 9.41107C10.9212 9.56735 10.8334 9.77931 10.8334 10.0003C10.8334 10.2213 10.9212 10.4333 11.0775 10.5896C11.2337 10.7459 11.4457 10.8337 11.6667 10.8337H18.3334C18.5544 10.8337 18.7664 10.7459 18.9226 10.5896C19.0789 10.4333 19.1667 10.2213 19.1667 10.0003C19.1667 9.77931 19.0789 9.56735 18.9226 9.41107C18.7664 9.25479 18.5544 9.16699 18.3334 9.16699ZM8.33337 15.0003H1.66671C1.44569 15.0003 1.23373 15.0881 1.07745 15.2444C0.921171 15.4007 0.833374 15.6126 0.833374 15.8337C0.833374 16.0547 0.921171 16.2666 1.07745 16.4229C1.23373 16.5792 1.44569 16.667 1.66671 16.667H8.33337C8.55439 16.667 8.76635 16.5792 8.92263 16.4229C9.07891 16.2666 9.16671 16.0547 9.16671 15.8337C9.16671 15.6126 9.07891 15.4007 8.92263 15.2444C8.76635 15.0881 8.55439 15.0003 8.33337 15.0003ZM18.3334 15.0003H15.6834C15.4868 14.4443 15.1 13.9757 14.5913 13.6773C14.0826 13.3789 13.4848 13.2699 12.9036 13.3697C12.3224 13.4694 11.7951 13.7714 11.415 14.2223C11.0348 14.6732 10.8264 15.2439 10.8264 15.8337C10.8264 16.4234 11.0348 16.9942 11.415 17.445C11.7951 17.8959 12.3224 18.1979 12.9036 18.2977C13.4848 18.3974 14.0826 18.2884 14.5913 17.99C15.1 17.6916 15.4868 17.223 15.6834 16.667H18.3334C18.5544 16.667 18.7664 16.5792 18.9226 16.4229C19.0789 16.2666 19.1667 16.0547 19.1667 15.8337C19.1667 15.6126 19.0789 15.4007 18.9226 15.2444C18.7664 15.0881 18.5544 15.0003 18.3334 15.0003Z" fill="currentColor"/>
</svg>
