<svg width="4" height="12" viewBox="0 0 4 12" fill="none" xmlns="http://www.w3.org/2000/svg">
<path d="M3.16671 5.99935C3.16671 5.35502 2.64437 4.83268 2.00004 4.83268C1.35571 4.83268 0.833374 5.35502 0.833374 5.99935C0.833374 6.64368 1.35571 7.16602 2.00004 7.16602C2.64437 7.16602 3.16671 6.64368 3.16671 5.99935Z" fill="#8D91A5"/>
<path d="M3.16671 10.6663C3.16671 10.022 2.64437 9.49967 2.00004 9.49967C1.35571 9.49967 0.833374 10.022 0.833374 10.6663C0.833374 11.3107 1.35571 11.833 2.00004 11.833C2.64437 11.833 3.16671 11.3107 3.16671 10.6663Z" fill="#8D91A5"/>
<path d="M3.16671 1.33333C3.16671 0.689001 2.64437 0.166667 2.00004 0.166667C1.35571 0.166667 0.833374 0.689001 0.833374 1.33333C0.833374 1.97767 1.35571 2.5 2.00004 2.5C2.64437 2.5 3.16671 1.97767 3.16671 1.33333Z" fill="#8D91A5"/>
</svg>
