<svg width="16" height="14" viewBox="0 0 16 14" fill="none" xmlns="http://www.w3.org/2000/svg">
<path d="M1 13.4999C0.961875 13.4999 0.923375 13.4956 0.88525 13.4868C0.775638 13.4608 0.677994 13.3986 0.60809 13.3103C0.538187 13.2219 0.500106 13.1126 0.5 12.9999C0.5 8.45644 1.07475 4.67769 8 4.50582V0.999941C8.00001 0.90273 8.02836 0.80763 8.08158 0.72628C8.1348 0.644929 8.21057 0.580856 8.29964 0.541901C8.3887 0.502946 8.48719 0.490799 8.58305 0.506946C8.67891 0.523093 8.76799 0.566834 8.83937 0.632816L15.3394 6.63282C15.4419 6.72694 15.5 6.86032 15.5 6.99994C15.5 7.13957 15.4419 7.27294 15.3394 7.36719L8.83937 13.3672C8.76808 13.4334 8.67895 13.4773 8.58298 13.4935C8.48702 13.5096 8.38842 13.4973 8.29937 13.4581C8.21036 13.419 8.13465 13.3549 8.08149 13.2736C8.02832 13.1922 8 13.0971 8 12.9999V9.50582C3.2495 9.61957 2.373 11.3721 1.44725 13.2236C1.40574 13.3066 1.34191 13.3765 1.26291 13.4253C1.18391 13.4741 1.09287 13.5 1 13.4999ZM8.5 8.49994C8.77637 8.49994 9 8.72357 9 8.99994V11.8578L14.2627 6.99994L9 2.14207V4.99994C9 5.27632 8.77637 5.49994 8.5 5.49994C2.9765 5.49994 1.78712 7.63619 1.55325 11.0483C2.58887 9.65719 4.354 8.49994 8.5 8.49994Z" fill="#8D91A5"/>
</svg>
