<svg width="24" height="24" viewBox="0 0 24 24" fill="none" xmlns="http://www.w3.org/2000/svg">
<g clip-path="url(#clip0_6377_2015)">
<path d="M12 0C5.3832 0 0 5.3832 0 12C0 18.6168 5.3832 24 12 24C18.6168 24 24 18.6168 24 12C24 5.3832 18.6168 0 12 0ZM12 22.4C6.2656 22.4 1.6 17.7344 1.6 12C1.6 6.2656 6.2656 1.6 12 1.6C17.7344 1.6 22.4 6.2656 22.4 12C22.4 17.7344 17.7344 22.4 12 22.4ZM16.5568 10.5936L11.4944 6.7C11.1934 6.47238 10.8351 6.33291 10.4595 6.29717C10.0839 6.26143 9.70568 6.33082 9.3672 6.4976C8.7304 6.8112 8.3344 7.428 8.3344 8.1064V15.8936C8.3344 16.572 8.7304 17.1888 9.3672 17.5024C9.652 17.6424 9.9616 17.712 10.2696 17.712C10.7121 17.7134 11.1427 17.5685 11.4944 17.3L16.5568 13.4064C17.0072 13.06 17.2656 12.5472 17.2656 12C17.2656 11.4528 17.008 10.9392 16.5568 10.5936Z" fill="url(#paint0_linear_6377_2015)"/>
</g>
<defs>
<linearGradient id="paint0_linear_6377_2015" x1="25.4458" y1="-1.49999" x2="-0.455489" y2="-2.23553" gradientUnits="userSpaceOnUse">
<stop stop-color="#1E72FF"/>
<stop offset="1" stop-color="#0250BE"/>
</linearGradient>
<clipPath id="clip0_6377_2015">
<rect width="24" height="24" fill="white"/>
</clipPath>
</defs>
</svg>
