<svg width="12" height="12" viewBox="0 0 12 12" fill="none" xmlns="http://www.w3.org/2000/svg">
<g clip-path="url(#clip0_3701_5886)">
<path d="M10.42 2.30494C10.1646 2.04944 9.86142 1.84676 9.52769 1.70848C9.19396 1.5702 8.83626 1.49902 8.47502 1.49902C8.11377 1.49902 7.75607 1.5702 7.42234 1.70848C7.08861 1.84676 6.78539 2.04944 6.53001 2.30494L6.00001 2.83494L5.47001 2.30494C4.95417 1.78909 4.25453 1.49929 3.52501 1.49929C2.7955 1.49929 2.09586 1.78909 1.58001 2.30494C1.06417 2.82078 0.774368 3.52042 0.774368 4.24994C0.774368 4.97945 1.06417 5.67909 1.58001 6.19494L2.11001 6.72494L6.00001 10.6149L9.89001 6.72494L10.42 6.19494C10.6755 5.93956 10.8782 5.63634 11.0165 5.30261C11.1548 4.96888 11.2259 4.61118 11.2259 4.24994C11.2259 3.88869 11.1548 3.53099 11.0165 3.19726C10.8782 2.86353 10.6755 2.56031 10.42 2.30494Z" fill="#EE5D50" stroke="#EE5D50" stroke-width="1.2" stroke-linecap="round" stroke-linejoin="round"/>
</g>
<defs>
<clipPath id="clip0_3701_5886">
<rect width="12" height="12" fill="white"/>
</clipPath>
</defs>
</svg>
