<svg width="20" height="20" viewBox="0 0 20 20" fill="none" xmlns="http://www.w3.org/2000/svg">
    <path
        d="M7.32922 0H1.7073C0.765898 0 0 0.765898 0 1.7073V7.32922C0 8.27063 0.765898 9.03652 1.7073 9.03652H7.32922C8.27063 9.03652 9.03652 8.27063 9.03652 7.32922V1.7073C9.03652 0.765898 8.27063 0 7.32922 0ZM18.2927 0H12.6708C11.7294 0 10.9635 0.765898 10.9635 1.7073V7.32922C10.9635 8.27063 11.7294 9.03652 12.6708 9.03652H18.2927C19.2341 9.03652 20 8.27063 20 7.32922V1.7073C20 0.765898 19.2341 0 18.2927 0ZM7.32922 10.9635H1.7073C0.765898 10.9635 0 11.7294 0 12.6708V18.2927C0 19.2341 0.765898 20 1.7073 20H7.32922C8.27063 20 9.03652 19.2341 9.03652 18.2927V12.6708C9.03652 11.7294 8.27063 10.9635 7.32922 10.9635ZM18.2927 10.9635H12.6708C11.7294 10.9635 10.9635 11.7294 10.9635 12.6708V18.2927C10.9635 19.2341 11.7294 20 12.6708 20H18.2927C19.2341 20 20 19.2341 20 18.2927V12.6708C20 11.7294 19.2341 10.9635 18.2927 10.9635Z"
        fill="currentColor" />
    <defs>
        <linearGradient id="paint0_linear_3642_11495" x1="15.4128" y1="-6.38319e-06" x2="2.9518" y2="0.250371"
            gradientUnits="userSpaceOnUse">
            <stop stop-color="#226CFF" />
            <stop offset="1" stop-color="#1084FF" />
        </linearGradient>
    </defs>
</svg>