<svg width="22" height="18" viewBox="0 0 22 18" fill="none" xmlns="http://www.w3.org/2000/svg">
    <path
        d="M20 0H8C7.60218 0 7.22064 0.158035 6.93934 0.43934C6.65804 0.720644 6.5 1.10218 6.5 1.5C6.5 1.89782 6.65804 2.27936 6.93934 2.56066C7.22064 2.84196 7.60218 3 8 3H20C20.3978 3 20.7794 2.84196 21.0607 2.56066C21.342 2.27936 21.5 1.89782 21.5 1.5C21.5 1.10218 21.342 0.720644 21.0607 0.43934C20.7794 0.158035 20.3978 0 20 0Z"
        fill="currentColor" />
    <path
        d="M2 3C2.82843 3 3.5 2.32843 3.5 1.5C3.5 0.671573 2.82843 0 2 0C1.17157 0 0.5 0.671573 0.5 1.5C0.5 2.32843 1.17157 3 2 3Z"
        fill="currentColor" />
    <path
        d="M20 7.5H8C7.60218 7.5 7.22064 7.65804 6.93934 7.93934C6.65804 8.22064 6.5 8.60218 6.5 9C6.5 9.39782 6.65804 9.77936 6.93934 10.0607C7.22064 10.342 7.60218 10.5 8 10.5H20C20.3978 10.5 20.7794 10.342 21.0607 10.0607C21.342 9.77936 21.5 9.39782 21.5 9C21.5 8.60218 21.342 8.22064 21.0607 7.93934C20.7794 7.65804 20.3978 7.5 20 7.5Z"
        fill="currentColor" />
    <path
        d="M2 10.5C2.82843 10.5 3.5 9.82843 3.5 9C3.5 8.17157 2.82843 7.5 2 7.5C1.17157 7.5 0.5 8.17157 0.5 9C0.5 9.82843 1.17157 10.5 2 10.5Z"
        fill="currentColor" />
    <path
        d="M20 15H8C7.60218 15 7.22064 15.158 6.93934 15.4393C6.65804 15.7206 6.5 16.1022 6.5 16.5C6.5 16.8978 6.65804 17.2794 6.93934 17.5607C7.22064 17.842 7.60218 18 8 18H20C20.3978 18 20.7794 17.842 21.0607 17.5607C21.342 17.2794 21.5 16.8978 21.5 16.5C21.5 16.1022 21.342 15.7206 21.0607 15.4393C20.7794 15.158 20.3978 15 20 15Z"
        fill="currentColor" />
    <path
        d="M2 18C2.82843 18 3.5 17.3284 3.5 16.5C3.5 15.6716 2.82843 15 2 15C1.17157 15 0.5 15.6716 0.5 16.5C0.5 17.3284 1.17157 18 2 18Z"
        fill="currentColor" />
</svg>