<svg width="20" height="20" viewBox="0 0 20 20" fill="none" xmlns="http://www.w3.org/2000/svg">
<path d="M11.9977 4.67014L15.2683 7.94074L6.98947 16.2196L3.72069 12.949L11.9977 4.67014ZM17.7501 3.88134L16.2915 2.42277C15.7278 1.85908 14.8125 1.85908 14.2469 2.42277L12.8498 3.81994L16.1204 7.09057L17.7501 5.46085C18.1873 5.02362 18.1873 4.31854 17.7501 3.88134ZM2.0091 17.5461C1.94958 17.814 2.19143 18.054 2.45934 17.9889L6.10391 17.1052L2.83513 13.8346L2.0091 17.5461Z" fill="#000224" fill-opacity="0.5"/>
<path d="M17.1952 18.001H9.99267C9.78042 18.001 9.57686 17.9166 9.42678 17.7666C9.2767 17.6165 9.19238 17.4129 9.19238 17.2007C9.19238 16.9884 9.2767 16.7849 9.42678 16.6348C9.57686 16.4847 9.78042 16.4004 9.99267 16.4004H17.1952C17.4075 16.4004 17.611 16.4847 17.7611 16.6348C17.9112 16.7849 17.9955 16.9884 17.9955 17.2007C17.9955 17.4129 17.9112 17.6165 17.7611 17.7666C17.611 17.9166 17.4075 18.001 17.1952 18.001Z" fill="#000224" fill-opacity="0.5"/>
</svg>
