<svg width="34" height="26" viewBox="0 0 34 26" fill="none" xmlns="http://www.w3.org/2000/svg">
<path d="M26.5664 25.3692H21.0711H19.5913H19.2718V17.9981H21.6825C22.2938 17.9981 22.6551 17.3034 22.2938 16.8032L17.6044 10.3144C17.3057 9.89756 16.6874 9.89756 16.3886 10.3144L11.6992 16.8032C11.338 17.3034 11.6923 17.9981 12.3106 17.9981H14.7213V25.3692H14.4017H12.9219H6.55129C2.90396 25.1677 0 21.7566 0 18.0606C0 15.511 1.38251 13.2878 3.43196 12.0859C3.24438 11.5788 3.14712 11.0369 3.14712 10.4672C3.14712 7.862 5.25215 5.75698 7.85738 5.75698C8.42011 5.75698 8.96199 5.85424 9.46915 6.04181C10.9767 2.84607 14.228 0.629883 18.0074 0.629883C22.8982 0.63683 26.9277 4.38142 27.3862 9.1542C31.1447 9.80029 34 13.2809 34 17.22C34 21.43 30.7209 25.0774 26.5664 25.3692Z" fill="#465065"/>
</svg>
