<svg width="13" height="13" viewBox="0 0 13 13" fill="none" xmlns="http://www.w3.org/2000/svg">
<path d="M9.28555 2.32129H1.39283C0.623592 2.32129 0 2.94488 0 3.71412V11.6068C0 12.3761 0.623592 12.9997 1.39283 12.9997H9.28555C10.0548 12.9997 10.6784 12.3761 10.6784 11.6068V3.71412C10.6784 2.94488 10.0548 2.32129 9.28555 2.32129ZM9.74984 11.6069C9.74984 11.8633 9.54197 12.0712 9.28555 12.0712H1.39283C1.13641 12.0712 0.928547 11.8633 0.928547 11.6069V3.71412C0.928547 3.4577 1.13641 3.24984 1.39283 3.24984H9.28555C9.54197 3.24984 9.74984 3.4577 9.74984 3.71412V11.6069Z" fill="#8D91A5"/>
<path d="M11.607 0H3.25001C2.48077 0 1.85718 0.623592 1.85718 1.39283C1.85718 1.64926 2.06504 1.85712 2.32146 1.85712C2.57789 1.85712 2.78572 1.64926 2.78572 1.39283C2.78572 1.13641 2.99359 0.928547 3.25001 0.928547H11.607C11.8634 0.928547 12.0713 1.13641 12.0713 1.39283V9.74984C12.0713 10.0063 11.8634 10.2141 11.607 10.2141C11.3506 10.2141 11.1427 10.422 11.1427 10.6784C11.1427 10.9348 11.3506 11.1427 11.607 11.1427C12.3763 11.1427 12.9998 10.5191 12.9998 9.74986V1.39283C12.9998 0.623592 12.3763 0 11.607 0Z" fill="#8D91A5"/>
</svg>
