<svg width="19" height="18" viewBox="0 0 19 18" fill="none" xmlns="http://www.w3.org/2000/svg">
<path fill-rule="evenodd" clip-rule="evenodd" d="M16.6 9.62206H11.8294C11.402 9.62267 10.9923 9.80105 10.6902 10.1181C10.388 10.4351 10.218 10.8649 10.2175 11.3132V15.509C10.218 15.9572 10.3879 16.387 10.69 16.7041C10.9922 17.0211 11.4019 17.1994 11.8293 17.2H16.5999C17.0272 17.1995 17.437 17.0212 17.7391 16.7042C18.0413 16.3872 18.2113 15.9574 18.2118 15.5092V11.3131C18.2113 10.8648 18.0413 10.4351 17.7391 10.1181C17.4369 9.80116 17.0272 9.62289 16.5999 9.62239V9.62213L16.6 9.62206ZM6.38237 0.290361H1.61192C1.18457 0.290913 0.77487 0.469238 0.47269 0.786222C0.17051 1.10321 0.0005177 1.53297 0 1.98125L0 6.1779C0.000536483 6.62616 0.170531 7.0559 0.4727 7.37288C0.77487 7.68985 1.18455 7.86818 1.61188 7.86875H6.38237C6.8097 7.86829 7.21941 7.69002 7.52159 7.37308C7.82378 7.05613 7.99376 6.62638 7.99425 6.17813V1.98098C7.99374 1.53272 7.82375 1.10298 7.52156 0.78603C7.21937 0.469079 6.80967 0.290807 6.38233 0.290323L6.38237 0.290361ZM6.38237 9.62198H1.61192C1.18454 9.6226 0.774828 9.80098 0.472652 10.118C0.170475 10.4351 0.000498761 10.8649 0 11.3132V15.509C0.000480035 15.9573 0.17045 16.3871 0.472627 16.7041C0.774804 17.0211 1.18451 17.1994 1.61188 17.2H6.38237C6.80972 17.1995 7.21943 17.0212 7.52161 16.7042C7.8238 16.3872 7.99377 15.9575 7.99425 15.5092V11.3131C7.99373 10.8648 7.82373 10.435 7.52156 10.118C7.21938 9.801 6.80969 9.62265 6.38233 9.62206L6.38237 9.62198ZM14.0508 8.159C14.82 8.15897 15.5719 7.9197 16.2114 7.47142C16.851 7.02314 17.3494 6.38599 17.6438 5.64055C17.9381 4.89511 18.0151 4.07486 17.865 3.28352C17.7149 2.49218 17.3445 1.76529 16.8006 1.19478C16.2567 0.624268 15.5637 0.235753 14.8093 0.0783664C14.0549 -0.0790202 13.2729 0.00179001 12.5623 0.310578C11.8517 0.619366 11.2443 1.14226 10.817 1.81315C10.3897 2.48403 10.1616 3.27276 10.1616 4.07961C10.1628 5.16121 10.5729 6.19816 11.302 6.96295C12.0311 7.72774 13.0197 8.15791 14.0508 8.15907V8.159Z" fill="url(#paint0_linear_3913_15267)"/>
<defs>
<linearGradient id="paint0_linear_3913_15267" x1="0.9956" y1="17.2526" x2="17.294" y2="1.71507" gradientUnits="userSpaceOnUse">
<stop stop-color="#E81E25"/>
<stop offset="0.108" stop-color="#EA3522"/>
<stop offset="0.416" stop-color="#F1711C"/>
<stop offset="0.678" stop-color="#F59D17"/>
<stop offset="0.881" stop-color="#F8B814"/>
<stop offset="1" stop-color="#F9C213"/>
</linearGradient>
</defs>
</svg>
