<svg width="20" height="20" viewBox="0 0 20 20" fill="none" xmlns="http://www.w3.org/2000/svg">
<path d="M10.0255 0C7.36736 0.00245032 4.81874 1.0595 2.93912 2.93912C1.0595 4.81874 0.00245032 7.36736 0 10.0255C0.547549 23.3287 19.5035 23.321 20.0511 10.0255C20.0486 7.36736 18.9916 4.81874 17.112 2.93912C15.2323 1.0595 12.6837 0.00245032 10.0255 0ZM3.31614 9.51656L5.71456 7.17983C5.78697 7.10945 5.87254 7.05401 5.96637 7.0167C6.06021 6.97938 6.16048 6.96091 6.26145 6.96234C6.36242 6.96377 6.46212 6.98508 6.55486 7.02504C6.6476 7.06501 6.73156 7.12285 6.80195 7.19526C6.87233 7.26767 6.92777 7.35323 6.96509 7.44707C7.0024 7.54091 7.02087 7.64117 7.01944 7.74214C7.01801 7.84312 6.9967 7.94282 6.95674 8.03556C6.91677 8.1283 6.85893 8.21226 6.78652 8.28264L4.94337 10.0872L6.60915 11.8147C6.7456 11.963 6.81864 12.1588 6.81266 12.3603C6.80668 12.5617 6.72217 12.7528 6.57717 12.8928C6.43217 13.0328 6.23818 13.1105 6.03665 13.1093C5.83512 13.1082 5.64203 13.0283 5.49863 12.8867L3.30072 10.6039C3.16005 10.4569 3.08282 10.2605 3.08571 10.0571C3.08859 9.85365 3.17136 9.6595 3.31614 9.51656ZM7.89705 13.5808C7.72117 13.4764 7.59393 13.3065 7.54332 13.1084C7.4927 12.9102 7.52285 12.7001 7.62713 12.5242L11.0975 6.74025C11.2037 6.56813 11.3732 6.44458 11.5695 6.39623C11.7659 6.34787 11.9734 6.37857 12.1473 6.48172C12.3212 6.58487 12.4477 6.75221 12.4994 6.9477C12.5512 7.14318 12.5241 7.35118 12.424 7.52687L8.95358 13.3108C8.84896 13.4864 8.67906 13.6134 8.48105 13.664C8.28304 13.7145 8.07305 13.6846 7.89705 13.5808ZM13.2646 11.7684L15.1077 9.96385L13.4419 8.23637C13.3055 8.08806 13.2325 7.89226 13.2384 7.69082C13.2444 7.48937 13.3289 7.29825 13.4739 7.15829C13.6189 7.01832 13.8129 6.94061 14.0144 6.94175C14.216 6.9429 14.4091 7.02281 14.5525 7.16441L16.7504 9.44715C16.891 9.59415 16.9683 9.79056 16.9654 9.994C16.9625 10.1974 16.8797 10.3916 16.735 10.5345L14.3365 12.8713C14.1903 13.0134 13.9936 13.0916 13.7896 13.0888C13.5857 13.0859 13.3913 13.0021 13.2491 12.8558C13.107 12.7096 13.0288 12.5129 13.0317 12.3089C13.0345 12.105 13.1183 11.9106 13.2646 11.7684Z" fill="#8D91A5"/>
</svg>
