<svg width="14" height="16" viewBox="0 0 14 16" fill="none" xmlns="http://www.w3.org/2000/svg">
<path d="M7.82499 11.344C9.06874 11.8003 9.70936 13.1784 9.25624 14.4221C8.79999 15.6659 7.42186 16.3065 6.17811 15.8534C4.93436 15.3971 4.29374 14.019 4.74686 12.7753C4.99374 12.1034 5.52499 11.5753 6.19999 11.3378V10.5003L6.20624 10.3221C6.15936 10.1096 6.02499 9.92526 5.83749 9.81276L3.36874 8.33463C2.64374 7.90026 2.19999 7.11901 2.19999 6.27526V4.66276C0.949988 4.22213 0.293738 2.85026 0.737488 1.60026C1.18124 0.350257 2.54999 -0.305993 3.79999 0.137757C5.04999 0.581507 5.70624 1.95026 5.26249 3.20026C5.02186 3.88463 4.48436 4.42213 3.79999 4.66276V6.27526C3.79999 6.55651 3.94686 6.81588 4.19061 6.96276L6.65936 8.43776C6.78436 8.51276 6.90311 8.60026 7.01249 8.69713C7.12186 8.60026 7.24061 8.51276 7.36874 8.43776L9.83749 6.96276C10.0781 6.81901 10.2281 6.55651 10.2281 6.27526V4.67213C8.97186 4.24401 8.30311 2.87838 8.73124 1.62526C9.06249 0.656507 9.97186 0.00338185 11 0.00338185C12.325 0.00338185 13.4 1.07526 13.4 2.40026C13.4 3.40651 12.7719 4.30651 11.825 4.65338V6.27526C11.825 7.11901 11.3812 7.90026 10.6562 8.33463L8.18749 9.81276C7.99999 9.92526 7.86561 10.1096 7.81874 10.3221L7.82499 10.4971V11.344Z" fill="#8D91A5"/>
</svg>
