<svg width="14" height="14" viewBox="0 0 14 14" fill="none" xmlns="http://www.w3.org/2000/svg">
<path d="M8.16671 6.99935C8.16671 6.35502 7.64437 5.83268 7.00004 5.83268C6.35571 5.83268 5.83337 6.35502 5.83337 6.99935C5.83337 7.64368 6.35571 8.16602 7.00004 8.16602C7.64437 8.16602 8.16671 7.64368 8.16671 6.99935Z" fill="currentColor"/>
<path d="M8.16671 11.6663C8.16671 11.022 7.64437 10.4997 7.00004 10.4997C6.35571 10.4997 5.83337 11.022 5.83337 11.6663C5.83337 12.3107 6.35571 12.833 7.00004 12.833C7.64437 12.833 8.16671 12.3107 8.16671 11.6663Z" fill="currentColor"/>
<path d="M8.16671 2.33333C8.16671 1.689 7.64437 1.16667 7.00004 1.16667C6.35571 1.16667 5.83337 1.689 5.83337 2.33333C5.83337 2.97767 6.35571 3.5 7.00004 3.5C7.64437 3.5 8.16671 2.97767 8.16671 2.33333Z" fill="currentColor"/>
</svg>
