<svg width="20" height="20" viewBox="0 0 20 20" fill="none" xmlns="http://www.w3.org/2000/svg">
<path d="M17.1667 3H7.83341C7.524 3 7.22725 3.12292 7.00846 3.34171C6.78966 3.5605 6.66675 3.85725 6.66675 4.16667C6.66675 4.47609 6.78966 4.77283 7.00846 4.99162C7.22725 5.21042 7.524 5.33333 7.83341 5.33333H17.1667C17.4762 5.33333 17.7729 5.21042 17.9917 4.99162C18.2105 4.77283 18.3334 4.47609 18.3334 4.16667C18.3334 3.85725 18.2105 3.5605 17.9917 3.34171C17.7729 3.12292 17.4762 3 17.1667 3Z" fill="currentColor"/>
<path d="M3.16667 5.33333C3.811 5.33333 4.33333 4.811 4.33333 4.16667C4.33333 3.52233 3.811 3 3.16667 3C2.52233 3 2 3.52233 2 4.16667C2 4.811 2.52233 5.33333 3.16667 5.33333Z" fill="currentColor"/>
<path d="M17.1667 8.83301H7.83341C7.524 8.83301 7.22725 8.95592 7.00846 9.17472C6.78966 9.39351 6.66675 9.69026 6.66675 9.99967C6.66675 10.3091 6.78966 10.6058 7.00846 10.8246C7.22725 11.0434 7.524 11.1663 7.83341 11.1663H17.1667C17.4762 11.1663 17.7729 11.0434 17.9917 10.8246C18.2105 10.6058 18.3334 10.3091 18.3334 9.99967C18.3334 9.69026 18.2105 9.39351 17.9917 9.17472C17.7729 8.95592 17.4762 8.83301 17.1667 8.83301Z" fill="currentColor"/>
<path d="M3.16667 11.1663C3.811 11.1663 4.33333 10.644 4.33333 9.99967C4.33333 9.35534 3.811 8.83301 3.16667 8.83301C2.52233 8.83301 2 9.35534 2 9.99967C2 10.644 2.52233 11.1663 3.16667 11.1663Z" fill="currentColor"/>
<path d="M17.1667 14.667H7.83341C7.524 14.667 7.22725 14.7899 7.00846 15.0087C6.78966 15.2275 6.66675 15.5242 6.66675 15.8337C6.66675 16.1431 6.78966 16.4398 7.00846 16.6586C7.22725 16.8774 7.524 17.0003 7.83341 17.0003H17.1667C17.4762 17.0003 17.7729 16.8774 17.9917 16.6586C18.2105 16.4398 18.3334 16.1431 18.3334 15.8337C18.3334 15.5242 18.2105 15.2275 17.9917 15.0087C17.7729 14.7899 17.4762 14.667 17.1667 14.667Z" fill="currentColor"/>
<path d="M3.16667 17.0003C3.811 17.0003 4.33333 16.478 4.33333 15.8337C4.33333 15.1893 3.811 14.667 3.16667 14.667C2.52233 14.667 2 15.1893 2 15.8337C2 16.478 2.52233 17.0003 3.16667 17.0003Z" fill="currentColor"/>
</svg>
