<svg width="20" height="19" viewBox="0 0 20 19" fill="none" xmlns="http://www.w3.org/2000/svg">
<path d="M9.52427 0C6.99899 0.0023278 4.57781 1.00652 2.79216 2.79216C1.00652 4.57781 0.0023278 6.99899 0 9.52427C0.520172 22.1622 18.5284 22.1549 19.0485 9.52427C19.0462 6.99899 18.042 4.57781 16.2564 2.79216C14.4707 1.00652 12.0495 0.0023278 9.52427 0ZM3.15034 9.04073L5.42883 6.82084C5.49762 6.75398 5.57891 6.70131 5.66806 6.66586C5.7572 6.63041 5.85245 6.61286 5.94838 6.61422C6.0443 6.61558 6.13902 6.63582 6.22712 6.67379C6.31522 6.71176 6.39498 6.7667 6.46185 6.83549C6.52872 6.90429 6.58138 6.98557 6.61683 7.07472C6.65228 7.16386 6.66983 7.25911 6.66847 7.35504C6.66711 7.45096 6.64687 7.54568 6.6089 7.63378C6.57093 7.72188 6.51599 7.80164 6.4472 7.86851L4.6962 9.58288L6.27869 11.224C6.40832 11.3649 6.4777 11.5509 6.47203 11.7423C6.46635 11.9336 6.38606 12.1152 6.24831 12.2482C6.11056 12.3811 5.92627 12.455 5.73482 12.4539C5.54336 12.4528 5.35993 12.3769 5.2237 12.2423L3.13568 10.0737C3.00205 9.9341 2.92868 9.7475 2.93142 9.55424C2.93416 9.36097 3.01279 9.17653 3.15034 9.04073ZM7.50219 12.9017C7.33511 12.8026 7.21424 12.6412 7.16615 12.453C7.11806 12.2647 7.1467 12.0651 7.24577 11.898L10.5426 6.40324C10.6435 6.23972 10.8045 6.12235 10.991 6.07642C11.1776 6.03048 11.3747 6.05965 11.5399 6.15764C11.7052 6.25563 11.8253 6.4146 11.8745 6.60031C11.9236 6.78602 11.8979 6.98362 11.8028 7.15053L8.5059 12.6453C8.40651 12.8121 8.2451 12.9327 8.05699 12.9808C7.86889 13.0288 7.6694 13.0004 7.50219 12.9017ZM12.6013 11.18L14.3523 9.46566L12.7698 7.82455C12.6402 7.68365 12.5708 7.49765 12.5765 7.30628C12.5822 7.1149 12.6625 6.93334 12.8002 6.80037C12.938 6.6674 13.1223 6.59358 13.3137 6.59466C13.5052 6.59575 13.6886 6.67167 13.8248 6.80619L15.9129 8.97479C16.0465 9.11444 16.1199 9.30103 16.1171 9.4943C16.1144 9.68757 16.0357 9.87201 15.8982 10.0078L13.6197 12.2277C13.4808 12.3627 13.2939 12.4371 13.1002 12.4343C12.9064 12.4316 12.7217 12.352 12.5867 12.213C12.4516 12.0741 12.3773 11.8872 12.3801 11.6935C12.3828 11.4998 12.4624 11.3151 12.6013 11.18Z" fill="url(#paint0_linear_3913_15367)"/>
<defs>
<linearGradient id="paint0_linear_3913_15367" x1="9.52427" y1="19.0002" x2="9.52427" y2="0" gradientUnits="userSpaceOnUse">
<stop stop-color="#92FE9D"/>
<stop offset="0.999" stop-color="#00C9FF"/>
</linearGradient>
</defs>
</svg>
