<svg width="20" height="20" viewBox="0 0 20 20" fill="none" xmlns="http://www.w3.org/2000/svg">
<path d="M19.7008 12.419C18.3651 17.7762 12.9385 21.0365 7.58005 19.7006C2.22386 18.365 -1.03679 12.9387 0.299519 7.58197C1.63466 2.22419 7.06124 -1.03634 12.418 0.299234C17.7761 1.63481 21.0365 7.0617 19.7006 12.4191L19.7007 12.419H19.7008Z" fill="#F7931A"/>
<path fill-rule="evenodd" clip-rule="evenodd" d="M14.4101 8.57577C14.6091 7.24499 13.5959 6.52964 12.2103 6.05243L12.6598 4.24977L11.5623 3.97634L11.1247 5.73154C10.8362 5.65959 10.5399 5.5918 10.2454 5.52459L10.6862 3.7578L9.58942 3.48438L9.13968 5.28645C8.90093 5.2321 8.66643 5.17838 8.43892 5.12178L8.44019 5.11611L6.92677 4.73822L6.63483 5.91024C6.63483 5.91024 7.44905 6.09686 7.43189 6.10835C7.8763 6.21926 7.95667 6.51341 7.94333 6.74657L7.43131 8.80022C7.46191 8.80799 7.5016 8.81923 7.54541 8.83683L7.51358 8.82889L7.51352 8.82887C7.48645 8.8221 7.4583 8.81506 7.4294 8.80814L6.71173 11.685C6.65742 11.82 6.51956 12.0226 6.20885 11.9457C6.21985 11.9616 5.4112 11.7467 5.4112 11.7467L4.86633 13.0027L6.2945 13.3587C6.45089 13.3979 6.60545 13.4382 6.75843 13.4781L6.75853 13.4781C6.8654 13.506 6.97151 13.5336 7.07694 13.5606L6.62281 15.3839L7.71899 15.6574L8.16873 13.8534C8.4682 13.9347 8.75882 14.0097 9.04333 14.0803L8.5951 15.8758L9.69261 16.1492L10.1467 14.3293C12.0181 14.6835 13.4252 14.5407 14.0175 12.8482C14.4948 11.4855 13.9938 10.6996 13.0092 10.187C13.7263 10.0217 14.2665 9.55007 14.4105 8.57591L14.4101 8.57567L14.4101 8.57577ZM11.9026 12.0915C11.5915 13.3417 9.63435 12.8248 8.73891 12.5883C8.65836 12.567 8.5864 12.548 8.525 12.5328L9.12765 10.1172C9.20248 10.1359 9.29392 10.1564 9.39751 10.1796C10.3237 10.3875 12.2214 10.8133 11.9027 12.0915H11.9026ZM9.5833 9.05855C10.3298 9.25777 11.9584 9.69235 12.242 8.55609H12.2421C12.5318 7.39397 10.9491 7.0436 10.1761 6.87248C10.0891 6.85323 10.0124 6.83625 9.94975 6.82064L9.40337 9.01145C9.45495 9.02431 9.51549 9.04046 9.5833 9.05855Z" fill="white"/>
</svg>
