<svg width="20" height="20" viewBox="0 0 20 20" fill="none" xmlns="http://www.w3.org/2000/svg">
<path d="M7.86338 2H3.36584C2.61272 2 2 2.61272 2 3.36584V7.86338C2 8.6165 2.61272 9.22922 3.36584 9.22922H7.86338C8.6165 9.22922 9.22922 8.6165 9.22922 7.86338V3.36584C9.22922 2.61272 8.6165 2 7.86338 2ZM16.6342 2H12.1366C11.3835 2 10.7708 2.61272 10.7708 3.36584V7.86338C10.7708 8.6165 11.3835 9.22922 12.1366 9.22922H16.6342C17.3873 9.22922 18 8.6165 18 7.86338V3.36584C18 2.61272 17.3873 2 16.6342 2ZM7.86338 10.7708H3.36584C2.61272 10.7708 2 11.3835 2 12.1366V16.6342C2 17.3873 2.61272 18 3.36584 18H7.86338C8.6165 18 9.22922 17.3873 9.22922 16.6342V12.1366C9.22922 11.3835 8.6165 10.7708 7.86338 10.7708ZM16.6342 10.7708H12.1366C11.3835 10.7708 10.7708 11.3835 10.7708 12.1366V16.6342C10.7708 17.3873 11.3835 18 12.1366 18H16.6342C17.3873 18 18 17.3873 18 16.6342V12.1366C18 11.3835 17.3873 10.7708 16.6342 10.7708Z" fill="currentColor"/>
</svg>
