<svg width="18" height="20" viewBox="0 0 18 20" fill="none" xmlns="http://www.w3.org/2000/svg">
    <path d="M10.2033 13.6892C10.0193 13.7064 9.83452 13.6648 9.67554 13.5704C9.55938 13.4509 9.5037 13.285 9.52419 13.1195C9.52848 12.9817 9.5449 12.8445 9.57327 12.7096C9.60073 12.5548 9.6362 12.4016 9.67962 12.2505L10.1623 10.5864C10.2121 10.4221 10.245 10.2532 10.2605 10.0822C10.2605 9.89778 10.2851 9.77069 10.2851 9.69693C10.2953 9.36818 10.1552 9.05271 9.90462 8.84027C9.59633 8.60314 9.21243 8.48659 8.82462 8.51237C8.54671 8.51656 8.27094 8.56214 8.00643 8.64763C7.71734 8.73781 7.41323 8.84573 7.09416 8.97145L6.95508 9.5125C7.04916 9.4797 7.16373 9.44282 7.29462 9.40182C7.41949 9.36477 7.54894 9.34543 7.67916 9.34444C7.86183 9.32461 8.0457 9.36956 8.1987 9.4715C8.30262 9.59573 8.35138 9.75713 8.3337 9.91828C8.33324 10.0561 8.31816 10.1935 8.2887 10.3282C8.26004 10.4716 8.22323 10.6233 8.17823 10.7831L7.69143 12.4554C7.65219 12.6109 7.6208 12.7682 7.59735 12.9268C7.57822 13.0626 7.56866 13.1995 7.5687 13.3367C7.56669 13.6677 7.71776 13.981 7.97777 14.1851C8.29081 14.426 8.6802 14.5453 9.07412 14.5212C9.3515 14.5269 9.62794 14.4868 9.89231 14.4024C10.1241 14.3231 10.4337 14.2097 10.821 14.0622L10.9519 13.5457C10.847 13.5893 10.7389 13.6249 10.6287 13.6522C10.4893 13.6842 10.3461 13.6966 10.2033 13.6892Z" fill="currentColor"/>
    <path d="M10.7139 5.79905C10.4913 5.59419 10.1979 5.48397 9.89572 5.49165C9.5937 5.48481 9.30063 5.59493 9.07753 5.79905C8.66859 6.15235 8.62293 6.77093 8.97558 7.18069C9.00701 7.21722 9.04108 7.25135 9.07753 7.28285C9.54342 7.70036 10.248 7.70036 10.7139 7.28285C11.1228 6.92606 11.1657 6.3047 10.8096 5.89497C10.78 5.86084 10.748 5.82878 10.7139 5.79905Z" fill="currentColor"/>
    <path d="M9 0.982544C4.02943 0.982544 0 5.01979 0 10C0 14.9802 4.02943 19.0175 9 19.0175C13.9706 19.0175 18 14.9802 18 10C18 5.01979 13.9706 0.982544 9 0.982544ZM9 18.1977C4.4813 18.1977 0.818191 14.5275 0.818191 10C0.818191 5.47253 4.4813 1.80232 9 1.80232C13.5187 1.80232 17.1818 5.47253 17.1818 10C17.1818 14.5275 13.5187 18.1977 9 18.1977Z" fill="currentColor"/>
</svg>
