<svg width="18" height="18" viewBox="0 0 18 18" fill="none" xmlns="http://www.w3.org/2000/svg">
<path d="M0.856355 0.247182C0.691575 0.250287 0.534667 0.318253 0.419687 0.436328C0.304707 0.554404 0.240933 0.713061 0.242206 0.877866V17.1268C0.241577 17.2924 0.3066 17.4515 0.423038 17.5693C0.539476 17.6871 0.697837 17.7539 0.863441 17.7552H17.1171C17.2831 17.7552 17.4424 17.6892 17.5598 17.5718C17.6771 17.4544 17.7431 17.2952 17.7431 17.1292C17.7431 16.9632 17.6771 16.804 17.5598 16.6866C17.4424 16.5692 17.2831 16.5032 17.1171 16.5032H1.49176V0.877866C1.49241 0.794264 1.4763 0.711379 1.44439 0.634104C1.41248 0.556829 1.36541 0.48673 1.30596 0.427944C1.24652 0.369158 1.1759 0.322875 1.09827 0.291829C1.02064 0.260783 0.939945 0.245602 0.856355 0.247182ZM17.103 4.31001C16.9414 4.31543 16.7882 4.38315 16.6754 4.49898L10.2623 10.9121L7.5742 7.95948C7.46237 7.83786 7.30699 7.76539 7.14194 7.75787C6.97689 7.75035 6.81557 7.80838 6.69313 7.91932L2.94446 11.3538C2.8794 11.4081 2.82603 11.475 2.78758 11.5505C2.74913 11.6259 2.7264 11.7084 2.72076 11.793C2.71513 11.8775 2.72671 11.9623 2.7548 12.0422C2.7829 12.1221 2.82692 12.1955 2.8842 12.2579C2.94149 12.3203 3.01084 12.3704 3.08807 12.4052C3.16529 12.44 3.24878 12.4588 3.33347 12.4604C3.41817 12.462 3.50231 12.4464 3.5808 12.4146C3.65929 12.3827 3.73049 12.3352 3.7901 12.2751L7.07816 9.26572L9.77569 12.2373C9.83251 12.2999 9.90145 12.3504 9.97833 12.3857C10.0552 12.4209 10.1384 12.4402 10.223 12.4424C10.3075 12.4447 10.3917 12.4297 10.4703 12.3985C10.5489 12.3673 10.6204 12.3205 10.6804 12.2609L17.5541 5.38241C17.6429 5.2943 17.7032 5.18162 17.7273 5.05891C17.7514 4.9362 17.7382 4.80908 17.6894 4.69394C17.6406 4.5788 17.5584 4.48091 17.4535 4.4129C17.3485 4.34489 17.2256 4.30988 17.1006 4.31238L17.103 4.31001Z" fill="#000224" fill-opacity="0.5"/>
<path d="M0.863441 17.8552H0.862687C0.670627 17.8537 0.486967 17.7762 0.351928 17.6396C0.216934 17.5031 0.141528 17.3186 0.142206 17.1266M0.863441 17.8552L0.242206 0.877866M0.863441 17.8552H17.1171M0.863441 17.8552H17.1171M0.142206 17.1266C0.142206 17.1266 0.142207 17.1265 0.142207 17.1265L0.242206 17.1268H0.142206V17.1266ZM0.142206 17.1266V0.878238M0.142206 0.878238C0.142207 0.878372 0.142208 0.878505 0.142209 0.878638L0.242206 0.877866M0.142206 0.878238V0.877866H0.242206M0.142206 0.878238C0.140836 0.687249 0.214788 0.503406 0.348044 0.366563C0.481391 0.229625 0.663363 0.150802 0.854465 0.1472L0.242206 0.877866M17.1171 17.8552C17.3097 17.8552 17.4943 17.7787 17.6305 17.6425M17.1171 17.8552L17.6305 17.6425M17.6305 17.6425C17.7666 17.5064 17.8431 17.3217 17.8431 17.1292M17.6305 17.6425L17.8431 17.1292M17.8431 17.1292C17.8431 16.9367 17.7666 16.752 17.6305 16.6159M17.8431 17.1292L17.6305 16.6159M17.6305 16.6159C17.4943 16.4797 17.3097 16.4032 17.1171 16.4032M17.6305 16.6159L17.1171 16.4032M17.1171 16.4032H1.59176M17.1171 16.4032H1.59176M1.59176 16.4032V0.878238V0.877866V16.4032ZM17.0996 4.21007C16.9125 4.21635 16.735 4.29468 16.6043 4.42869C16.6041 4.42887 16.6039 4.42905 16.6038 4.42923L10.2657 10.7673L7.64815 7.89216L7.64781 7.89179C7.51811 7.75074 7.33791 7.6667 7.14649 7.65797C6.95508 7.64925 6.76798 7.71656 6.62599 7.84522L6.62558 7.84559L2.87857 11.2786C2.80395 11.3412 2.7427 11.4182 2.69848 11.5051C2.65388 11.5926 2.62752 11.6883 2.62099 11.7863C2.61445 11.8843 2.62788 11.9827 2.66046 12.0753C2.69304 12.168 2.7441 12.2531 2.81053 12.3255C2.87697 12.3979 2.95741 12.456 3.04697 12.4964C3.13653 12.5368 3.23335 12.5586 3.33158 12.5604C3.4298 12.5623 3.52738 12.5442 3.61841 12.5072C3.70865 12.4706 3.79059 12.4162 3.85936 12.3472L7.0716 9.40728L9.70162 12.3044C9.70163 12.3045 9.70164 12.3045 9.70165 12.3045C9.76755 12.3771 9.84748 12.4357 9.93663 12.4765C10.0258 12.5174 10.1223 12.5399 10.2204 12.5424C10.3184 12.545 10.416 12.5276 10.5072 12.4914C10.5983 12.4553 10.6812 12.401 10.7508 12.3318L10.7511 12.3316L17.6246 5.45338C17.7275 5.35119 17.7975 5.22051 17.8254 5.0782C17.8534 4.93588 17.8381 4.78845 17.7815 4.65491C17.7249 4.52138 17.6296 4.40785 17.5079 4.32898C17.4475 4.28989 17.3821 4.26019 17.3138 4.24054L17.3527 4.20158L17.0996 4.21007Z" stroke="#000224" stroke-opacity="0.5" stroke-width="0.2"/>
</svg>