<svg stroke="currentColor" fill="currentColor" stroke-width="0" viewBox="0 0 16 16" icon="line-chart" aria-hidden="true" alt="" width="16" height="16" xmlns="http://www.w3.org/2000/svg">
  <mask id="path-1-outside-1_5398_17726" maskUnits="userSpaceOnUse" x="-0.00585938" y="-0.00195312" width="16" height="16" fill="black">
  <rect fill="white" x="-0.00585938" y="-0.00195312" width="16" height="16"/>
  <path fill-rule="evenodd" d="M1.48547 0.998136C1.35365 1.00062 1.22812 1.05499 1.13614 1.14945C1.04416 1.24391 0.993137 1.37084 0.994156 1.50268V14.5019C0.993652 14.6343 1.04567 14.7616 1.13882 14.8558C1.23197 14.9501 1.35866 15.0035 1.49114 15.0045H14.4941C14.6269 15.0045 14.7543 14.9518 14.8482 14.8578C14.9421 14.7639 14.9949 14.6366 14.9949 14.5037C14.9949 14.3709 14.9421 14.2436 14.8482 14.1496C14.7543 14.0557 14.6269 14.003 14.4941 14.003H1.9938V1.50268C1.99432 1.4358 1.98143 1.36949 1.9559 1.30767C1.93037 1.24585 1.89272 1.18977 1.84516 1.14275C1.7976 1.09572 1.74111 1.05869 1.67901 1.03385C1.6169 1.00902 1.55235 0.996872 1.48547 0.998136ZM14.4828 4.2484C14.3535 4.25274 14.2309 4.30691 14.1407 4.39958L9.01022 9.53008L6.85975 7.16797C6.77028 7.07068 6.64598 7.01271 6.51394 7.00669C6.38191 7.00067 6.25284 7.0471 6.1549 7.13585L3.15596 9.88346C3.10391 9.92686 3.06122 9.98037 3.03045 10.0408C2.99969 10.1011 2.98151 10.1671 2.977 10.2348C2.97249 10.3024 2.98176 10.3702 3.00423 10.4341C3.02671 10.4981 3.06193 10.5568 3.10775 10.6067C3.15358 10.6566 3.20906 10.6967 3.27084 10.7246C3.33262 10.7524 3.39941 10.7675 3.46717 10.7687C3.53493 10.77 3.60224 10.7575 3.66503 10.732C3.72782 10.7066 3.78478 10.6686 3.83247 10.6204L6.46292 8.21297L8.62094 10.5902C8.6664 10.6403 8.72155 10.6807 8.78305 10.7089C8.84455 10.7371 8.91114 10.7526 8.97878 10.7543C9.04642 10.7561 9.11372 10.7442 9.17661 10.7192C9.2395 10.6942 9.29668 10.6568 9.34469 10.6091L14.8437 5.10632C14.9147 5.03583 14.9629 4.94569 14.9822 4.84752C15.0015 4.74935 14.991 4.64766 14.9519 4.55554C14.9129 4.46343 14.8471 4.38512 14.7632 4.33071C14.6792 4.27631 14.5809 4.2483 14.4809 4.25029L14.4828 4.2484Z"/>
  </mask>
  <path fill-rule="evenodd" d="M1.48547 0.998136C1.35365 1.00062 1.22812 1.05499 1.13614 1.14945C1.04416 1.24391 0.993137 1.37084 0.994156 1.50268V14.5019C0.993652 14.6343 1.04567 14.7616 1.13882 14.8558C1.23197 14.9501 1.35866 15.0035 1.49114 15.0045H14.4941C14.6269 15.0045 14.7543 14.9518 14.8482 14.8578C14.9421 14.7639 14.9949 14.6366 14.9949 14.5037C14.9949 14.3709 14.9421 14.2436 14.8482 14.1496C14.7543 14.0557 14.6269 14.003 14.4941 14.003H1.9938V1.50268C1.99432 1.4358 1.98143 1.36949 1.9559 1.30767C1.93037 1.24585 1.89272 1.18977 1.84516 1.14275C1.7976 1.09572 1.74111 1.05869 1.67901 1.03385C1.6169 1.00902 1.55235 0.996872 1.48547 0.998136ZM14.4828 4.2484C14.3535 4.25274 14.2309 4.30691 14.1407 4.39958L9.01022 9.53008L6.85975 7.16797C6.77028 7.07068 6.64598 7.01271 6.51394 7.00669C6.38191 7.00067 6.25284 7.0471 6.1549 7.13585L3.15596 9.88346C3.10391 9.92686 3.06122 9.98037 3.03045 10.0408C2.99969 10.1011 2.98151 10.1671 2.977 10.2348C2.97249 10.3024 2.98176 10.3702 3.00423 10.4341C3.02671 10.4981 3.06193 10.5568 3.10775 10.6067C3.15358 10.6566 3.20906 10.6967 3.27084 10.7246C3.33262 10.7524 3.39941 10.7675 3.46717 10.7687C3.53493 10.77 3.60224 10.7575 3.66503 10.732C3.72782 10.7066 3.78478 10.6686 3.83247 10.6204L6.46292 8.21297L8.62094 10.5902C8.6664 10.6403 8.72155 10.6807 8.78305 10.7089C8.84455 10.7371 8.91114 10.7526 8.97878 10.7543C9.04642 10.7561 9.11372 10.7442 9.17661 10.7192C9.2395 10.6942 9.29668 10.6568 9.34469 10.6091L14.8437 5.10632C14.9147 5.03583 14.9629 4.94569 14.9822 4.84752C15.0015 4.74935 14.991 4.64766 14.9519 4.55554C14.9129 4.46343 14.8471 4.38512 14.7632 4.33071C14.6792 4.27631 14.5809 4.2483 14.4809 4.25029L14.4828 4.2484Z" />
</svg>

