<svg width="19" height="18" viewBox="0 0 19 18" fill="none" xmlns="http://www.w3.org/2000/svg">
    <path d="M18.5 9.45V15.3C18.5 16.0161 18.2155 16.7028 17.7092 17.2092C17.2028 17.7155 16.5161 18 15.8 18H3.2C2.48392 18 1.79716 17.7155 1.29081 17.2092C0.784464 16.7028 0.5 16.0161 0.5 15.3V2.7C0.5 1.98392 0.784464 1.29716 1.29081 0.790812C1.79716 0.284464 2.48392 9.03138e-09 3.2 9.03138e-09H9.05C9.16935 9.03138e-09 9.28381 0.0474107 9.3682 0.131802C9.45259 0.216193 9.5 0.330653 9.5 0.45V1.35C9.5 1.46935 9.45259 1.58381 9.3682 1.6682C9.28381 1.75259 9.16935 1.8 9.05 1.8H3.2C2.96131 1.8 2.73239 1.89482 2.5636 2.0636C2.39482 2.23239 2.3 2.46131 2.3 2.7V15.3C2.3 15.5387 2.39482 15.7676 2.5636 15.9364C2.73239 16.1052 2.96131 16.2 3.2 16.2H15.8C16.0387 16.2 16.2676 16.1052 16.4364 15.9364C16.6052 15.7676 16.7 15.5387 16.7 15.3V9.45C16.7 9.33065 16.7474 9.21619 16.8318 9.1318C16.9162 9.04741 17.0307 9 17.15 9H18.05C18.1693 9 18.2838 9.04741 18.3682 9.1318C18.4526 9.21619 18.5 9.33065 18.5 9.45ZM17.99 9.03138e-09H13.611C13.5101 -1.8971e-05 13.4115 0.0298782 13.3277 0.0859099C13.2438 0.141942 13.1784 0.22159 13.1398 0.314781C13.1012 0.407973 13.0911 0.510519 13.1108 0.609451C13.1305 0.708382 13.1791 0.799253 13.2504 0.87057L14.4854 2.106C14.5698 2.19039 14.6172 2.30485 14.6172 2.4242C14.6172 2.54354 14.5698 2.658 14.4854 2.74239L9.12776 8.1C9.04337 8.18439 8.99596 8.29885 8.99596 8.41819C8.99596 8.53754 9.04337 8.652 9.12776 8.73639L9.76406 9.37269C9.84845 9.45708 9.96291 9.50449 10.0823 9.50449C10.2016 9.50449 10.3161 9.45708 10.4004 9.37269L15.7581 4.01499C15.8425 3.9306 15.9569 3.88319 16.0763 3.88319C16.1956 3.88319 16.3101 3.9306 16.3944 4.01499L17.6293 5.24988C17.7007 5.32122 17.7916 5.3698 17.8906 5.38947C17.9895 5.40913 18.0921 5.399 18.1853 5.36036C18.2785 5.32171 18.3582 5.25629 18.4142 5.17237C18.4702 5.08844 18.5001 4.98979 18.5 4.88889V0.51003C18.5 0.374762 18.4463 0.245033 18.3506 0.149384C18.255 0.0537351 18.1252 9.03138e-09 17.99 9.03138e-09Z" fill="currentColor"/>
</svg>
