<svg width="20" height="21" viewBox="0 0 20 21" fill="none" xmlns="http://www.w3.org/2000/svg">
    <path d="M14.2174 11.0678L14.218 11.0673C14.5246 10.7533 14.5276 10.2497 14.2174 9.93211L14.2168 9.93153L11.2918 7.00642C10.9746 6.68921 10.4603 6.68926 10.1431 7.00642C9.82594 7.32358 9.82594 7.83786 10.1431 8.15505L11.6759 9.68781H6.33853C5.88996 9.68781 5.52634 10.0514 5.52634 10.5C5.52634 10.9486 5.88996 11.3122 6.33853 11.3122H11.6759L10.1431 12.845C9.8259 13.1621 9.8259 13.6764 10.1431 13.9936C10.4602 14.3107 10.9745 14.3108 11.2917 13.9936L14.2174 11.0678ZM17.7171 18.5278L17.7178 18.5286L17.7248 18.5187C17.7278 18.5144 17.7369 18.5041 17.7561 18.4849C17.7741 18.4669 17.7976 18.4444 17.8265 18.4167L17.8268 18.4163C17.8846 18.361 17.9618 18.287 18.0513 18.1946C18.2303 18.0098 18.4587 17.7514 18.6837 17.4176C19.1339 16.7495 19.57 15.7796 19.57 14.494V6.50599C19.57 5.22028 19.1335 4.2499 18.6832 3.58167C18.4582 3.24771 18.2297 2.98927 18.0508 2.8046C17.9613 2.71229 17.8842 2.63838 17.8265 2.58313L17.8253 2.58201C17.7968 2.55472 17.7737 2.53257 17.7559 2.51481C17.7367 2.49568 17.7278 2.48549 17.7248 2.48135L17.7257 2.48075L17.7171 2.47221C16.7228 1.4778 15.4003 0.93 13.994 0.93H6.00599C4.59969 0.93 3.27719 1.4778 2.28289 2.47217L2.28216 2.47144L2.27519 2.48131C2.27217 2.4856 2.26309 2.49592 2.24391 2.51511C2.2259 2.53313 2.20244 2.55561 2.17351 2.58334L2.17318 2.58365C2.1154 2.63902 2.03821 2.71302 1.94873 2.80538C1.7697 2.99015 1.54128 3.24856 1.3163 3.58243C0.866133 4.25048 0.43 5.22042 0.43 6.50599V14.494C0.43 15.7797 0.866453 16.7501 1.31677 17.4183C1.54182 17.7523 1.77028 18.0107 1.94925 18.1954C2.03871 18.2877 2.11584 18.3616 2.17354 18.4169L2.17475 18.418C2.20324 18.4453 2.22635 18.4674 2.24412 18.4852C2.26327 18.5043 2.27224 18.5145 2.27515 18.5187L2.27431 18.5192L2.28285 18.5278C3.27719 19.5222 4.59969 20.07 6.00599 20.07H13.994C15.4003 20.07 16.7228 19.5222 17.7171 18.5278ZM13.994 2.55438C14.965 2.55438 15.8776 2.93165 16.5649 3.61716C16.5849 3.64307 16.6215 3.67809 16.6622 3.71688C16.6679 3.72232 16.6738 3.72793 16.6799 3.73371C16.723 3.77474 16.7753 3.82451 16.8343 3.8839C16.9688 4.01923 17.1371 4.2037 17.3017 4.44018C17.6307 4.91274 17.9456 5.59349 17.9456 6.50599V14.494C17.9456 15.4115 17.6316 16.0909 17.3033 16.5613C17.1389 16.7968 16.9708 16.9802 16.8362 17.115C16.7783 17.173 16.7268 17.2218 16.6839 17.2624C16.6769 17.2691 16.67 17.2756 16.6634 17.2819C16.6223 17.3209 16.5855 17.3562 16.565 17.3827C15.8776 18.0683 14.965 18.4456 13.994 18.4456H6.00599C5.03497 18.4456 4.12234 18.0683 3.43498 17.3827C3.41496 17.3568 3.37845 17.3218 3.33782 17.2831C3.33213 17.2777 3.32625 17.2721 3.32019 17.2663C3.27705 17.2253 3.2247 17.1755 3.16566 17.1161C3.03121 16.9808 2.86295 16.7963 2.69831 16.5598C2.36932 16.0873 2.05438 15.4065 2.05438 14.494V6.50599C2.05438 5.58846 2.36836 4.90914 2.69673 4.43866C2.86108 4.20318 3.02917 4.01984 3.16381 3.885C3.22167 3.82706 3.27317 3.77825 3.31602 3.73763C3.32311 3.73091 3.32997 3.72441 3.33657 3.71814C3.37767 3.6791 3.41455 3.6438 3.43501 3.61725C4.12236 2.93168 5.03499 2.55438 6.00599 2.55438H13.994Z" fill="currentColor" stroke="#B4B7BD" stroke-width="0.14"/>
</svg>
