<svg width="25" height="20" viewBox="0 0 3 15" fill="none" xmlns="http://www.w3.org/2000/svg">
<path d="M3 7.49902C3 6.6706 2.32843 5.99902 1.5 5.99902C0.671573 5.99902 0 6.6706 0 7.49902C0 8.32745 0.671573 8.99902 1.5 8.99902C2.32843 8.99902 3 8.32745 3 7.49902Z" fill="#8D91A5"/>
<path d="M3 13.5C3 12.6716 2.32843 12 1.5 12C0.671573 12 0 12.6716 0 13.5C0 14.3284 0.671573 15 1.5 15C2.32843 15 3 14.3284 3 13.5Z" fill="#8D91A5"/>
<path d="M3 1.50098C3 0.672549 2.32843 0.000976562 1.5 0.000976562C0.671573 0.000976562 0 0.672549 0 1.50098C0 2.3294 0.671573 3.00098 1.5 3.00098C2.32843 3.00098 3 2.3294 3 1.50098Z" fill="#8D91A5"/>
</svg>
