<svg width="336" height="44" viewBox="0 0 336 44" fill="none" xmlns="http://www.w3.org/2000/svg">
    <g clip-path="url(#clip0_1705_9154)">
        <path d="M0 5.5C0 2.46243 2.46243 0 5.5 0H60.5C63.5376 0 66 2.46243 66 5.5V38.5C66 41.5376 63.5376 44 60.5 44H5.5C2.46243 44 0 41.5376 0 38.5V5.5Z" fill="#D8E3F3"/>
        <path d="M56.8011 13.7979H53.3435C52.2982 13.7979 51.4941 14.1195 51.0117 15.1648L44.4181 30.2014H49.0818C49.0818 30.2014 49.8859 28.1911 50.0467 27.7087C50.5292 27.7087 55.1125 27.7087 55.7558 27.7087C55.9166 28.2715 56.3187 30.121 56.3187 30.121H60.5L56.8011 13.7979ZM51.3333 24.3315C51.7353 23.3666 53.1023 19.7481 53.1023 19.7481C53.1023 19.8286 53.5043 18.7832 53.6652 18.2204L53.9868 19.6677C53.9868 19.6677 54.8713 23.6078 55.0321 24.4119H51.3333V24.3315Z" fill="#3362AB"/>
        <path d="M44.7398 24.814C44.7398 28.1911 41.6842 30.4426 36.9401 30.4426C34.9299 30.4426 33 30.0406 31.9547 29.5581L32.598 25.8593L33.1609 26.1005C34.6082 26.7438 35.5731 26.985 37.3421 26.985C38.6287 26.985 39.9956 26.5025 39.9956 25.3768C39.9956 24.6531 39.4328 24.1707 37.6638 23.3666C35.9752 22.5625 33.7237 21.2759 33.7237 18.9441C33.7237 15.7277 36.8597 13.5566 41.2822 13.5566C42.9708 13.5566 44.4182 13.8783 45.3027 14.2803L44.6594 17.8183L44.3378 17.4967C43.5337 17.1751 42.4883 16.8534 40.9606 16.8534C39.272 16.9338 38.4679 17.6575 38.4679 18.3008C38.4679 19.0245 39.4328 19.5873 40.9606 20.311C43.5337 21.5172 44.7398 22.8841 44.7398 24.814Z" fill="#3362AB"/>
        <path d="M5.5 13.9584L5.58041 13.6367H12.4956C13.4605 13.6367 14.1842 13.9584 14.4254 15.0037L15.9532 22.2405C14.4254 18.3809 10.8874 15.2449 5.5 13.9584Z" fill="#F9B50B"/>
        <path d="M25.6827 13.7982L18.6871 30.1213H13.943L9.92249 16.4517C12.8172 18.3011 15.2295 21.1958 16.114 23.2061L16.5965 24.8947L20.9386 13.7178H25.6827V13.7982Z" fill="#3362AB"/>
        <path d="M27.5322 13.7178H31.9547L29.1404 30.1213H24.7179L27.5322 13.7178Z" fill="#3362AB"/>
    </g>
    <g clip-path="url(#clip1_1705_9154)">
        <path d="M90 5.5C90 2.46243 92.4624 0 95.5 0H150.5C153.538 0 156 2.46243 156 5.5V38.5C156 41.5376 153.538 44 150.5 44H95.5C92.4624 44 90 41.5376 90 38.5V5.5Z" fill="#FDEACE"/>
        <path d="M129.886 8.97558L115.684 9.02441L116.114 35.0254L130.316 34.9766L129.886 8.97558Z" fill="#FF5F00"/>
        <path d="M116.618 22.0767C116.53 16.7883 118.899 12.0894 122.61 9.04143C119.809 6.84356 116.298 5.52191 112.492 5.53495C103.474 5.56583 96.3014 12.9946 96.4535 22.1458C96.6055 31.297 104.024 38.6758 113.042 38.6449C116.848 38.6319 120.315 37.2863 123.043 35.0695C119.232 32.0933 116.706 27.3651 116.618 22.0767Z" fill="#EB001B"/>
        <path d="M149.547 21.8543C149.699 31.0055 142.526 38.4343 133.508 38.4652C129.702 38.4782 126.191 37.1566 123.39 34.9587C127.146 31.9106 129.47 27.2118 129.382 21.9234C129.294 16.635 126.769 11.9528 122.957 8.93058C125.685 6.71378 129.152 5.36823 132.958 5.35519C141.976 5.32431 149.395 12.7491 149.547 21.8543Z" fill="#F79E1B"/>
    </g>
    <g clip-path="url(#clip2_1705_9154)">
        <path d="M180 5.5C180 2.46243 182.462 0 185.5 0H240.5C243.538 0 246 2.46243 246 5.5V38.5C246 41.5376 243.538 44 240.5 44H185.5C182.462 44 180 41.5376 180 38.5V5.5Z" fill="#D4DEF7"/>
        <path d="M228.706 13.5723L227.429 16.3875H229.99L228.706 13.5723ZM213.97 15.3168C214.211 15.2025 214.353 14.954 214.353 14.6454C214.353 14.343 214.204 14.124 213.963 14.0211C213.744 13.907 213.407 13.8938 213.083 13.8938H210.798V15.4624H213.053C213.413 15.4625 213.715 15.4576 213.97 15.3168ZM184.695 13.5723L183.433 16.3875H185.965L184.695 13.5723ZM243.479 31.6071H239.896V30.0924H243.464C243.818 30.0924 244.066 30.0503 244.215 29.9174C244.356 29.7991 244.436 29.6318 244.434 29.4569C244.434 29.2511 244.344 29.0877 244.208 28.9899C244.073 28.8821 243.877 28.833 243.554 28.833C241.812 28.7791 239.638 28.8819 239.638 26.6467C239.638 25.6223 240.353 24.544 242.3 24.544H245.996V23.1386H242.563C241.526 23.1386 240.773 23.3644 240.24 23.7155V23.1386H235.161C234.349 23.1386 233.396 23.3217 232.945 23.7155V23.1386H223.875V23.7155C223.153 23.2418 221.935 23.1386 221.373 23.1386H215.391V23.7155C214.82 23.2124 213.55 23.1386 212.776 23.1386H206.08L204.549 24.647L203.114 23.1386H193.112V32.9952H202.925L204.503 31.4625L205.991 32.9952L212.039 33V30.6814H212.634C213.437 30.6931 214.383 30.6634 215.219 30.335V32.9949H220.208V30.4258H220.448C220.755 30.4258 220.786 30.4375 220.786 30.7167V32.9943H235.942C236.905 32.9943 237.911 32.7705 238.468 32.3634V32.9943H243.275C244.276 32.9943 245.253 32.8667 245.996 32.5401V30.704C245.546 31.3035 244.667 31.6075 243.479 31.6075L243.479 31.6071ZM212.714 29.2798H210.398V31.6489H206.792L204.508 29.3108L202.133 31.6489H194.784V24.5856H202.246L204.529 26.9009L206.889 24.5856H212.818C214.29 24.5856 215.944 24.9565 215.944 26.9126C215.944 28.8747 214.335 29.2798 212.714 29.2798ZM223.846 28.9595C224.108 29.3043 224.146 29.6261 224.153 30.2488V31.649H222.29V30.7654C222.29 30.3405 222.336 29.7112 221.991 29.3828C221.72 29.1298 221.306 29.0694 220.629 29.0694H218.646V31.649H216.782V24.5857H221.066C222.005 24.5857 222.689 24.6237 223.298 24.9189C223.884 25.2408 224.252 25.6817 224.252 26.4875C224.252 27.6148 223.426 28.1899 222.937 28.3666C223.35 28.5052 223.687 28.7537 223.846 28.9595ZM231.51 26.0464H227.165V27.3305H231.404V28.7717H227.165V30.177L231.51 30.1833V31.6489H225.318V24.5856H231.51V26.0464ZM236.278 31.6489H232.664V30.1342H236.263C236.615 30.1342 236.865 30.0919 237.021 29.9592C237.149 29.85 237.241 29.6912 237.241 29.4989C237.241 29.2929 237.141 29.1294 237.014 29.0314C236.872 28.9238 236.676 28.875 236.353 28.875C234.618 28.8208 232.445 28.9236 232.445 26.6886C232.445 25.664 233.153 24.5857 235.098 24.5857H238.818V26.0888H235.414C235.077 26.0888 234.857 26.1006 234.671 26.2167C234.467 26.3311 234.392 26.5007 234.392 26.7247C234.392 26.9911 234.565 27.1725 234.798 27.2508C234.994 27.3128 235.204 27.3309 235.52 27.3309L236.519 27.3557C237.526 27.3776 238.217 27.5365 238.638 27.9236C238.999 28.2636 239.193 28.6931 239.193 29.42C239.192 30.9395 238.149 31.6489 236.278 31.6489ZM221.888 26.1603C221.664 26.0392 221.333 26.0327 221.003 26.0327H218.718V27.619H220.972C221.333 27.619 221.64 27.6074 221.888 27.4735C222.128 27.3412 222.272 27.0976 222.272 26.7955C222.272 26.4934 222.128 26.2747 221.888 26.1603ZM242.618 26.0326C242.281 26.0326 242.056 26.0442 241.867 26.1602C241.671 26.2747 241.596 26.4443 241.596 26.6684C241.596 26.9347 241.762 27.1161 242.002 27.1946C242.198 27.2565 242.408 27.2746 242.717 27.2746L243.723 27.299C244.737 27.3219 245.415 27.4807 245.828 27.8678C245.903 27.9215 245.948 27.9819 246 28.0425V26.0327H242.618L242.618 26.0326ZM212.778 26.0326H210.359V27.8316H212.756C213.469 27.8316 213.912 27.5097 213.913 26.8987C213.912 26.281 213.448 26.0326 212.778 26.0326ZM196.632 26.0326V27.3168H200.705V28.758H196.632V30.1632H201.194L203.313 28.0911L201.284 26.0326H196.632ZM208.544 30.972V25.3092L205.695 28.0951L208.544 30.972ZM196.788 19.6315V20.8486H212.289L212.282 18.2739H212.582C212.792 18.2805 212.853 18.2981 212.853 18.6136V20.8486H220.87V20.2492C221.517 20.5645 222.522 20.8486 223.846 20.8486H227.219L227.941 19.2802H229.541L230.247 20.8486H236.746V19.3587L237.73 20.8486H242.939V11H237.785V12.1631L237.063 11H231.774V12.1631L231.111 11H223.966C222.77 11 221.719 11.1518 220.87 11.5751V11H215.939V11.5751C215.399 11.1388 214.663 11 213.844 11H195.832L194.623 13.5438L193.382 11H187.709V12.1631L187.085 11H182.247L180 15.6828V19.4285L183.322 12.3667H186.079L189.235 19.0527V12.3667H192.263L194.691 17.1572L196.922 12.3667H200.011V19.4285H198.109L198.102 13.8978L195.412 19.4285H193.783L191.085 13.8929V19.4285H187.311L186.598 17.8533H182.735L182.015 19.4285H180V20.8491H183.17L183.885 19.2806H185.485L186.198 20.8491H192.436V19.6498L192.992 20.8541H196.23L196.787 19.6317L196.788 19.6315ZM221.214 13.1899C221.814 12.6262 222.753 12.3663 224.032 12.3663H225.828V13.8794H224.069C223.393 13.8794 223.01 13.971 222.642 14.2979C222.325 14.5951 222.108 15.1572 222.108 15.8974C222.108 16.654 222.274 17.1994 222.618 17.5557C222.904 17.8352 223.423 17.9199 223.912 17.9199H224.745L227.36 12.3666H230.14L233.281 19.0459V12.3666H236.106L239.368 17.2847V12.3666H241.268V19.4282H238.639L235.122 14.128V19.4282H231.344L230.622 17.853H226.767L226.067 19.4282H223.896C222.994 19.4282 221.852 19.2467 221.205 18.647C220.553 18.0475 220.214 17.2353 220.214 15.9513C220.214 14.9038 220.416 13.9465 221.214 13.1899ZM217.398 12.3664H219.291V19.4282H217.398V12.3664ZM208.863 12.3664H213.13C214.078 12.3664 214.777 12.3893 215.377 12.7047C215.964 13.0201 216.316 13.4806 216.316 14.2681C216.316 15.3942 215.489 15.9758 215.008 16.1505C215.414 16.2911 215.761 16.5395 215.926 16.7451C216.188 17.0964 216.234 17.4102 216.234 18.0408V19.4281H214.362L214.355 18.5375C214.355 18.1125 214.4 17.5014 214.062 17.1619C213.791 16.9136 213.378 16.8596 212.71 16.8596H210.718V19.4282H208.863L208.863 12.3664ZM201.383 12.3664H207.581V13.8369H203.239V15.1098H207.477V16.5574H203.239V17.9677H207.581V19.4281H201.383V12.3664Z" fill="#2557D6"/>
    </g>
    <g clip-path="url(#clip3_1705_9154)">
        <path d="M270 5.5C270 2.46243 272.462 0 275.5 0H330.5C333.538 0 336 2.46243 336 5.5V38.5C336 41.5376 333.538 44 330.5 44H275.5C272.462 44 270 41.5376 270 38.5V5.5Z" fill="#CCDEFF"/>
        <path d="M284.81 15.8365C284.121 15.3625 283.221 15.125 282.111 15.125H277.815C277.474 15.125 277.286 15.2951 277.251 15.6351L275.505 26.5909C275.487 26.6985 275.514 26.7969 275.586 26.8864C275.657 26.976 275.747 27.0206 275.854 27.0206H277.895C278.253 27.0206 278.45 26.8508 278.486 26.5105L278.969 23.5568C278.987 23.4137 279.05 23.2973 279.157 23.2076C279.265 23.1182 279.399 23.0597 279.56 23.0329C279.721 23.0063 279.873 22.9928 280.017 22.9928C280.16 22.9928 280.33 23.002 280.527 23.0198C280.724 23.0376 280.849 23.0464 280.903 23.0464C282.442 23.0464 283.651 22.6126 284.528 21.744C285.405 20.876 285.844 19.6722 285.844 18.1323C285.844 17.0761 285.499 16.3109 284.81 15.8362V15.8365ZM282.595 19.1261C282.505 19.7528 282.272 20.1643 281.897 20.3613C281.521 20.5586 280.983 20.6567 280.285 20.6567L279.399 20.6835L279.856 17.8102C279.891 17.6134 280.008 17.515 280.205 17.515H280.715C281.431 17.515 281.95 17.6181 282.273 17.8236C282.595 18.0297 282.702 18.4639 282.595 19.1261Z" fill="#003087"/>
        <path d="M330.151 15.125H328.164C327.966 15.125 327.85 15.2235 327.815 15.4206L326.069 26.5914L326.042 26.6451C326.042 26.735 326.078 26.8197 326.15 26.9003C326.221 26.9807 326.311 27.021 326.418 27.021H328.191C328.53 27.021 328.718 26.8513 328.755 26.5109L330.5 15.528V15.5013C330.5 15.2506 330.383 15.1253 330.151 15.1253V15.125Z" fill="#009CDE"/>
        <path d="M306.144 19.4492C306.144 19.3599 306.108 19.2747 306.037 19.1943C305.965 19.1138 305.885 19.0732 305.796 19.0732H303.728C303.531 19.0732 303.369 19.1632 303.244 19.3417L300.398 23.5309L299.217 19.503C299.127 19.2168 298.93 19.0732 298.626 19.0732H296.612C296.522 19.0732 296.441 19.1136 296.37 19.1943C296.298 19.2747 296.263 19.36 296.263 19.4492C296.263 19.4852 296.437 20.0131 296.786 21.0335C297.135 22.0542 297.511 23.1552 297.914 24.3368C298.317 25.5182 298.527 26.1451 298.545 26.2161C297.077 28.2214 296.343 29.2955 296.343 29.4385C296.343 29.6714 296.459 29.7876 296.692 29.7876H298.76C298.957 29.7876 299.118 29.6983 299.243 29.5192L306.091 19.637C306.127 19.6016 306.144 19.5392 306.144 19.4491V19.4492Z" fill="#003087"/>
        <path d="M325.398 19.0727H323.357C323.106 19.0727 322.955 19.3682 322.901 19.9591C322.435 19.2432 321.585 18.8848 320.35 18.8848C319.061 18.8848 317.964 19.3682 317.06 20.3349C316.156 21.3016 315.704 22.4388 315.704 23.7455C315.704 24.8019 316.013 25.6432 316.631 26.2695C317.248 26.8965 318.076 27.2094 319.115 27.2094C319.634 27.2094 320.162 27.1018 320.699 26.8872C321.236 26.6724 321.656 26.3861 321.961 26.0279C321.961 26.0459 321.943 26.1261 321.908 26.2693C321.871 26.4128 321.854 26.5205 321.854 26.5915C321.854 26.8783 321.97 27.0211 322.203 27.0211H324.056C324.396 27.0211 324.593 26.8514 324.646 26.511L325.747 19.5023C325.765 19.3948 325.738 19.2966 325.667 19.2069C325.595 19.1176 325.505 19.0727 325.398 19.0727ZM321.894 24.363C321.437 24.8106 320.887 25.0342 320.242 25.0342C319.723 25.0342 319.303 24.8913 318.98 24.6047C318.658 24.3189 318.497 23.925 318.497 23.4231C318.497 22.7612 318.721 22.2013 319.168 21.7449C319.615 21.2884 320.171 21.0602 320.833 21.0602C321.334 21.0602 321.75 21.2078 322.082 21.5031C322.413 21.7986 322.579 22.2058 322.579 22.7251C322.579 23.3695 322.35 23.9157 321.894 24.363Z" fill="#009CDE"/>
        <path d="M294.893 19.0727H292.852C292.601 19.0727 292.449 19.3682 292.396 19.9591C291.912 19.2432 291.062 18.8848 289.844 18.8848C288.556 18.8848 287.459 19.3682 286.555 20.3349C285.651 21.3016 285.199 22.4388 285.199 23.7455C285.199 24.8019 285.508 25.6432 286.125 26.2695C286.743 26.8965 287.571 27.2094 288.609 27.2094C289.11 27.2094 289.63 27.1018 290.167 26.8872C290.704 26.6724 291.133 26.3861 291.456 26.0279C291.384 26.2425 291.348 26.4306 291.348 26.5915C291.348 26.8783 291.465 27.0211 291.697 27.0211H293.55C293.89 27.0211 294.087 26.8514 294.141 26.511L295.242 19.5023C295.259 19.3948 295.233 19.2966 295.161 19.2069C295.09 19.1176 295 19.0727 294.893 19.0727ZM291.389 24.3763C290.932 24.8154 290.372 25.0342 289.71 25.0342C289.191 25.0342 288.775 24.8913 288.462 24.6047C288.148 24.3189 287.992 23.925 287.992 23.4231C287.992 22.7612 288.215 22.2013 288.663 21.7449C289.11 21.2884 289.665 21.0601 290.328 21.0601C290.829 21.0601 291.245 21.2078 291.577 21.5031C291.908 21.7986 292.073 22.2058 292.073 22.7251C292.073 23.3875 291.845 23.9382 291.389 24.3763Z" fill="#003087"/>
        <path d="M315.315 15.8365C314.626 15.3625 313.726 15.125 312.616 15.125H308.347C307.988 15.125 307.791 15.2951 307.756 15.6351L306.01 26.5909C305.992 26.6985 306.019 26.7969 306.091 26.8864C306.162 26.976 306.252 27.0206 306.359 27.0206H308.561C308.776 27.0206 308.919 26.9044 308.991 26.6716L309.474 23.5568C309.492 23.4137 309.555 23.2973 309.662 23.2076C309.77 23.1182 309.904 23.0597 310.065 23.0329C310.226 23.0063 310.378 22.9928 310.522 22.9928C310.665 22.9928 310.835 23.002 311.032 23.0198C311.229 23.0376 311.354 23.0464 311.408 23.0464C312.947 23.0464 314.156 22.6126 315.033 21.744C315.91 20.876 316.349 19.6722 316.349 18.1323C316.349 17.0761 316.004 16.3108 315.315 15.8362V15.8365ZM312.563 20.2538C312.169 20.5223 311.578 20.6565 310.79 20.6565L309.931 20.6834L310.387 17.81C310.423 17.6134 310.539 17.5147 310.736 17.5147H311.22C311.614 17.5147 311.927 17.5327 312.16 17.5684C312.392 17.6043 312.616 17.716 312.831 17.9039C313.046 18.092 313.153 18.3651 313.153 18.723C313.153 19.4751 312.956 19.9851 312.563 20.2538Z" fill="#009CDE"/>
    </g>
    <defs>
        <clipPath id="clip0_1705_9154">
            <rect width="66" height="44" fill="white"/>
        </clipPath>
        <clipPath id="clip1_1705_9154">
            <rect width="66" height="44" fill="white" transform="translate(90)"/>
        </clipPath>
        <clipPath id="clip2_1705_9154">
            <rect width="66" height="44" fill="white" transform="translate(180)"/>
        </clipPath>
        <clipPath id="clip3_1705_9154">
            <rect width="66" height="44" fill="white" transform="translate(270)"/>
        </clipPath>
    </defs>
</svg>
