<svg width="13" height="13" viewBox="0 0 13 13" fill="none" xmlns="http://www.w3.org/2000/svg">
<path fill-rule="evenodd" clip-rule="evenodd" d="M3.46667 0C1.55198 0 0 1.55198 0 3.46667V9.53333C0 11.448 1.55198 13 3.46667 13H9.53333C11.448 13 13 11.448 13 9.53333V3.46667C13 1.55198 11.448 0 9.53333 0H3.46667ZM5.63333 6.5C5.63335 6.56076 5.62059 6.62084 5.59588 6.67634C5.57116 6.73185 5.53506 6.78154 5.4899 6.82218L3.32323 8.77218C3.28092 8.81025 3.23153 8.83962 3.17787 8.8586C3.12421 8.87758 3.06734 8.88581 3.01051 8.88281C2.95367 8.87981 2.89798 8.86565 2.84661 8.84113C2.79525 8.81661 2.74922 8.78221 2.71115 8.7399C2.67308 8.69759 2.64372 8.6482 2.62473 8.59454C2.60575 8.54088 2.59753 8.48401 2.60053 8.42717C2.60352 8.37034 2.61769 8.31464 2.64221 8.26328C2.66673 8.21192 2.70112 8.16589 2.74343 8.12782L4.55217 6.5L2.74343 4.87218C2.65798 4.7953 2.60658 4.68762 2.60053 4.57283C2.59447 4.45804 2.63426 4.34555 2.71115 4.2601C2.78804 4.17465 2.89572 4.12325 3.01051 4.11719C3.12529 4.11114 3.23778 4.15093 3.32323 4.22782L5.4899 6.17782C5.53506 6.21846 5.57116 6.26815 5.59588 6.32366C5.62059 6.37916 5.63335 6.43924 5.63333 6.5ZM9.96667 8.88333C10.0816 8.88333 10.1918 8.83768 10.2731 8.75641C10.3543 8.67515 10.4 8.56493 10.4 8.45C10.4 8.33507 10.3543 8.22485 10.2731 8.14359C10.1918 8.06232 10.0816 8.01667 9.96667 8.01667H6.5C6.38507 8.01667 6.27485 8.06232 6.19359 8.14359C6.11232 8.22485 6.06667 8.33507 6.06667 8.45C6.06667 8.56493 6.11232 8.67515 6.19359 8.75641C6.27485 8.83768 6.38507 8.88333 6.5 8.88333H9.96667Z" fill="#8D91A5"/>
</svg>
