<svg width="12" height="12" viewBox="0 0 12 12" fill="none" xmlns="http://www.w3.org/2000/svg">
<path d="M11.4 5.34V1.26C11.4 0.36 11.016 0 10.062 0H7.638C6.684 0 6.3 0.36 6.3 1.26V5.34C6.3 6.24 6.684 6.6 7.638 6.6H10.062C11.016 6.6 11.4 6.24 11.4 5.34ZM5.1 6.66V10.74C5.1 11.64 4.716 12 3.762 12H1.338C0.384 12 0 11.64 0 10.74V6.66C0 5.76 0.384 5.4 1.338 5.4H3.762C4.716 5.4 5.1 5.76 5.1 6.66ZM11.4 10.74V9.06C11.4 8.16 11.016 7.8 10.062 7.8H7.638C6.684 7.8 6.3 8.16 6.3 9.06V10.74C6.3 11.64 6.684 12 7.638 12H10.062C11.016 12 11.4 11.64 11.4 10.74ZM5.1 2.94V1.26C5.1 0.36 4.716 0 3.762 0H1.338C0.384 0 0 0.36 0 1.26V2.94C0 3.84 0.384 4.2 1.338 4.2H3.762C4.716 4.2 5.1 3.84 5.1 2.94Z" fill="#8D91A5"/>
</svg>
