<svg width="143" height="140" viewBox="0 0 143 140" fill="none" xmlns="http://www.w3.org/2000/svg">
    <path d="M90.913 32.0345H52.749C51.8793 32.0355 51.0455 32.3809 50.4306 32.9947C49.8156 33.6086 49.4697 34.4408 49.4686 35.3089V119.975L49.0312 120.109L39.669 122.97C39.2253 123.105 38.746 123.059 38.3364 122.842C37.9268 122.625 37.6204 122.254 37.4843 121.811L9.63591 31.0107C9.50039 30.5678 9.54658 30.0893 9.76433 29.6803C9.98209 29.2714 10.3536 28.9655 10.7972 28.8299L25.2244 24.4203L67.0493 11.6412L81.4764 7.23158C81.696 7.16413 81.9267 7.14056 82.1554 7.16222C82.3841 7.18388 82.6063 7.25034 82.8092 7.3578C83.0121 7.46527 83.1918 7.61162 83.338 7.78849C83.4842 7.96536 83.5941 8.16927 83.6612 8.38855L90.7796 31.5979L90.913 32.0345Z" fill="#1A203B"/>
    <path d="M99.2412 31.5977L90.6619 3.62517C90.5191 3.1591 90.2858 2.72566 89.9752 2.34964C89.6646 1.97362 89.2828 1.66238 88.8516 1.4337C88.4204 1.20503 87.9483 1.0634 87.4623 1.01691C86.9763 0.970427 86.4858 1.02 86.019 1.16278L65.7353 7.36023L23.9126 20.1415L3.62882 26.3412C2.68655 26.63 1.89757 27.2802 1.43506 28.1491C0.972559 29.0179 0.874317 30.0345 1.1619 30.9756L30.4842 126.574C30.7179 127.334 31.1892 127.999 31.8292 128.472C32.4692 128.944 33.2441 129.2 34.0402 129.201C34.4087 129.201 34.7751 129.145 35.1271 129.037L49.0316 124.789L49.4689 124.653V124.197L49.0316 124.33L34.9981 128.62C34.1663 128.873 33.268 128.786 32.5001 128.379C31.7322 127.972 31.1575 127.277 30.902 126.448L1.58188 30.8468C1.45528 30.4357 1.41116 30.0038 1.45204 29.5757C1.49291 29.1475 1.61799 28.7317 1.82011 28.3519C2.02223 27.9721 2.29742 27.6358 2.62992 27.3623C2.96242 27.0888 3.3457 26.8835 3.75781 26.7581L24.0416 20.5585L65.8644 7.77937L86.1481 1.57973C86.4607 1.48451 86.7857 1.43596 87.1125 1.43566C87.8139 1.43723 88.4963 1.66294 89.0599 2.07973C89.6234 2.49651 90.0385 3.08248 90.2442 3.75179L98.7841 31.5978L98.9198 32.0343H99.3746L99.2412 31.5977Z" fill="#465065" stroke="#465065" stroke-width="0.4"/>
    <path d="M27.8279 28.9011C27.4064 28.9008 26.996 28.7657 26.6571 28.5156C26.3182 28.2655 26.0685 27.9135 25.9446 27.5113L23.1278 18.3272C23.0521 18.0805 23.0258 17.8213 23.0505 17.5645C23.0751 17.3076 23.1503 17.0582 23.2715 16.8303C23.3928 16.6025 23.5578 16.4007 23.7572 16.2365C23.9566 16.0723 24.1865 15.949 24.4336 15.8735L62.9102 4.11517C63.4093 3.96313 63.9485 4.01498 64.4094 4.25935C64.8703 4.50371 65.2152 4.92061 65.3685 5.41856L68.1853 14.6028C68.3375 15.101 68.2855 15.6392 68.0407 16.0992C67.7959 16.5592 67.3783 16.9036 66.8796 17.0566L28.4029 28.8149C28.2166 28.872 28.0228 28.9011 27.8279 28.9011Z" fill="url(#paint0_linear_679_2706)"/>
    <path d="M42.5838 10.8118C44.9994 10.8118 46.9577 8.85714 46.9577 6.4459C46.9577 4.03465 44.9994 2.07996 42.5838 2.07996C40.1682 2.07996 38.21 4.03465 38.21 6.4459C38.21 8.85714 40.1682 10.8118 42.5838 10.8118Z" fill="url(#paint1_linear_679_2706)"/>
    <path d="M42.5836 9.21045C44.1133 9.21045 45.3533 7.97267 45.3533 6.4458C45.3533 4.91893 44.1133 3.68115 42.5836 3.68115C41.054 3.68115 39.814 4.91893 39.814 6.4458C39.814 7.97267 41.054 9.21045 42.5836 9.21045Z" fill="#1A203B"/>
    <path d="M132.791 128.085H58.8726C58.3797 128.085 57.9072 127.889 57.5587 127.541C57.2103 127.193 57.0142 126.721 57.0137 126.23V37.8193C57.0142 37.3273 57.2102 36.8557 57.5587 36.5078C57.9072 36.16 58.3797 35.9643 58.8726 35.9637H132.791C133.283 35.9643 133.756 36.16 134.104 36.5078C134.453 36.8557 134.649 37.3273 134.65 37.8193V126.23C134.649 126.721 134.453 127.193 134.104 127.541C133.756 127.889 133.283 128.084 132.791 128.085Z" fill="#242B45"/>
    <path d="M98.7843 31.5979H52.7495C51.7639 31.5993 50.8191 31.9907 50.1222 32.6864C49.4253 33.382 49.0331 34.3251 49.0317 35.3089V124.33L49.4691 124.197V35.3089C49.4702 34.4408 49.8161 33.6086 50.4311 32.9947C51.0461 32.3809 51.8798 32.0356 52.7495 32.0345H98.9199L98.7843 31.5979ZM138.914 31.5979H52.7495C51.7639 31.5993 50.8191 31.9907 50.1222 32.6864C49.4253 33.382 49.0331 34.3251 49.0317 35.3089V135.289C49.0331 136.273 49.4253 137.216 50.1222 137.912C50.8191 138.607 51.7639 138.999 52.7495 139H138.914C139.9 138.999 140.845 138.607 141.542 137.912C142.239 137.216 142.631 136.273 142.632 135.289V35.3089C142.631 34.3251 142.239 33.382 141.542 32.6864C140.845 31.9907 139.9 31.5993 138.914 31.5979ZM142.195 135.289C142.194 136.157 141.848 136.989 141.233 137.603C140.618 138.217 139.784 138.562 138.914 138.563H52.7495C51.8798 138.562 51.0461 138.217 50.4311 137.603C49.8161 136.989 49.4702 136.157 49.4691 135.289V35.3089C49.4702 34.4408 49.8161 33.6086 50.4311 32.9947C51.0461 32.3809 51.8798 32.0356 52.7495 32.0345H138.914C139.784 32.0356 140.618 32.3809 141.233 32.9947C141.848 33.6086 142.194 34.4408 142.195 35.3089V135.289Z" fill="#465065" stroke="#465065" stroke-width="0.4"/>
    <path d="M115.952 41.203H75.7124C75.1905 41.2024 74.6903 40.9952 74.3213 40.6269C73.9523 40.2586 73.7447 39.7592 73.7441 39.2383V29.6333C73.7447 29.1124 73.9523 28.613 74.3213 28.2447C74.6903 27.8763 75.1905 27.6692 75.7124 27.6686H115.952C116.474 27.6692 116.974 27.8763 117.343 28.2447C117.712 28.613 117.919 29.1124 117.92 29.6333V39.2383C117.919 39.7592 117.712 40.2586 117.343 40.6269C116.974 40.9952 116.474 41.2024 115.952 41.203Z" fill="url(#paint2_linear_679_2706)"/>
    <path d="M95.8319 28.3233C98.2475 28.3233 100.206 26.3686 100.206 23.9574C100.206 21.5461 98.2475 19.5914 95.8319 19.5914C93.4162 19.5914 91.458 21.5461 91.458 23.9574C91.458 26.3686 93.4162 28.3233 95.8319 28.3233Z" fill="url(#paint3_linear_679_2706)"/>
    <path d="M95.8321 26.6169C97.3034 26.6169 98.4961 25.4263 98.4961 23.9576C98.4961 22.4889 97.3034 21.2983 95.8321 21.2983C94.3607 21.2983 93.168 22.4889 93.168 23.9576C93.168 25.4263 94.3607 26.6169 95.8321 26.6169Z" fill="#1A203B"/>
    <defs>
        <linearGradient id="paint0_linear_679_2706" x1="57.8973" y1="4.02953" x2="29.7431" y2="5.05826" gradientUnits="userSpaceOnUse">
            <stop stop-color="#226CFF"/>
            <stop offset="1" stop-color="#1084FF"/>
        </linearGradient>
        <linearGradient id="paint1_linear_679_2706" x1="44.9513" y1="2.07995" x2="39.501" y2="2.18966" gradientUnits="userSpaceOnUse">
            <stop stop-color="#226CFF"/>
            <stop offset="1" stop-color="#1084FF"/>
        </linearGradient>
        <linearGradient id="paint2_linear_679_2706" x1="107.788" y1="27.6686" x2="80.3709" y2="29.4667" gradientUnits="userSpaceOnUse">
            <stop stop-color="#226CFF"/>
            <stop offset="1" stop-color="#1084FF"/>
        </linearGradient>
        <linearGradient id="paint3_linear_679_2706" x1="98.1994" y1="19.5914" x2="92.7491" y2="19.7011" gradientUnits="userSpaceOnUse">
            <stop stop-color="#226CFF"/>
            <stop offset="1" stop-color="#1084FF"/>
        </linearGradient>
    </defs>
</svg>
