<svg width="156" height="152" viewBox="0 0 156 152" fill="none" xmlns="http://www.w3.org/2000/svg">
<path d="M98.732 34.7345H57.2499C56.3046 34.7357 55.3983 35.111 54.7299 35.7782C54.0615 36.4454 53.6854 37.3501 53.6843 38.2937V130.321L53.2089 130.466L43.0327 133.577C42.5504 133.724 42.0295 133.673 41.5843 133.437C41.139 133.201 40.8059 132.798 40.658 132.317L10.3884 33.6217C10.2411 33.1403 10.2913 32.6202 10.528 32.1757C10.7647 31.7312 11.1685 31.3987 11.6506 31.2513L27.3322 26.4583L72.7936 12.5681L88.475 7.77515C88.7136 7.70184 88.9644 7.67622 89.213 7.69976C89.4616 7.7233 89.7031 7.79555 89.9236 7.91235C90.1442 8.02916 90.3396 8.18824 90.4985 8.38048C90.6574 8.57273 90.7767 8.79437 90.8497 9.03272L98.5871 34.26L98.732 34.7345Z" fill="#30384E"/>
<path d="M107.784 34.2599L98.4586 3.85531C98.3035 3.34871 98.0498 2.87759 97.7122 2.46888C97.3746 2.06016 96.9596 1.72186 96.4909 1.4733C96.0223 1.22475 95.5092 1.0708 94.9809 1.02028C94.4526 0.969748 93.9195 1.02363 93.4121 1.17883L71.3648 7.91511L25.9059 21.8077L3.8586 28.5463C2.8344 28.8602 1.97683 29.567 1.47411 30.5114C0.971394 31.4558 0.86461 32.5608 1.1772 33.5837L33.0489 137.494C33.3028 138.32 33.8152 139.043 34.5109 139.556C35.2065 140.07 36.0488 140.348 36.9141 140.349C37.3146 140.349 37.7128 140.289 38.0954 140.171L53.2088 135.553L53.6842 135.406V134.91L53.2088 135.055L37.9552 139.717C37.0512 139.993 36.0747 139.898 35.2401 139.456C34.4054 139.013 33.7807 138.258 33.503 137.357L1.6337 33.4437C1.49609 32.9969 1.44812 32.5274 1.49256 32.062C1.53699 31.5967 1.67294 31.1447 1.89264 30.7318C2.11233 30.319 2.41145 29.9535 2.77286 29.6563C3.13426 29.359 3.55087 29.1358 3.99881 28.9995L26.0461 22.2608L71.5051 8.37068L93.5524 1.63203C93.8922 1.52853 94.2454 1.47576 94.6006 1.47543C95.363 1.47713 96.1048 1.72247 96.7173 2.17549C97.3299 2.62852 97.781 3.26543 98.0047 3.99293L107.287 34.2599L107.434 34.7345H107.929L107.784 34.2599Z" fill="#69758C" stroke="#69758C" stroke-width="0.4"/>
<path d="M30.162 31.3289C29.7038 31.3286 29.2578 31.1817 28.8894 30.9098C28.521 30.6379 28.2496 30.2554 28.115 29.8182L25.0533 19.8356C24.971 19.5674 24.9424 19.2857 24.9692 19.0066C24.996 18.7274 25.0777 18.4562 25.2095 18.2086C25.3413 17.9609 25.5207 17.7416 25.7374 17.5631C25.9542 17.3847 26.204 17.2506 26.4726 17.1685L68.2945 4.38793C68.837 4.22268 69.4231 4.27904 69.924 4.54465C70.425 4.81025 70.7999 5.2634 70.9665 5.80464L74.0282 15.7874C74.1937 16.329 74.1372 16.9139 73.8711 17.4139C73.605 17.9139 73.1511 18.2882 72.609 18.4546L30.787 31.2352C30.5845 31.2972 30.3738 31.3288 30.162 31.3289Z" fill="#6C63FF"/>
<path d="M46.2007 11.6667C48.8263 11.6667 50.9548 9.54201 50.9548 6.92113C50.9548 4.30024 48.8263 2.1756 46.2007 2.1756C43.575 2.1756 41.4465 4.30024 41.4465 6.92113C41.4465 9.54201 43.575 11.6667 46.2007 11.6667Z" fill="#6C63FF"/>
<path d="M46.2006 9.92617C47.8633 9.92617 49.2111 8.58078 49.2111 6.92115C49.2111 5.26153 47.8633 3.91614 46.2006 3.91614C44.538 3.91614 43.1902 5.26153 43.1902 6.92115C43.1902 8.58078 44.538 9.92617 46.2006 9.92617Z" fill="#30384E"/>
<path d="M144.251 139.136H63.9058C63.3701 139.136 62.8565 138.923 62.4777 138.545C62.0989 138.167 61.8859 137.654 61.8853 137.119V41.0223C61.8859 40.4876 62.0989 39.975 62.4777 39.5969C62.8565 39.2188 63.3701 39.0061 63.9058 39.0055H144.251C144.786 39.0061 145.3 39.2188 145.679 39.5969C146.057 39.975 146.27 40.4876 146.271 41.0223V137.119C146.27 137.654 146.057 138.167 145.679 138.545C145.3 138.923 144.786 139.136 144.251 139.136Z" fill="#41495F"/>
<path d="M107.287 34.2599H57.25C56.1787 34.2615 55.1518 34.6869 54.3942 35.4431C53.6367 36.1992 53.2105 37.2243 53.209 38.2936V135.055L53.6844 134.91V38.2936C53.6855 37.3501 54.0616 36.4454 54.73 35.7782C55.3984 35.111 56.3047 34.7356 57.25 34.7345H107.435L107.287 34.2599ZM150.906 34.2599H57.25C56.1787 34.2615 55.1518 34.6869 54.3942 35.4431C53.6367 36.1992 53.2105 37.2243 53.209 38.2936V146.966C53.2105 148.036 53.6367 149.061 54.3942 149.817C55.1518 150.573 56.1787 150.998 57.25 151H150.906C151.978 150.998 153.005 150.573 153.762 149.817C154.52 149.061 154.946 148.036 154.947 146.966V38.2936C154.946 37.2243 154.52 36.1992 153.762 35.4431C153.005 34.6869 151.978 34.2615 150.906 34.2599ZM154.472 146.966C154.471 147.91 154.095 148.815 153.426 149.482C152.758 150.149 151.852 150.524 150.906 150.525H57.25C56.3047 150.524 55.3984 150.149 54.73 149.482C54.0616 148.815 53.6855 147.91 53.6844 146.966V38.2936C53.6855 37.3501 54.0616 36.4454 54.73 35.7782C55.3984 35.111 56.3047 34.7356 57.25 34.7345H150.906C151.852 34.7356 152.758 35.111 153.426 35.7782C154.095 36.4454 154.471 37.3501 154.472 38.2936V146.966Z" fill="#69758C" stroke="#69758C" stroke-width="0.4"/>
<path d="M125.947 44.7001H82.2092C81.642 44.6995 81.0982 44.4743 80.6971 44.0739C80.2961 43.6736 80.0705 43.1308 80.0698 42.5646V32.1244C80.0705 31.5583 80.2961 31.0155 80.6971 30.6151C81.0982 30.2148 81.642 29.9896 82.2092 29.989H125.947C126.514 29.9896 127.058 30.2148 127.459 30.6151C127.86 31.0155 128.086 31.5583 128.087 32.1244V42.5646C128.086 43.1308 127.86 43.6736 127.459 44.0739C127.058 44.4743 126.514 44.6995 125.947 44.7001Z" fill="#6C63FF"/>
<path d="M104.078 30.7008C106.704 30.7008 108.832 28.5762 108.832 25.9553C108.832 23.3344 106.704 21.2098 104.078 21.2098C101.452 21.2098 99.324 23.3344 99.324 25.9553C99.324 28.5762 101.452 30.7008 104.078 30.7008Z" fill="#6C63FF"/>
<path d="M104.078 28.8458C105.677 28.8458 106.974 27.5517 106.974 25.9553C106.974 24.3589 105.677 23.0648 104.078 23.0648C102.479 23.0648 101.182 24.3589 101.182 25.9553C101.182 27.5517 102.479 28.8458 104.078 28.8458Z" fill="#30384E"/>
<g clip-path="url(#clip0_428_2920)">
<g opacity="0.5">
<path d="M120.536 100.023L116.789 104.029L87.9351 78.1855L91.6819 74.176L120.536 100.023Z" fill="#283046"/>
<path d="M115.221 73.2892L119.361 76.9989L93.25 104.916L89.1101 101.21L115.221 73.2892Z" fill="#283046"/>
</g>
</g>
<defs>
<clipPath id="clip0_428_2920">
<rect width="32.6006" height="31.6265" fill="white" transform="translate(87.9351 73.2892)"/>
</clipPath>
</defs>
</svg>
