<svg width="18" height="18" viewBox="0 0 18 18" fill="none" xmlns="http://www.w3.org/2000/svg">
    <g clip-path="url(#clip0_2450_27950)">
        <path d="M8.9997 12.3488C8.53733 12.3488 8.1625 12.7237 8.1625 13.186C8.1625 13.6484 8.53733 14.0233 8.9997 14.0233C9.46208 14.0233 9.83691 13.6484 9.83691 13.186C9.83691 12.7237 9.46208 12.3488 8.9997 12.3488Z" fill="#8D91A5"/>
        <path d="M8.37209 10.6744C8.37209 11.0212 8.65323 11.3023 9 11.3023C9.34677 11.3023 9.62791 11.0212 9.62791 10.6744H8.37209ZM9.62791 4.81395C9.62791 4.46717 9.34677 4.18605 9 4.18605C8.65323 4.18605 8.37209 4.46717 8.37209 4.81395H9.62791ZM16.7442 9C16.7442 13.277 13.277 16.7442 9 16.7442V18C13.9706 18 18 13.9706 18 9H16.7442ZM9 16.7442C4.72301 16.7442 1.25581 13.277 1.25581 9H0C0 13.9706 4.02944 18 9 18V16.7442ZM1.25581 9C1.25581 4.72301 4.72301 1.25581 9 1.25581V0C4.02944 0 0 4.02944 0 9H1.25581ZM9 1.25581C13.277 1.25581 16.7442 4.72301 16.7442 9H18C18 4.02944 13.9706 0 9 0V1.25581ZM9.62791 10.6744V4.81395H8.37209V10.6744H9.62791Z" fill="#8D91A5"/>
    </g>
    <defs>
        <clipPath id="clip0_2450_27950">
            <rect width="18" height="18" fill="white"/>
        </clipPath>
    </defs>
</svg>
