<svg width="19" height="19" viewBox="0 0 19 19" fill="none" xmlns="http://www.w3.org/2000/svg">
<path d="M10.7603 0.25C10.4569 0.25 10.2109 0.495947 10.2109 0.799316V8.52637C10.2109 8.82974 10.4569 9.07568 10.7603 9.07568H18.4507C18.7541 9.07568 19 8.82974 19 8.52637C19 3.98077 15.3113 0.25 10.7603 0.25ZM11.3096 7.97705V1.36965C14.8111 1.63864 17.6144 4.45714 17.8807 7.97705H11.3096ZM11.778 17.7693L9.1123 10.6245V3.0332C9.1123 2.72983 8.86636 2.48389 8.56299 2.48389C4.0394 2.48389 0.25 6.15138 0.25 10.7236C0.25 15.2617 4.00267 19 8.56299 19C9.5582 19 10.5318 18.8236 11.4568 18.4755C11.7402 18.3689 11.8839 18.0531 11.778 17.7693ZM8.56299 17.9014C4.58499 17.9014 1.34863 14.6815 1.34863 10.7236C1.34863 6.96891 4.29128 3.88168 8.01367 3.60303V10.7236C8.01367 10.7892 8.02539 10.8542 8.04832 10.9157L10.5499 17.6204C9.90695 17.807 9.24092 17.9014 8.56299 17.9014Z" fill="#000224" fill-opacity="0.5"/>
<path d="M18.4507 10.1738H10.7603C10.6716 10.1738 10.5842 10.1953 10.5056 10.2364C10.427 10.2775 10.3596 10.337 10.309 10.4099C10.2584 10.4827 10.2262 10.5667 10.2152 10.6547C10.2042 10.7427 10.2146 10.8321 10.2456 10.9152L12.946 18.1529C13.0527 18.4387 13.3709 18.5816 13.6541 18.475C16.8517 17.2721 19 14.1568 19 10.7231C19 10.4198 18.7541 10.1738 18.4507 10.1738ZM13.7752 17.2325L11.5515 11.2688H17.8802C17.6815 13.8428 16.1 16.1427 13.7752 17.2325Z" fill="#000224" fill-opacity="0.5"/>
</svg>