

<svg width="15" height="15" viewBox="0 0 15 15"  fill="currentColor" xmlns="http://www.w3.org/2000/svg">
<path d="M8.4082 0C8.16551 0 7.96875 0.196758 7.96875 0.439453V6.62109C7.96875 6.86379 8.16551 7.06055 8.4082 7.06055H14.5605C14.8032 7.06055 15 6.86379 15 6.62109C15 2.98462 12.049 0 8.4082 0ZM8.84766 6.18164V0.895723C11.6489 1.11091 13.8915 3.36571 14.1045 6.18164H8.84766ZM9.22242 14.0155L7.08984 8.2996V2.22656C7.08984 1.98387 6.89309 1.78711 6.65039 1.78711C3.03152 1.78711 0 4.7211 0 8.37891C0 12.0093 3.00214 15 6.65039 15C7.44656 15 8.22548 14.8588 8.96546 14.5804C9.19216 14.4951 9.30712 14.2424 9.22242 14.0155ZM6.65039 14.1211C3.46799 14.1211 0.878906 11.5452 0.878906 8.37891C0.878906 5.37513 3.23303 2.90534 6.21094 2.68242V8.37891C6.21094 8.43135 6.22031 8.48338 6.23865 8.53254L8.23989 13.8963C7.72556 14.0456 7.19273 14.1211 6.65039 14.1211Z" />
<path d="M14.5606 7.93945H8.40822C8.33726 7.93944 8.26737 7.95661 8.2045 7.9895C8.14163 8.02238 8.08765 8.07 8.0472 8.12828C8.00674 8.18657 7.98099 8.25378 7.97216 8.32418C7.96334 8.39458 7.97169 8.46607 7.99651 8.53254L10.1568 14.3227C10.2421 14.5513 10.4967 14.6657 10.7233 14.5804C13.2813 13.618 15 11.1258 15 8.37891C15 8.13621 14.8033 7.93945 14.5606 7.93945ZM10.8202 13.5864L9.0412 8.81543H14.1041C13.9452 10.8746 12.68 12.7146 10.8202 13.5864Z" />
</svg>
