<svg width="19" height="19" viewBox="0 0 19 19" fill="none" xmlns="http://www.w3.org/2000/svg">
    <path fill-rule="evenodd" clip-rule="evenodd"
        d="M5.43072 0.538086C2.81361 0.538086 0.692261 2.65944 0.692261 5.27655V13.5689C0.692261 16.186 2.81361 18.3073 5.43072 18.3073H13.723C16.3401 18.3073 18.4615 16.186 18.4615 13.5689V5.27655C18.4615 2.65944 16.3401 0.538086 13.723 0.538086H5.43072ZM8.39226 9.4227C8.39228 9.50575 8.37484 9.58787 8.34106 9.66374C8.30728 9.73961 8.25793 9.80752 8.19621 9.86308L5.23467 12.5285C5.17684 12.5805 5.10932 12.6206 5.03598 12.6466C4.96264 12.6725 4.8849 12.6838 4.80721 12.6797C4.72952 12.6756 4.6534 12.6562 4.5832 12.6227C4.51299 12.5892 4.45007 12.5422 4.39803 12.4843C4.346 12.4265 4.30586 12.359 4.27992 12.2856C4.25397 12.2123 4.24273 12.1346 4.24682 12.0569C4.25092 11.9792 4.27028 11.9031 4.3038 11.8329C4.33731 11.7627 4.38433 11.6997 4.44216 11.6477L6.91445 9.4227L4.44216 7.1977C4.32536 7.0926 4.2551 6.94542 4.24682 6.78852C4.23855 6.63162 4.29294 6.47786 4.39803 6.36106C4.50313 6.24427 4.65031 6.174 4.80721 6.16573C4.96411 6.15745 5.11787 6.21184 5.23467 6.31694L8.19621 8.98232C8.25793 9.03788 8.30728 9.1058 8.34106 9.18166C8.37484 9.25753 8.39228 9.33965 8.39226 9.4227ZM14.3153 12.6804C14.4724 12.6804 14.6231 12.618 14.7342 12.5069C14.8452 12.3958 14.9076 12.2452 14.9076 12.0881C14.9076 11.931 14.8452 11.7803 14.7342 11.6693C14.6231 11.5582 14.4724 11.4958 14.3153 11.4958H9.57688C9.41979 11.4958 9.26913 11.5582 9.15805 11.6693C9.04697 11.7803 8.98457 11.931 8.98457 12.0881C8.98457 12.2452 9.04697 12.3958 9.15805 12.5069C9.26913 12.618 9.41979 12.6804 9.57688 12.6804H14.3153Z"
        fill="currentColor" />
</svg>