<svg stroke="currentColor" fill="currentColor" stroke-width="0" viewBox="0 0 16 16" icon="bullet-list"
    aria-hidden="true" alt="" width="15" height="15" xmlns="http://www.w3.org/2000/svg">
    <path fill-rule="evenodd"  d="M12.7111 1H2.88886C1.84604 1.00093 1.0009 1.84607 1 2.88886V12.7111C1.00093 13.7539 1.84607 14.5991 2.88886 14.6H12.7111C13.7539 14.5991 14.5991 13.7539 14.6 12.7111V2.88886C14.5991 1.84604 13.7539 1.0009 12.7111 1ZM6.0056 10.6334V7.98883H9.59446V10.6334H6.0056ZM9.59446 11.3888V13.8444H6.0056V11.3888H9.59446ZM9.59446 4.7778V7.23337H6.0056V4.7778H9.59446ZM13.8445 4.7778V7.23337H10.35V4.7778H13.8445ZM5.25 7.23337H1.75557V4.7778H5.25V7.23337ZM1.75557 7.98883H5.25V10.6334H1.75557V7.98883ZM10.35 7.98883H13.8444V10.6334H10.35V7.98883ZM2.88886 1.75557H12.7111C13.3367 1.75621 13.8438 2.26329 13.8444 2.88883V4.0222H1.75557V2.88886C1.75623 2.26331 2.26331 1.75623 2.88886 1.75557ZM1.75554 12.7112V11.3888H5.25V13.8444H2.88886C2.26329 13.8438 1.75618 13.3367 1.75554 12.7112ZM12.7111 13.8444H10.35V11.3888H13.8444V12.7112C13.8438 13.3367 13.3367 13.8438 12.7111 13.8444Z"/>
    <path fill-rule="evenodd" d="M12.7112 0.95H12.7111L2.88886 0.95L2.88881 0.95C1.81842 0.950954 0.950927 1.81844 0.95 2.88882V2.88886L0.95 12.7111L0.95 12.7112C0.950954 13.7816 1.81844 14.649 2.88881 14.65H2.88886H12.7111H12.7112C13.7816 14.649 14.649 13.7816 14.65 12.7112V12.7111V2.88886V2.88881C14.649 1.81842 13.7816 0.950927 12.7112 0.95ZM6.0556 10.5834V8.03883H9.54446V10.5834H6.0556ZM9.54446 11.4388V13.7944H6.0556V11.4388H9.54446ZM9.54446 4.8278V7.18337H6.0556V4.8278H9.54446ZM13.7945 4.8278V7.18337H10.4V4.8278H13.7945ZM5.2 7.18337H1.80557V4.8278H5.2V7.18337ZM1.80557 8.03883H5.2V10.5834H1.80557V8.03883ZM10.4 8.03883H13.7944V10.5834H10.4V8.03883ZM2.88891 1.80557H12.7111C13.3091 1.80618 13.7938 2.29091 13.7944 2.88888V3.9722H1.80557V2.88891C1.80621 2.29094 2.29094 1.80621 2.88891 1.80557ZM1.80554 12.7111V11.4388H5.2V13.7944H2.88891C2.29091 13.7938 1.80615 13.3091 1.80554 12.7111ZM12.7111 13.7944H10.4V11.4388H13.7944V12.7111C13.7938 13.3091 13.3091 13.7938 12.7111 13.7944Z" />
</svg>