<svg width="18" height="18" viewBox="0 0 18 18" fill="none" xmlns="http://www.w3.org/2000/svg">
<path d="M14.8889 0.25H2.61107C1.30755 0.251162 0.251129 1.30759 0.25 2.61107V14.8889C0.251162 16.1924 1.30759 17.2488 2.61107 17.25H14.8889C16.1924 17.2488 17.2488 16.1924 17.25 14.8889V2.61107C17.2488 1.30755 16.1924 0.251129 14.8889 0.25ZM6.507 12.2917V8.98604H10.9931V12.2917H6.507ZM10.9931 13.236V16.3055H6.507V13.236H10.9931ZM10.9931 4.97225V8.04171H6.507V4.97225H10.9931ZM16.3056 4.97225V8.04171H11.9375V4.97225H16.3056ZM5.5625 8.04171H1.19446V4.97225H5.5625V8.04171ZM1.19446 8.98604H5.5625V12.2917H1.19446V8.98604ZM11.9375 8.98604H16.3055V12.2917H11.9375V8.98604ZM2.61107 1.19446H14.8889C15.6709 1.19526 16.3047 1.82911 16.3055 2.61104V4.02775H1.19446V2.61107C1.19529 1.82914 1.82914 1.19529 2.61107 1.19446ZM1.19443 14.889V13.236H5.5625V16.3055H2.61107C1.82911 16.3047 1.19523 15.6709 1.19443 14.889ZM14.8889 16.3055H11.9375V13.236H16.3055V14.889C16.3047 15.6709 15.6709 16.3047 14.8889 16.3055Z" fill="#000224" fill-opacity="0.5"/>
<path d="M14.8889 1.24446H2.61113L2.61107 1.24446M14.8889 1.24446L1.19446 2.61107C1.19529 1.82914 1.82914 1.19529 2.61107 1.19446V1.24446M14.8889 1.24446C14.8889 1.24446 14.8889 1.24446 14.8889 1.24446C15.6433 1.24526 16.2548 1.85675 16.2555 2.61109V3.97775H1.24446M14.8889 1.24446L14.8889 1.19446L1.24446 3.97775M2.61107 1.24446C1.85676 1.24529 1.24529 1.85676 1.24446 2.61107M2.61107 1.24446L1.24446 2.61107M1.24446 3.97775L1.24446 2.61113L1.24446 2.61107M1.24446 3.97775V2.61107M1.24443 13.286L1.24443 14.8889L1.24443 14.889M1.24443 13.286L2.61107 16.3055C1.82911 16.3047 1.19523 15.6709 1.19443 14.889H1.24443M1.24443 13.286H5.5125V16.2555H2.61112M1.24443 13.286L2.61112 16.2555M1.24443 14.889C1.24523 15.6433 1.85675 16.2548 2.61112 16.2555M1.24443 14.889L2.61112 16.2555M14.889 0.2H14.8889L2.61107 0.2L2.61103 0.2C1.27993 0.201187 0.201153 1.27996 0.2 2.61103V2.61107L0.2 14.8889L0.2 14.889C0.201187 16.22 1.27996 17.2988 2.61103 17.3H2.61107H14.8889H14.889C16.22 17.2988 17.2988 16.22 17.3 14.889V14.8889V2.61107V2.61103C17.2988 1.27993 16.22 0.201153 14.889 0.2ZM6.557 12.2417V9.03604H10.9431V12.2417H6.557ZM10.9431 13.286V16.2555H6.557V13.286H10.9431ZM10.9431 5.02225V7.99171H6.557V5.02225H10.9431ZM16.2556 5.02225V7.99171H11.9875V5.02225H16.2556ZM5.5125 7.99171H1.24446V5.02225H5.5125V7.99171ZM1.24446 9.03604H5.5125V12.2417H1.24446V9.03604ZM11.9875 9.03604H16.2555V12.2417H11.9875V9.03604ZM14.8889 16.2555H11.9875V13.286H16.2555V14.8889C16.2548 15.6433 15.6432 16.2548 14.8889 16.2555Z" stroke="#000224" stroke-opacity="0.5" stroke-width="0.1"/>
</svg>