<svg width="16" height="16" viewBox="0 0 16 16" fill="none" xmlns="http://www.w3.org/2000/svg">
<g clip-path="url(#clip0_3901_2208)">
<path d="M15.2163 3.33398C15.2163 2.65768 14.9477 2.00908 14.4695 1.53086C13.9912 1.05264 13.3426 0.783984 12.6663 0.783984H3.33301C2.65671 0.783984 2.0081 1.05264 1.52989 1.53086C1.05167 2.00908 0.783008 2.65768 0.783008 3.33398V12.6673C0.783008 13.3436 1.05167 13.9922 1.52989 14.4704C2.0081 14.9487 2.65671 15.2173 3.33301 15.2173H12.6663C13.3426 15.2173 13.9912 14.9487 14.4695 14.4704C14.9477 13.9922 15.2163 13.3436 15.2163 12.6673V3.33398ZM14.1163 3.33398V12.6673C14.1163 13.0519 13.9636 13.4207 13.6916 13.6926C13.4197 13.9646 13.0509 14.1173 12.6663 14.1173H3.33301C2.94844 14.1173 2.57963 13.9646 2.3077 13.6926C2.03578 13.4207 1.88301 13.0519 1.88301 12.6673V3.33398C1.88301 2.94942 2.03578 2.58061 2.3077 2.30868C2.57963 2.03675 2.94844 1.88398 3.33301 1.88398H12.6663C13.0509 1.88398 13.4197 2.03675 13.6916 2.30868C13.9636 2.58061 14.1163 2.94942 14.1163 3.33398Z" fill="#8D91A5" stroke="#8D91A5" stroke-width="0.1"/>
<path d="M4.2888 9.92913L4.2888 9.92914C4.23556 9.97704 4.17341 10.014 4.1059 10.0379C4.03839 10.0617 3.96683 10.0721 3.89531 10.0683C3.8238 10.0646 3.75373 10.0467 3.6891 10.0159C3.62448 9.98503 3.56656 9.94175 3.51866 9.88852C3.47076 9.83528 3.43381 9.77313 3.40993 9.70562C3.38605 9.63811 3.3757 9.56655 3.37947 9.49504C3.38324 9.42352 3.40106 9.35345 3.43191 9.28883C3.46276 9.2242 3.50604 9.16628 3.55928 9.11838L5.5851 7.29519L3.55928 5.47199C3.55928 5.47199 3.55928 5.47199 3.55927 5.47199C3.45176 5.37525 3.38709 5.23976 3.37947 5.09534C3.37185 4.95091 3.42192 4.80937 3.51866 4.70186C3.6154 4.59434 3.75089 4.52966 3.89531 4.52205C4.03974 4.51443 4.18128 4.5645 4.2888 4.66124L4.2888 4.66124L6.76499 6.88981L6.76499 6.88981C6.82181 6.94096 6.86724 7.00348 6.89833 7.07332C6.92942 7.14315 6.94548 7.21874 6.94547 7.29518L4.2888 9.92913ZM4.2888 9.92913L6.76499 7.70056L6.76499 7.70056C6.82181 7.64942 6.86724 7.5869 6.89833 7.51706C6.92942 7.44723 6.94548 7.37164 6.94547 7.2952L4.2888 9.92913ZM11.8478 10.069C11.9925 10.069 12.1311 10.0116 12.2334 9.9093C12.3356 9.80705 12.3931 9.66836 12.3931 9.52376C12.3931 9.37915 12.3356 9.24047 12.2334 9.13822C12.1311 9.03596 11.9925 8.97852 11.8478 8.97852H7.88594C7.74134 8.97852 7.60265 9.03596 7.5004 9.13822C7.39815 9.24047 7.3407 9.37915 7.3407 9.52376C7.3407 9.66836 7.39815 9.80705 7.5004 9.9093C7.60265 10.0116 7.74134 10.069 7.88594 10.069H11.8478Z" fill="#8D91A5" stroke="#8D91A5" stroke-width="0.1"/>
</g>
<defs>
<clipPath id="clip0_3901_2208">
<rect width="16" height="16" fill="white"/>
</clipPath>
</defs>
</svg>
