<svg width="20" height="20" viewBox="0 0 26 26" fill="none" xmlns="http://www.w3.org/2000/svg">
<path d="M3.39694 11.936C3.63663 9.77879 4.59541 7.74139 6.15342 6.18338C8.07097 4.38568 10.4679 3.4269 12.9847 3.4269C15.3816 3.4269 17.8984 4.38568 19.816 6.18338L17.7786 8.22078H23.7709V2.22843L21.4938 4.50552C16.8198 -0.168508 9.14959 -0.168508 4.47556 4.50552C2.55801 6.42308 1.35954 8.93986 1 11.6963V13.0147H3.39694C3.39694 12.6551 3.39694 12.2956 3.39694 11.936V11.936Z" fill="#8D91A5"/>
<path d="M22.5742 13.0146C22.5742 15.5314 21.6154 18.0482 19.8177 19.8459C17.9001 21.6436 15.5032 22.6024 12.9864 22.6024C10.4696 22.6024 8.0727 21.6436 6.15514 19.8459L8.19254 17.8085H2.2002V23.8009L4.47729 21.5238C6.75438 23.8009 9.75055 24.9993 12.9864 24.9993C16.2223 24.9993 19.2185 23.8009 21.4956 21.5238C23.7726 19.2467 24.9711 16.1307 24.9711 13.0146H22.5742Z" fill="#8D91A5"/>
</svg>
