<svg width="18" height="18" viewBox="0 0 18 18" fill="none" xmlns="http://www.w3.org/2000/svg">
    <path d="M1.79775 8.20225C1.97753 6.58427 2.69663 5.05618 3.86517 3.88764C5.30337 2.53933 7.10112 1.82022 8.98876 1.82022C10.7865 1.82022 12.6742 2.53933 14.1124 3.88764L12.5843 5.41573H17.0786V0.921348L15.3708 2.62921C11.8652 -0.876404 6.11236 -0.876404 2.60674 2.62921C1.16854 4.06742 0.269663 5.95506 0 8.02247V9.01124H1.79775C1.79775 8.74157 1.79775 8.47191 1.79775 8.20225Z" fill="currentColor"/>
    <path d="M16.1793 9.01129C16.1793 10.8989 15.4602 12.7866 14.1119 14.1349C12.6737 15.4832 10.876 16.2023 8.98832 16.2023C7.10068 16.2023 5.30293 15.4832 3.86473 14.1349L5.39282 12.6068H0.898438V17.1012L2.6063 15.3933C4.31417 17.1012 6.56136 18.0001 8.98832 18.0001C11.4153 18.0001 13.6625 17.1012 15.3703 15.3933C17.0782 13.6854 17.9771 11.3484 17.9771 9.01129H16.1793Z" fill="currentColor"/>
</svg>
