<svg width="18" height="18" viewBox="0 0 14 14" fill="none" xmlns="http://www.w3.org/2000/svg">
<path d="M7 0.4375C3.38144 0.4375 0.4375 3.38144 0.4375 7C0.4375 10.6186 3.38144 13.5625 7 13.5625C10.6186 13.5625 13.5625 10.6186 13.5625 7C13.5625 3.38144 10.6186 0.4375 7 0.4375ZM7 12.6875C3.864 12.6875 1.3125 10.136 1.3125 7C1.3125 3.864 3.864 1.3125 7 1.3125C10.136 1.3125 12.6875 3.864 12.6875 7C12.6875 10.136 10.136 12.6875 7 12.6875ZM9.492 6.23088L6.7235 4.10156C6.55892 3.97708 6.36297 3.90081 6.15754 3.88127C5.95211 3.86172 5.74529 3.89967 5.56019 3.99087C5.21194 4.16237 4.99538 4.49969 4.99538 4.87069V9.12931C4.99538 9.50031 5.21194 9.83762 5.56019 10.0091C5.71594 10.0857 5.88525 10.1237 6.05369 10.1237C6.29569 10.1245 6.53116 10.0453 6.7235 9.89844L9.492 7.76912C9.73831 7.57969 9.87963 7.29925 9.87963 7C9.87963 6.70075 9.73875 6.41988 9.492 6.23088Z" fill="white"/>
</svg>
