<svg width="12" height="13" viewBox="0 0 12 13" xmlns="http://www.w3.org/2000/svg">
<path d="M10.1463 0H0.951218C0.69894 0 0.456994 0.100217 0.278605 0.278605C0.100217 0.456994 0 0.69894 0 0.951218V11.8902C0.000248236 12.0985 0.0600941 12.3023 0.172466 12.4776C0.284839 12.6529 0.445042 12.7923 0.634146 12.8795C0.786682 12.9595 0.956527 13.0009 1.12878 13C1.35786 12.9925 1.57916 12.915 1.76292 12.778L5.1556 10.2415C5.26537 10.1591 5.39888 10.1146 5.53609 10.1146C5.6733 10.1146 5.80681 10.1591 5.91658 10.2415L9.30926 12.778C9.47413 12.9017 9.67019 12.977 9.87545 12.9955C10.0807 13.014 10.2871 12.975 10.4714 12.8828C10.6557 12.7907 10.8108 12.649 10.9191 12.4737C11.0275 12.2983 11.0849 12.0963 11.0849 11.8902V0.951218C11.0849 0.701122 10.9864 0.461078 10.8108 0.28305C10.6351 0.105022 10.3964 0.00333462 10.1463 0Z" fill="currentColor"/>
</svg>
