<svg width="16" height="19" viewBox="0 0 16 19" xmlns="http://www.w3.org/2000/svg">
<path d="M14.2012 0.75H1.55793C1.21104 0.75 0.878366 0.887799 0.633083 1.13308C0.387799 1.37837 0.25 1.71104 0.25 2.05793V17.0991C0.250341 17.3854 0.332629 17.6656 0.487141 17.9066C0.641653 18.1477 0.861932 18.3395 1.12195 18.4593C1.33169 18.5693 1.56522 18.6262 1.80207 18.625C2.11706 18.6147 2.42135 18.5082 2.67402 18.3198L7.33896 14.832C7.48989 14.7188 7.67346 14.6576 7.86212 14.6576C8.05079 14.6576 8.23436 14.7188 8.38529 14.832L13.0502 18.3198C13.2769 18.4898 13.5465 18.5934 13.8287 18.6188C14.111 18.6443 14.3947 18.5906 14.6482 18.4639C14.9016 18.3372 15.1148 18.1423 15.2638 17.9013C15.4128 17.6602 15.4917 17.3824 15.4917 17.0991V2.05793C15.4917 1.71404 15.3563 1.38398 15.1148 1.13919C14.8733 0.894406 14.5451 0.754585 14.2012 0.75Z" fill="currentColor"/>
</svg>
