<svg width="18" height="18" viewBox="0 0 18 18" fill="none" xmlns="http://www.w3.org/2000/svg">
<path fill-rule="evenodd" clip-rule="evenodd" d="M1.5 0.875C1.66576 0.875 1.82473 0.940848 1.94194 1.05806C2.05915 1.17527 2.125 1.33424 2.125 1.5V15.875H16.5C16.6658 15.875 16.8247 15.9408 16.9419 16.0581C17.0592 16.1753 17.125 16.3342 17.125 16.5C17.125 16.6658 17.0592 16.8247 16.9419 16.9419C16.8247 17.0592 16.6658 17.125 16.5 17.125H1.5C1.33424 17.125 1.17527 17.0592 1.05806 16.9419C0.940848 16.8247 0.875 16.6658 0.875 16.5V1.5C0.875 1.33424 0.940848 1.17527 1.05806 1.05806C1.17527 0.940848 1.33424 0.875 1.5 0.875Z" fill="#000224" fill-opacity="0.5"/>
<path d="M1.9773 1.0227C1.85071 0.896116 1.67902 0.825 1.5 0.825C1.32098 0.825 1.14929 0.896116 1.0227 1.0227C0.896116 1.14929 0.825 1.32098 0.825 1.5V16.5C0.825 16.679 0.896116 16.8507 1.0227 16.9773C1.14929 17.1039 1.32098 17.175 1.5 17.175H16.5C16.679 17.175 16.8507 17.1039 16.9773 16.9773C17.1039 16.8507 17.175 16.679 17.175 16.5C17.175 16.321 17.1039 16.1493 16.9773 16.0227C16.8507 15.8961 16.679 15.825 16.5 15.825H2.175V1.5C2.175 1.32098 2.10388 1.14929 1.9773 1.0227Z" stroke="#000224" stroke-opacity="0.5" stroke-width="0.1"/>
<path fill-rule="evenodd" clip-rule="evenodd" d="M7.33333 9C7.77536 9 8.19928 8.8244 8.51184 8.51184C8.8244 8.19928 9 7.77536 9 7.33333C9 6.89131 8.8244 6.46738 8.51184 6.15482C8.19928 5.84226 7.77536 5.66667 7.33333 5.66667C6.89131 5.66667 6.46738 5.84226 6.15482 6.15482C5.84226 6.46738 5.66667 6.89131 5.66667 7.33333C5.66667 7.77536 5.84226 8.19928 6.15482 8.51184C6.46738 8.8244 6.89131 9 7.33333 9ZM14.4167 5.66667C14.9692 5.66667 15.4991 5.44717 15.8898 5.05647C16.2805 4.66577 16.5 4.13587 16.5 3.58333C16.5 3.0308 16.2805 2.5009 15.8898 2.11019C15.4991 1.71949 14.9692 1.5 14.4167 1.5C13.8641 1.5 13.3342 1.71949 12.9435 2.11019C12.5528 2.5009 12.3333 3.0308 12.3333 3.58333C12.3333 4.13587 12.5528 4.66577 12.9435 5.05647C13.3342 5.44717 13.8641 5.66667 14.4167 5.66667ZM5.25 14C5.58152 14 5.89946 13.8683 6.13388 13.6339C6.3683 13.3995 6.5 13.0815 6.5 12.75C6.5 12.4185 6.3683 12.1005 6.13388 11.8661C5.89946 11.6317 5.58152 11.5 5.25 11.5C4.91848 11.5 4.60054 11.6317 4.36612 11.8661C4.1317 12.1005 4 12.4185 4 12.75C4 13.0815 4.1317 13.3995 4.36612 13.6339C4.60054 13.8683 4.91848 14 5.25 14ZM12.75 12.3333C13.0815 12.3333 13.3995 12.2016 13.6339 11.9672C13.8683 11.7328 14 11.4149 14 11.0833C14 10.7518 13.8683 10.4339 13.6339 10.1994C13.3995 9.96503 13.0815 9.83333 12.75 9.83333C12.4185 9.83333 12.1005 9.96503 11.8661 10.1994C11.6317 10.4339 11.5 10.7518 11.5 11.0833C11.5 11.4149 11.6317 11.7328 11.8661 11.9672C12.1005 12.2016 12.4185 12.3333 12.75 12.3333Z" fill="#000224" fill-opacity="0.5"/>
<path d="M7.33333 9.05C7.78862 9.05 8.22526 8.86914 8.5472 8.5472C8.86914 8.22526 9.05 7.78862 9.05 7.33333C9.05 6.87805 8.86914 6.4414 8.5472 6.11947C8.22526 5.79753 7.78862 5.61667 7.33333 5.61667C6.87804 5.61667 6.4414 5.79753 6.11947 6.11947C5.79753 6.4414 5.61667 6.87805 5.61667 7.33333C5.61667 7.78862 5.79753 8.22526 6.11947 8.5472C6.4414 8.86914 6.87804 9.05 7.33333 9.05ZM14.4167 5.71667C14.9825 5.71667 15.5251 5.49191 15.9252 5.09183C16.3252 4.69175 16.55 4.14913 16.55 3.58333C16.55 3.01754 16.3252 2.47492 15.9252 2.07484C15.5251 1.67476 14.9825 1.45 14.4167 1.45C13.8509 1.45 13.3083 1.67476 12.9082 2.07484C12.5081 2.47492 12.2833 3.01754 12.2833 3.58333C12.2833 4.14913 12.5081 4.69175 12.9082 5.09183C13.3083 5.49191 13.8509 5.71667 14.4167 5.71667ZM5.25 14.05C5.59478 14.05 5.92544 13.913 6.16924 13.6692C6.41304 13.4254 6.55 13.0948 6.55 12.75C6.55 12.4052 6.41304 12.0746 6.16924 11.8308C5.92544 11.587 5.59478 11.45 5.25 11.45C4.90522 11.45 4.57456 11.587 4.33076 11.8308C4.08696 12.0746 3.95 12.4052 3.95 12.75C3.95 13.0948 4.08696 13.4254 4.33076 13.6692C4.57456 13.913 4.90522 14.05 5.25 14.05ZM12.75 12.3833C13.0948 12.3833 13.4254 12.2464 13.6692 12.0026C13.913 11.7588 14.05 11.4281 14.05 11.0833C14.05 10.7386 13.913 10.4079 13.6692 10.1641C13.4254 9.9203 13.0948 9.78333 12.75 9.78333C12.4052 9.78333 12.0746 9.9203 11.8308 10.1641C11.587 10.4079 11.45 10.7386 11.45 11.0833C11.45 11.4281 11.587 11.7588 11.8308 12.0026C12.0746 12.2464 12.4052 12.3833 12.75 12.3833Z" stroke="#000224" stroke-opacity="0.5" stroke-width="0.1"/>
</svg>