
<svg stroke="currentColor" fill="currentColor" width="14" height="14" viewBox="0 0 14 14" xmlns="http://www.w3.org/2000/svg">
<path d="M1.38891 0.611091C1.28576 0.507946 1.14587 0.45 1 0.45C0.854131 0.45 0.714236 0.507946 0.611091 0.611091C0.507946 0.714236 0.45 0.854131 0.45 1V13C0.45 13.1459 0.507946 13.2858 0.611091 13.3889C0.714236 13.4921 0.854131 13.55 1 13.55H13C13.1459 13.55 13.2858 13.4921 13.3889 13.3889C13.4921 13.2858 13.55 13.1459 13.55 13C13.55 12.8541 13.4921 12.7142 13.3889 12.6111C13.2858 12.5079 13.1459 12.45 13 12.45H1.55V1C1.55 0.854131 1.49205 0.714236 1.38891 0.611091Z" stroke="#000224" stroke-opacity="0.5" stroke-width="0.1"/>
<path fill-rule="evenodd" clip-rule="evenodd" d="M5.66667 7C6.02029 7 6.35943 6.85952 6.60948 6.60948C6.85952 6.35943 7 6.02029 7 5.66667C7 5.31304 6.85952 4.97391 6.60948 4.72386C6.35943 4.47381 6.02029 4.33333 5.66667 4.33333C5.31304 4.33333 4.97391 4.47381 4.72386 4.72386C4.47381 4.97391 4.33333 5.31304 4.33333 5.66667C4.33333 6.02029 4.47381 6.35943 4.72386 6.60948C4.97391 6.85952 5.31304 7 5.66667 7ZM11.3333 4.33333C11.7754 4.33333 12.1993 4.15774 12.5118 3.84518C12.8244 3.53262 13 3.10869 13 2.66667C13 2.22464 12.8244 1.80072 12.5118 1.48816C12.1993 1.17559 11.7754 1 11.3333 1C10.8913 1 10.4674 1.17559 10.1548 1.48816C9.84226 1.80072 9.66667 2.22464 9.66667 2.66667C9.66667 3.10869 9.84226 3.53262 10.1548 3.84518C10.4674 4.15774 10.8913 4.33333 11.3333 4.33333ZM4 11C4.26522 11 4.51957 10.8946 4.70711 10.7071C4.89464 10.5196 5 10.2652 5 10C5 9.73478 4.89464 9.48043 4.70711 9.29289C4.51957 9.10536 4.26522 9 4 9C3.73478 9 3.48043 9.10536 3.29289 9.29289C3.10536 9.48043 3 9.73478 3 10C3 10.2652 3.10536 10.5196 3.29289 10.7071C3.48043 10.8946 3.73478 11 4 11ZM10 9.66667C10.2652 9.66667 10.5196 9.56131 10.7071 9.37377C10.8946 9.18624 11 8.93188 11 8.66667C11 8.40145 10.8946 8.1471 10.7071 7.95956C10.5196 7.77202 10.2652 7.66667 10 7.66667C9.73478 7.66667 9.48043 7.77202 9.29289 7.95956C9.10536 8.1471 9 8.40145 9 8.66667C9 8.93188 9.10536 9.18624 9.29289 9.37377C9.48043 9.56131 9.73478 9.66667 10 9.66667Z" fill="#000224" fill-opacity="0.5"/>
</svg>
