<svg width="16" height="16" viewBox="0 0 16 16" fill="currentColor" xmlns="http://www.w3.org/2000/svg">
<path d="M15.354 10.1438L13.9752 9.06563C13.9927 8.89937 14.0077 8.70502 14.0077 8.49938C14.0077 8.29375 13.9933 8.09939 13.9752 7.93314L15.3552 6.85439C15.6115 6.65189 15.6815 6.29251 15.5184 5.99315L14.0846 3.5125C13.9315 3.23251 13.5958 3.08875 13.2552 3.21438L11.6283 3.86749C11.3165 3.64249 10.9896 3.4525 10.6515 3.30063L10.404 1.57501C10.3633 1.2475 10.0783 1 9.74148 1H6.86649C6.5296 1 6.24525 1.2475 6.20523 1.57L5.95711 3.30188C5.6296 3.44939 5.30775 3.63689 4.98211 3.86875L3.35086 3.21376C3.04521 3.09563 2.67958 3.22812 2.52771 3.50688L1.0921 5.99063C0.922736 6.27689 0.992727 6.64876 1.25461 6.85627L2.63335 7.93439C2.61147 8.14501 2.60086 8.32814 2.60086 8.50003C2.60086 8.67191 2.6115 8.85502 2.63335 9.06628L1.25335 10.145C0.997092 10.3481 0.927717 10.7075 1.09084 11.0063L2.5246 13.4869C2.67774 13.7663 3.01023 13.9113 3.35397 13.785L4.98085 13.1319C5.2921 13.3563 5.61897 13.5463 5.95711 13.6988L6.20461 15.4238C6.24522 15.7525 6.5296 16 6.8671 16H9.74209C10.079 16 10.364 15.7525 10.404 15.43L10.6521 13.6988C10.9796 13.5506 11.3008 13.3637 11.6271 13.1312L13.2583 13.7862C13.3364 13.8168 13.4195 13.8325 13.5033 13.8325C13.7458 13.8325 13.969 13.7 14.0815 13.4937L15.5215 11C15.6815 10.7075 15.6115 10.3481 15.354 10.1438ZM8.30397 11C6.92523 11 5.80398 9.87874 5.80398 8.5C5.80398 7.12126 6.92523 6.00001 8.30397 6.00001C9.68271 6.00001 10.804 7.12126 10.804 8.5C10.804 9.87874 9.68271 11 8.30397 11Z" fill="currentColor" />
</svg>
