<svg width="16" height="14" viewBox="0 0 16 14" fill="none" xmlns="http://www.w3.org/2000/svg">
<path d="M0.88525 13.4868C0.923375 13.4956 0.961875 13.4999 1 13.4999C1.09287 13.5 1.18391 13.4741 1.26291 13.4253C1.34191 13.3765 1.40574 13.3066 1.44725 13.2236C2.373 11.3721 3.2495 9.61957 8 9.50582V12.9999C8 13.0971 8.02832 13.1922 8.08149 13.2736C8.13465 13.3549 8.21036 13.419 8.29937 13.4581C8.38842 13.4973 8.48702 13.5096 8.58298 13.4935C8.67895 13.4773 8.76808 13.4334 8.83937 13.3672L15.3394 7.36719C15.4419 7.27294 15.5 7.13957 15.5 6.99994C15.5 6.86032 15.4419 6.72694 15.3394 6.63282L8.83937 0.632816C8.76799 0.566834 8.67891 0.523093 8.58305 0.506946C8.48719 0.490799 8.3887 0.502946 8.29964 0.541901C8.21057 0.580856 8.1348 0.644929 8.08158 0.72628C8.02836 0.80763 8.00001 0.90273 8 0.999941V4.50582C1.07475 4.67769 0.5 8.45644 0.5 12.9999C0.500106 13.1126 0.538187 13.2219 0.60809 13.3103C0.677994 13.3986 0.775638 13.4608 0.88525 13.4868Z" fill="white"/>
</svg>
