<svg width="16" height="16" viewBox="0 0 16 16" xmlns="http://www.w3.org/2000/svg">
<path d="M0.88525 14.4868C0.923375 14.4956 0.961875 14.4999 1 14.4999C1.09287 14.5 1.18391 14.4741 1.26291 14.4253C1.34191 14.3765 1.40574 14.3066 1.44725 14.2236C2.373 12.3721 3.2495 10.6196 8 10.5058V13.9999C8 14.0971 8.02832 14.1922 8.08149 14.2736C8.13465 14.3549 8.21036 14.419 8.29937 14.4581C8.38842 14.4973 8.48702 14.5096 8.58298 14.4935C8.67895 14.4773 8.76808 14.4334 8.83937 14.3672L15.3394 8.36719C15.4419 8.27294 15.5 8.13957 15.5 7.99994C15.5 7.86032 15.4419 7.72694 15.3394 7.63282L8.83937 1.63282C8.76799 1.56683 8.67891 1.52309 8.58305 1.50695C8.48719 1.4908 8.3887 1.50295 8.29964 1.5419C8.21057 1.58086 8.1348 1.64493 8.08158 1.72628C8.02836 1.80763 8.00001 1.90273 8 1.99994V5.50582C1.07475 5.67769 0.5 9.45644 0.5 13.9999C0.500106 14.1126 0.538187 14.2219 0.60809 14.3103C0.677994 14.3986 0.775638 14.4608 0.88525 14.4868Z" fill="currentColor" />
</svg>
