<svg width="11" height="13" viewBox="0 0 11 13" xmlns="http://www.w3.org/2000/svg">
<path d="M8.95794 0H1.65877C1.21883 0 0.79692 0.174762 0.485841 0.485841C0.174762 0.79692 0 1.21883 0 1.65877V11.8396C0.000176385 12.0467 0.0557554 12.25 0.160976 12.4285C0.266196 12.6069 0.417228 12.754 0.598416 12.8544C0.779604 12.9548 0.984354 13.005 1.19144 12.9996C1.39853 12.9943 1.60041 12.9336 1.77617 12.824L4.6048 11.0562C4.81569 10.9244 5.05937 10.8546 5.30805 10.8546C5.55673 10.8546 5.80041 10.9244 6.01129 11.0562L8.83992 12.824C9.01569 12.9336 9.21757 12.9943 9.42466 12.9996C9.63175 13.005 9.83649 12.9548 10.0177 12.8544C10.1989 12.754 10.3499 12.6069 10.4551 12.4285C10.5603 12.25 10.6159 12.0467 10.6161 11.8396V1.65877C10.6161 1.21894 10.4414 0.797116 10.1305 0.486054C9.81952 0.174992 9.39776 0.000159647 8.95794 0ZM7.71642 4.21465H2.89968C2.73999 4.21465 2.58685 4.15121 2.47393 4.0383C2.36102 3.92539 2.29759 3.77224 2.29759 3.61256C2.29759 3.45287 2.36102 3.29973 2.47393 3.18681C2.58685 3.0739 2.73999 3.01046 2.89968 3.01046H7.71642C7.87611 3.01046 8.02925 3.0739 8.14217 3.18681C8.25508 3.29973 8.31851 3.45287 8.31851 3.61256C8.31851 3.77224 8.25508 3.92539 8.14217 4.0383C8.02925 4.15121 7.87611 4.21465 7.71642 4.21465Z" fill="currentColor" />
</svg>
