<svg width="24" height="24" viewBox="0 0 24 24" fill="none" xmlns="http://www.w3.org/2000/svg">
<g clip-path="url(#clip0_4923_16565)">
<path d="M18.5871 8.03023H16.464C16.2187 8.03023 15.9833 7.92549 15.8181 7.74095L14.9568 6.77337C14.8266 6.62873 14.6464 6.54395 14.4511 6.54395C14.2558 6.54395 14.0755 6.62873 13.9453 6.77337L13.2043 7.60629C12.9639 7.87562 12.6134 8.03522 12.2529 8.03522H0.63092C0.300438 8.96789 0.0851241 9.9604 0 10.9928H10.971C11.1663 10.9928 11.3465 10.913 11.4817 10.7734L12.5032 9.71103C12.6284 9.57636 12.8087 9.50155 12.9889 9.50155H13.029C13.2243 9.50155 13.4045 9.58634 13.5347 9.73098L14.396 10.6986C14.5612 10.8831 14.7966 10.9878 15.0419 10.9878H23.995C23.9099 9.9604 23.6946 8.9629 23.3641 8.02524L18.5871 8.03023Z" fill="#000224"/>
<path d="M6.63948 17.217C6.83477 17.217 7.01503 17.1372 7.15023 16.9975L8.17172 15.9352C8.30191 15.8005 8.47716 15.7257 8.66243 15.7257H8.70249C8.89777 15.7257 9.08305 15.8105 9.20823 15.9501L10.0695 16.9177C10.2347 17.1023 10.4701 17.207 10.7154 17.207H22.8531C23.3088 16.2693 23.6393 15.2669 23.8396 14.2145H12.1876C11.9422 14.2145 11.7069 14.1097 11.5416 13.9252L10.6804 12.9676C10.5502 12.823 10.3699 12.7432 10.1746 12.7432C9.97935 12.7432 9.79408 12.828 9.6689 12.9676L8.92782 13.8005C8.68747 14.0748 8.33696 14.2294 7.97142 14.2294H0.165039C0.365331 15.2818 0.695813 16.2843 1.15148 17.222L6.63948 17.217Z" fill="#000224"/>
<path d="M15.2469 4.79302C15.4422 4.79302 15.6225 4.71322 15.7577 4.57357L16.7792 3.51122C16.9044 3.37656 17.0846 3.30175 17.2699 3.30175H17.31C17.5052 3.30175 17.6855 3.38653 17.8157 3.53117L18.677 4.50374C18.8422 4.68828 19.0775 4.79302 19.3229 4.79302H21.6313C19.4331 1.8803 15.938 0 12.0022 0C8.06647 0 4.56637 1.8803 2.36816 4.79302H15.2469Z" fill="#000224"/>
<path d="M10.6152 20.1844H7.46056C7.2152 20.1844 6.97986 20.0797 6.81462 19.8951L5.95336 18.9276C5.82317 18.7829 5.64291 18.7031 5.44762 18.7031C5.25234 18.7031 5.06707 18.7879 4.94188 18.9276L4.2008 19.7605C3.96045 20.0348 3.60994 20.1894 3.24441 20.1894H3.19434C5.39254 22.5335 8.52211 24.0049 12.0022 24.0049C15.4823 24.0049 18.6068 22.5335 20.81 20.1894L10.6152 20.1844Z" fill="#000224"/>
</g>
<defs>
<clipPath id="clip0_4923_16565">
<rect width="24" height="24" fill="white"/>
</clipPath>
</defs>
</svg>
