<svg width="18" height="18" viewBox="0 0 18 18" fill="none" xmlns="http://www.w3.org/2000/svg">
<path d="M9.91457 9L13.8104 5.10421C13.8707 5.04414 13.9185 4.9727 13.9511 4.89403C13.9836 4.81536 14.0002 4.73101 14 4.64588C14.001 4.56094 13.9848 4.47667 13.9522 4.39822C13.9196 4.31978 13.8713 4.2488 13.8104 4.18963C13.7512 4.12868 13.6802 4.08044 13.6018 4.04784C13.5233 4.01525 13.4391 3.99898 13.3541 4.00005C13.269 3.99977 13.1846 4.01638 13.106 4.04893C13.0273 4.08147 12.9559 4.12929 12.8958 4.18963L9 8.08543L5.10421 4.18963C5.04414 4.12929 4.9727 4.08147 4.89403 4.04893C4.81536 4.01638 4.73101 3.99977 4.64588 4.00005C4.56094 3.99898 4.47667 4.01525 4.39822 4.04784C4.31978 4.08044 4.2488 4.12868 4.18963 4.18963C4.12868 4.2488 4.08044 4.31978 4.04784 4.39822C4.01525 4.47667 3.99898 4.56094 4.00005 4.64588C3.99977 4.73101 4.01638 4.81536 4.04893 4.89403C4.08147 4.9727 4.12929 5.04414 4.18963 5.10421L8.08543 9L4.18963 12.8958C4.12929 12.9559 4.08147 13.0273 4.04893 13.106C4.01638 13.1846 3.99977 13.269 4.00005 13.3541C3.99898 13.4391 4.01525 13.5233 4.04784 13.6018C4.08044 13.6802 4.12868 13.7512 4.18963 13.8104C4.2488 13.8713 4.31978 13.9196 4.39822 13.9522C4.47667 13.9848 4.56094 14.001 4.64588 14C4.73101 14.0002 4.81536 13.9836 4.89403 13.9511C4.9727 13.9185 5.04414 13.8707 5.10421 13.8104L9 9.91457L12.8958 13.8104C12.9559 13.8707 13.0273 13.9185 13.106 13.9511C13.1846 13.9836 13.269 14.0002 13.3541 14C13.5252 13.9994 13.6892 13.9312 13.8102 13.8102C13.9312 13.6892 13.9994 13.5252 14 13.3541C14.0002 13.269 13.9836 13.1846 13.9511 13.106C13.9185 13.0273 13.8707 12.9559 13.8104 12.8958L9.91457 9Z" fill="white"/>
</svg>
