<svg width="32" height="32" viewBox="0 0 32 32" fill="none" xmlns="http://www.w3.org/2000/svg">
<rect width="32" height="32" rx="4" fill="#000224" fill-opacity="0.05"/>
<g clip-path="url(#clip0_4004_33669)">
<path d="M24.8575 13.9525C24.7604 13.7771 24.618 13.631 24.4452 13.5295C24.2724 13.4279 24.0755 13.3745 23.875 13.375H13.2145C12.8551 13.3751 12.5054 13.4917 12.2179 13.7074C11.9304 13.9231 11.7206 14.2262 11.62 14.5713L9.50987 21.805C9.3988 22.1858 9.16724 22.5203 8.84992 22.7583C8.5326 22.9963 8.14666 23.125 7.75 23.125H21.1555C21.5522 23.125 21.9382 22.9963 22.2556 22.7583C22.573 22.5203 22.8046 22.1858 22.9158 21.805L24.9415 14.86C24.9886 14.7108 25.0054 14.5537 24.991 14.3978C24.9767 14.242 24.931 14.0906 24.8575 13.9525Z" fill="#000224" fill-opacity="0.5"/>
<path d="M8.78875 21.595L10.9 14.3612C11.0471 13.8612 11.3518 13.422 11.7687 13.1091C12.1856 12.7963 12.6925 12.6264 13.2137 12.625H22.75V12.25C22.75 11.8522 22.592 11.4706 22.3107 11.1893C22.0294 10.908 21.6478 10.75 21.25 10.75H15.5335C15.4217 10.75 15.3114 10.7251 15.2104 10.6771C15.1095 10.6291 15.0205 10.5592 14.95 10.4725L14.2127 9.56612C14.0372 9.35023 13.8157 9.17617 13.5644 9.05662C13.3131 8.93707 13.0383 8.87502 12.76 8.875H8.5C8.10218 8.875 7.72064 9.03304 7.43934 9.31434C7.15804 9.59564 7 9.97718 7 10.375V21.625C7 21.8239 7.07902 22.0147 7.21967 22.1553C7.36032 22.296 7.55109 22.375 7.75 22.375C7.98409 22.3744 8.21171 22.2981 8.39891 22.1575C8.5861 22.0169 8.72285 21.8196 8.78875 21.595Z" fill="#000224" fill-opacity="0.5"/>
</g>
<defs>
<clipPath id="clip0_4004_33669">
<rect width="18" height="18" fill="white" transform="translate(7 7)"/>
</clipPath>
</defs>
</svg>
